<?xml version="1.0" encoding="UTF-8" standalone="no"?>
<svg
   id="Layer_2"
   data-name="Layer 2"
   width="148.8"
   height="24.92"
   viewBox="0 0 148.8 24.92"
   version="1.1"
   sodipodi:docname="mcx_spear_world.svg"
   inkscape:version="1.3.2 (091e20e, 2023-11-25, custom)"
   xmlns:inkscape="http://www.inkscape.org/namespaces/inkscape"
   xmlns:sodipodi="http://sodipodi.sourceforge.net/DTD/sodipodi-0.dtd"
   xmlns="http://www.w3.org/2000/svg"
   xmlns:svg="http://www.w3.org/2000/svg">
  <sodipodi:namedview
     id="namedview1"
     pagecolor="#ffffff"
     bordercolor="#000000"
     borderopacity="0.25"
     inkscape:showpageshadow="2"
     inkscape:pageopacity="0.0"
     inkscape:pagecheckerboard="0"
     inkscape:deskcolor="#d1d1d1"
     inkscape:zoom="2.8284271"
     inkscape:cx="64.70027"
     inkscape:cy="89.272231"
     inkscape:window-width="1920"
     inkscape:window-height="1017"
     inkscape:window-x="-8"
     inkscape:window-y="-8"
     inkscape:window-maximized="1"
     inkscape:current-layer="Layer_2" />
  <defs
     id="defs1">
    <style
       id="style1">
      .cls-1 {
        fill: #917852;
      }

      .cls-2, .cls-3 {
        fill: #c8a572;
      }

      .cls-4 {
        fill: #121212;
      }

      .cls-5 {
        fill: #181209;
      }

      .cls-6 {
        fill: #19130b;
      }

      .cls-7 {
        fill: #9a825e;
      }

      .cls-3, .cls-8, .cls-9, .cls-10 {
        stroke-width: 3px;
      }

      .cls-3, .cls-10 {
        stroke: #1a1814;
      }

      .cls-8 {
        stroke: #121212;
      }

      .cls-8, .cls-9 {
        fill: #5e5c64;
      }

      .cls-9 {
        stroke: #171717;
      }

      .cls-10 {
        fill: #77767b;
      }
    </style>
    <clipPath
       id="clip0_619_1195">
      <rect
         width="110"
         height="110"
         fill="#ffffff"
         transform="translate(0.0859375)"
         id="rect78"
         x="0"
         y="0" />
    </clipPath>
  </defs>
  <rect
     id="rect11263-9"
     class="cls-9"
     x="15.6"
     y="8.12"
     width="118.9"
     height="7.6" />
  <path
     id="rect11263-9-6"
     class="cls-9"
     d="M136,6.92h10c.7,0,1.3,.6,1.3,1.3v7.4c0,.7-.6,1.3-1.3,1.3h-10c-.8,0-1.5-.7-1.5-1.5v-7c0-.9,.7-1.6,1.5-1.5Z" />
  <rect
     id="rect11263"
     class="cls-3"
     x="1.5"
     y="6.62"
     width="34"
     height="10.4"
     rx="1.07"
     ry="1.07" />
  <polygon
     id="rect11263-5"
     class="cls-3"
     points="58.2 17.52 74.7 12.32 76.5 17.62 60.1 22.72 58.2 17.52" />
  <path
     id="rect11263-5-6"
     class="cls-10"
     d="M56.7,17.62h3.3c1.1,0,1.9,.9,1.9,1.9v2.1c0,1-.8,1.8-1.9,1.8h-3.3c-1.1,0-1.9-.9-1.9-1.9v-2.1c0-1,.9-1.8,1.9-1.8Z" />
  <path
     id="rect11263-1"
     class="cls-3"
     d="M87.2,4.72l9.5-3.1c1.2-.4,2.4,.2,2.9,1.4h0c.5,1.2-.2,2.6-1.4,3l-9.5,3.1c-1.2,.4-2.4-.2-2.9-1.4h0c-.5-1.2,.1-2.6,1.4-3Z" />
  <path
     id="rect11263-7"
     class="cls-8"
     d="M81.6,11.42h18.7c1.3,0,2.4,1.1,2.4,2.3v6c0,1.3-1.1,2.3-2.4,2.3h-18.7c-1.3,0-2.3-1.1-2.3-2.3v-6c0-1.3,1.1-2.3,2.3-2.3Z" />
  <path
     id="path886"
     class="cls-2"
     d="M50.7,5.22h54.7c1.1,0,2,.9,2,2v9.4c0,1.1-.9,2-2,2H50.7c-1.1,0-2-.9-2-2V7.22c0-1.1,.9-2,2-2Z" />
  <path
     id="path848"
     class="cls-2"
     d="M108.7,6.02h13.2c.5,0,.9,.4,.9,.9v9.9c0,.5-.4,.9-.9,.9h-13.2c-.5,0-.9-.4-.9-.9V6.92c0-.5,.4-.9,.9-.9Z" />
  <rect
     id="rect25092"
     class="cls-7"
     x="49.5"
     y="13.92"
     width="55.9"
     height="2.1" />
  <rect
     id="rect25092-7"
     class="cls-7"
     x="49.5"
     y="7.72"
     width="55.9"
     height="2.1" />
  <rect
     id="rect25092-7-4"
     class="cls-7"
     x="108.9"
     y="7.82"
     width="12.4"
     height="2" />
  <rect
     id="rect25092-7-4-6"
     class="cls-7"
     x="108.9"
     y="13.82"
     width="12.4"
     height="2" />
  <rect
     id="rect29604"
     class="cls-1"
     x="54.9"
     y="7.92"
     width="2.4"
     height="8" />
  <rect
     id="rect29604-8"
     class="cls-1"
     x="60.9"
     y="7.92"
     width="2.4"
     height="8" />
  <rect
     id="rect29604-8-5"
     class="cls-1"
     x="66.8"
     y="7.92"
     width="2.4"
     height="8" />
  <rect
     id="rect29604-8-5-9"
     class="cls-1"
     x="72.9"
     y="7.92"
     width="2.4"
     height="8" />
  <rect
     id="rect29604-4"
     class="cls-1"
     x="79"
     y="7.92"
     width="2.4"
     height="8" />
  <rect
     id="rect29604-8-3"
     class="cls-1"
     x="85"
     y="7.92"
     width="2.4"
     height="8" />
  <rect
     id="rect29604-8-5-90"
     class="cls-1"
     x="90.9"
     y="7.92"
     width="2.4"
     height="8" />
  <rect
     id="rect29604-8-5-9-5"
     class="cls-1"
     x="97"
     y="7.92"
     width="2.4"
     height="8" />
  <rect
     id="rect29604-4-6"
     class="cls-1"
     x="103"
     y="7.92"
     width="2.4"
     height="8" />
  <rect
     id="rect29604-8-3-3-4"
     class="cls-1"
     x="110.3"
     y="7.92"
     width="2.4"
     height="8" />
  <rect
     id="rect29604-8-5-90-6-3"
     class="cls-1"
     x="116.2"
     y="7.92"
     width="2.4"
     height="8" />
  <rect
     id="rect31"
     class="cls-4"
     x="139"
     y="10.72"
     width="8.4"
     height="2.3"
     rx=".68"
     ry=".68" />
  <path
     id="path850"
     class="cls-6"
     d="M108.7,4.52c-1.3,0-2.4,1.1-2.4,2.4v9.9c0,1.3,1.1,2.4,2.4,2.4h13.2c1.3,0,2.4-1.1,2.4-2.4V6.92c0-1.3-1.1-2.4-2.4-2.4h-13.2Zm.6,3h12v8.7h-12V7.52Z" />
  <path
     id="path888"
     class="cls-5"
     d="M50.7,3.72c-1.92,0-3.5,1.58-3.5,3.5v9.4c0,1.92,1.58,3.5,3.5,3.5h54.7c1.92,0,3.5-1.58,3.5-3.5V7.22c0-1.92-1.58-3.5-3.5-3.5H50.7Zm0,3h54.7c.28,0,.5,.22,.5,.5v9.4c0,.28-.22,.5-.5,.5H50.7c-.28,0-.5-.22-.5-.5V7.22c0-.28,.22-.5,.5-.5Z" />
  <rect
     style="fill:#c4252e;stroke:#000000;stroke-width:3.53764;stroke-opacity:0"
     id="rect1"
     width="27.981724"
     height="19.090334"
     x="-1.5690686"
     y="-64.070297" />
  <g
     clip-path="url(#clip0_619_1195)"
     id="g76"
     transform="matrix(1.0071511,0,0,1.0071511,39.689985,-104.13849)">
    <path
       fill-rule="evenodd"
       clip-rule="evenodd"
       d="m 22.6539,60.7986 2.3429,4.5746 c 0.4337,-0.399 1.2352,-0.9708 2.1065,-1.4126 0.4558,-0.2311 0.9379,-0.4304 1.4028,-0.5501 0.462,-0.119 0.9252,-0.1642 1.334,-0.0678 1.416,0.3338 2.149,0.336 2.3423,0.2965 l 8.0925,-4.6722 -0.4071,-0.7052 0.3187,-0.9212 2.8772,-1.6612 1.0822,0.2552 1.0128,1.7542 1.3374,-0.7721 c 0.0799,-0.035 0.2182,-0.0753 0.3533,-0.0661 0.143,0.0096 0.3154,0.0725 0.4202,0.2541 l 1.277,2.2118 -0.463,1.0477 0.2747,0.1173 0.6173,-1.6783 -1.9079,-3.3046 11.0847,-6.3998 0.4691,0.8124 c 0.2455,-0.2787 0.5426,-0.5746 0.8991,-0.877 l -0.0786,-0.136 2.4822,-1.4331 -3.7888,-6.5624 13.8049,-7.9703 0.4062,-1.7306 1.3941,-0.8049 c 0.0468,0.0182 0.1096,0.0454 0.1772,0.0791 l 16.0864,-9.2875 -0.4711,-0.8161 0.34,-0.1963 -0.4185,0.0603 -63.7203,36.7889 0.4831,1.3079 c -0.5427,0.2378 -1.7569,0.9146 -2.2715,1.7194 z m 4.0585,-0.6658 c 0.0511,-0.7911 -0.5239,-1.0122 -0.8178,-1.0239 -0.6591,0.3503 -1.9604,1.159 -1.8922,1.5912 0.0681,0.4321 0.4558,0.6586 0.6412,0.7179 0.6072,-0.3355 1.845,-1.029 1.9381,-1.119 0.0931,-0.09 0.1259,-0.1483 0.1307,-0.1662 z"
       fill="#c1995b"
       id="path2" />
    <path
       d="m 56.5869,70.8944 -5.5612,-6.9648 -0.2939,-0.3681 3.807,-5.8032 3.6328,-3.0013 1.158,0.884 8.0787,9.9287 -0.8284,0.6615 -0.441,-0.5523 c -0.1176,-0.1473 -0.286,-0.1066 -0.3556,-0.0678 l -8.376,6.6882 -1.0045,-1.258 z"
       fill="#585450"
       id="path4" />
    <path
       fill-rule="evenodd"
       clip-rule="evenodd"
       d="m 57.9085,59.2094 -1.5776,-1.9757 1.8409,-1.4699 1.4,1.7533 0.6691,-0.6807 0.6976,0.6334 -0.7749,0.7885 1.9071,2.3884 0.6691,-0.6808 0.6976,0.6334 -0.7749,0.7885 3.2019,4.01 -1.8409,1.4699 -3.0243,-3.7876 -2.4673,2.5103 2.7609,3.4577 -0.7363,0.588 -2.6899,-3.3688 -2.6903,2.7371 -0.6976,-0.6334 2.7961,-2.8448 -1.9071,-2.3885 -2.6903,2.7372 -0.6976,-0.6334 2.7961,-2.8449 -1.912,-2.3945 0.7364,-0.588 1.841,2.3056 z m 0.5918,0.7412 -2.4673,2.5102 1.9071,2.3884 2.4673,-2.5102 z"
       fill="#383633"
       stroke="#363430"
       stroke-width="0.501008"
       stroke-miterlimit="3.99393"
       id="path6" />
    <path
       d="m 57.3803,72.2687 c 0.2858,0.4628 0.8311,1.0408 1.1762,1.2213 0.3452,0.1805 1.3264,-0.5764 1.8434,-1.041 l 6.9498,-5.8798 c 0.1486,-0.1705 0.3501,-0.6312 0.0762,-0.9742 l -0.0402,-0.0092 -0.8083,0.6455 -0.441,-0.5523 c -0.1176,-0.1473 -0.286,-0.1066 -0.3556,-0.0678 l -8.376,6.6881 z"
       fill="#585450"
       stroke="#363430"
       stroke-width="1.00202"
       stroke-miterlimit="3.99393"
       id="path8" />
    <path
       d="m 56.5869,70.8944 -5.5612,-6.9648 -0.2939,-0.3681 3.807,-5.8032 3.6328,-3.0013 1.158,0.884 8.0787,9.9287 -0.8284,0.6615 -0.441,-0.5523 c -0.1176,-0.1473 -0.286,-0.1066 -0.3556,-0.0678 l -8.376,6.6882 -1.0045,-1.258 z"
       stroke="#363430"
       stroke-width="1.00202"
       stroke-miterlimit="3.99393"
       id="path10" />
    <path
       d="m 104.809,16.9935 -3.128,1.8061 0.078,0.136 -43.9305,25.3635 1.2957,2.2441 43.9308,-25.3635 0.118,0.204 3.128,-1.806 -0.078,-0.1361 2.652,-1.5312 -0.393,-0.68 -2.652,1.5312 -0.55,-0.9521 2.652,-1.5312 -0.392,-0.68 -2.652,1.5312 z"
       fill="#56524e"
       stroke="#363330"
       stroke-width="1.00202"
       stroke-miterlimit="3.99393"
       id="path12" />
    <path
       d="m 21.9197,65.8922 -0.884,0.5104 -2.022,-3.5022 c 0.6528,-0.3769 1.4979,-0.4417 1.8389,-0.427 0.5886,-0.6365 0.6779,-0.8485 0.7792,-1.0846 l 0.8161,-0.4712 3.3569,5.8144 -1.8701,1.0797 z"
       fill="#56534e"
       stroke="#363430"
       stroke-width="1.00202"
       stroke-miterlimit="3.99393"
       id="path14" />
    <path
       d="M 0.844026,73.6283 C 0.793977,72.9802 1.34131,72.742 1.8366,72.4561 L 2.71637,71.9482 11.9902,84.7289 9.68926,86.0573 7.50965,84.1576 C 5.24073,81.0352 0.916138,74.5621 0.844026,73.6283 Z"
       fill="#423e38"
       stroke="#37342f"
       stroke-width="1.00202"
       stroke-miterlimit="3.99393"
       id="path16" />
    <path
       fill-rule="evenodd"
       clip-rule="evenodd"
       d="m 21.262,67.4965 0.7762,3.5868 -9.3241,7.4687 -0.0636,5.7945 -1.4241,0.8221 L 8.6813,83.6005 4.46484,77.1943 Z M 8.61387,77.1564 C 8.48376,76.931 8.19562,76.8538 7.97027,76.9839 7.74493,77.114 7.6677,77.4022 7.79782,77.6275 l 2.15943,3.7403 c 0.13015,0.2253 0.41825,0.3025 0.64365,0.1724 0.2253,-0.1301 0.3025,-0.4182 0.1724,-0.6436 z"
       fill="#be9453"
       id="path18" />
    <path
       fill-rule="evenodd"
       clip-rule="evenodd"
       d="M 8.61218,77.1566 C 8.48206,76.9312 8.19392,76.854 7.96857,76.9842 7.74323,77.1143 7.66601,77.4024 7.79612,77.6278 l 2.15944,3.7402 c 0.13014,0.2254 0.41824,0.3026 0.64364,0.1725 0.2253,-0.1301 0.3025,-0.4183 0.1724,-0.6436 z"
       stroke="#4a381c"
       stroke-width="0.501008"
       stroke-miterlimit="3.99393"
       id="path20" />
    <path
       d="M 20.5058,72.0953 18.8254,73.709 16.666,69.9688 18.625,68.8377 Z"
       fill="#7e5f30"
       stroke="#4a381c"
       stroke-width="0.501008"
       stroke-miterlimit="3.99393"
       id="path22" />
    <path
       d="m 23.5586,58.2822 1.4961,-0.8637 0.157,0.272 1.1561,-0.6675 0.4712,0.8161 -1.4961,0.8637 -0.1571,-0.272 -1.1561,0.6675 z"
       fill="#585450"
       stroke="#363330"
       stroke-width="0.5"
       stroke-miterlimit="3.99393"
       id="path24" />
    <path
       d="M 44.4077,62.2016 44.3081,61.715 c -0.6454,-0.5945 -1.7442,-1.2779 -0.9755,0.7446 0.9609,2.5281 1.8818,2.6311 2.1983,2.6297 0.2532,-0.0011 0.2642,-0.0921 0.238,-0.1374 -1.4484,-0.687 -1.511,-2.1198 -1.3612,-2.7503 z"
       fill="#433f3d"
       stroke="#363330"
       stroke-width="0.501008"
       stroke-miterlimit="3.99393"
       id="path26" />
    <path
       d="m 28.0749,61.4771 -1.8937,-3.123 -0.449,-1.3275 63.6862,-36.7692 0.4525,-0.08 0.4319,0.7481 -16.3891,9.4622 -1.6033,0.8351 -0.3526,1.745 -15.4371,8.9126 2.7996,5.3201 0.4112,1.576 -1.1298,1.1057 c -0.3968,-0.7502 -1.3676,-0.903 -1.7713,-0.7908 l -12.6148,7.2832 -9.8267,5.6734 c -3.2171,1.9662 -5.5498,0.4386 -6.314,-0.5709 z"
       fill="#c8a56e"
       stroke="#4a381c"
       stroke-width="0.5"
       stroke-miterlimit="3.99393"
       id="path28" />
    <path
       d="m 55.0465,41.2815 -0.7611,2.9221 -23.6147,13.634 0.5152,-2.7801 z"
       fill="#c1995b"
       stroke="#4a381c"
       stroke-width="0.5"
       stroke-miterlimit="3.99393"
       id="path30" />
    <path
       fill-rule="evenodd"
       clip-rule="evenodd"
       d="m 25.5015,66.3619 -0.3877,-0.757 -0.1729,-0.1809 c 0.4186,-0.4002 1.2517,-1.0025 2.1608,-1.4634 0.4557,-0.2311 0.9378,-0.4304 1.4027,-0.5502 0.4621,-0.119 0.9253,-0.1641 1.334,-0.0678 1.416,0.3338 2.1491,0.336 2.3423,0.2965 l 8.0926,-4.6722 -0.4072,-0.7052 0.3187,-0.9212 2.8773,-1.6612 1.0821,0.2552 1.0128,1.7542 1.3374,-0.7721 c 0.0799,-0.035 0.2182,-0.0753 0.3533,-0.0661 0.143,0.0097 0.3154,0.0725 0.4203,0.2542 l 1.2769,2.2117 -0.463,1.0477 0.2747,0.1173 0.6173,-1.6783 -1.9079,-3.3046 11.0847,-6.3998 0.4908,0.8501 c 0.0651,0.1126 0.0265,0.2567 -0.0862,0.3218 -0.0747,0.0431 -0.1633,0.0407 -0.2334,0.0012 -0.4652,0.6034 -0.6741,1.0888 -0.725,1.3228 l 1.6687,2.8901 0.3218,0.0863 0.53,0.918 -9.3642,7.8093 -0.2643,0.1526 c -1.1707,0.9893 -3.0815,2.5045 -3.2979,2.6294 -0.1122,0.0648 -0.7736,0.3444 -1.5677,0.6802 -0.8502,0.3594 -1.8524,0.7832 -2.4957,1.0765 l -2.2659,-2.9534 -1.0756,0.6209 -0.4122,-0.714 -2.2782,1.3153 -4.8357,0.0264 c -0.0955,0.0702 -0.4195,0.2784 -0.9521,0.5496 -0.5325,0.2712 -1.6266,0.3498 -2.1071,0.3552 z m 23.111,-5.5149 -1.0624,-0.4827 c -0.2323,-0.0349 -0.4312,-0.0117 -0.5597,0.0288 l -4.5954,2.6531 c -0.4084,0.3985 -0.3,0.8821 -0.1751,1.0985 0.226,0.4438 0.7662,1.4527 1.119,1.9381 0.3528,0.4855 0.9956,0.468 1.2728,0.3986 0.5493,-0.2265 1.7635,-0.7462 2.226,-1.0131 0.578,-0.3338 2.3538,-1.8124 2.601,-2.0911 0.1628,-0.1837 0.2771,-0.4481 0.3337,-0.6155 C 49.5212,62.3035 49.2,61.6978 48.8401,61.1792 48.7813,61.0944 48.6743,60.9172 48.6125,60.847 Z"
       fill="#bd9351"
       id="path32" />
    <path
       fill-rule="evenodd"
       clip-rule="evenodd"
       d="m 25.5015,66.3619 -0.3877,-0.757 -0.1729,-0.1809 c 0.4186,-0.4002 1.2517,-1.0025 2.1608,-1.4634 0.4557,-0.2311 0.9378,-0.4304 1.4027,-0.5502 0.4621,-0.119 0.9253,-0.1641 1.334,-0.0678 1.416,0.3338 2.1491,0.336 2.3423,0.2965 l 8.0926,-4.6722 -0.4072,-0.7052 0.3187,-0.9212 2.8773,-1.6612 1.0821,0.2552 1.0128,1.7542 1.3374,-0.7721 c 0.0799,-0.035 0.2182,-0.0753 0.3533,-0.0661 0.143,0.0097 0.3154,0.0725 0.4203,0.2542 l 1.2769,2.2117 -0.463,1.0477 0.2747,0.1173 0.6173,-1.6783 -1.9079,-3.3046 11.0847,-6.3998 0.4908,0.8501 c 0.0651,0.1126 0.0265,0.2567 -0.0862,0.3218 -0.0747,0.0431 -0.1633,0.0407 -0.2334,0.0012 -0.4652,0.6034 -0.6741,1.0888 -0.725,1.3228 l 1.6687,2.8901 0.3218,0.0863 0.53,0.918 -9.3642,7.8093 -0.2643,0.1526 c -1.1707,0.9893 -3.0815,2.5045 -3.2979,2.6294 -0.1122,0.0648 -0.7736,0.3444 -1.5677,0.6802 -0.8502,0.3594 -1.8524,0.7832 -2.4957,1.0765 l -2.2659,-2.9534 -1.0756,0.6209 -0.4122,-0.714 -2.2782,1.3153 -4.8357,0.0264 c -0.0955,0.0702 -0.4195,0.2784 -0.9521,0.5496 -0.5325,0.2712 -1.6266,0.3498 -2.1071,0.3552 z m 23.111,-5.5149 -1.0624,-0.4827 c -0.2323,-0.0349 -0.4312,-0.0117 -0.5597,0.0288 l -4.5954,2.6531 c -0.4084,0.3985 -0.3,0.8821 -0.1751,1.0985 0.226,0.4438 0.7662,1.4527 1.119,1.9381 0.3528,0.4855 0.9956,0.468 1.2728,0.3986 0.5493,-0.2265 1.7635,-0.7462 2.226,-1.0131 0.578,-0.3338 2.3538,-1.8124 2.601,-2.0911 0.1628,-0.1837 0.2771,-0.4481 0.3337,-0.6155 C 49.5212,62.3035 49.2,61.6978 48.8401,61.1792 48.7813,61.0944 48.6743,60.9172 48.6125,60.847 Z"
       stroke="#4a381c"
       stroke-width="0.501008"
       stroke-miterlimit="3.99393"
       id="path34" />
    <path
       d="m 46.9525,57.4234 c -0.5409,0.1309 -0.9734,0.4864 -1.122,0.6478 l 1.1778,2.0401 c 0.0959,0.0353 0.3626,0.0627 0.6619,-0.1101 0.2992,-0.1727 0.3791,-0.5211 0.3817,-0.6737 z"
       fill="#433f3d"
       stroke="#363330"
       stroke-width="0.501008"
       stroke-miterlimit="3.99393"
       id="path36" />
    <path
       d="m 39.4886,57.6072 -1.972,1.1385 -1.335,-2.3121 1.972,-1.1385 0.0589,0.1019 1.9723,-1.1386 c 8.5355,-3.6223 4.3155,-0.1946 1.1386,1.9721 l -1.9723,1.1387 z"
       fill="#c8a56e"
       stroke="#4a381c"
       stroke-width="1.00202"
       stroke-miterlimit="3.99393"
       id="path38" />
    <path
       d="m 34.7791,57.7372 1.3065,-0.7543 0.8649,1.498 -1.3065,0.7543 c -0.0272,0.2578 -0.2236,0.7102 -0.7919,0.4572 -0.5684,-0.2529 -0.8134,-1.1041 -0.8649,-1.4981 0.0335,-0.1857 0.2388,-0.5373 0.7919,-0.4571 z"
       fill="#56524e"
       stroke="#363330"
       stroke-width="1.00202"
       stroke-miterlimit="3.99393"
       id="path40" />
    <path
       fill-rule="evenodd"
       clip-rule="evenodd"
       d="m 92.6868,20.1834 -2.3802,1.3742 1.1387,1.9721 2.3801,-1.3741 z m -0.706,1.133 -0.884,0.5104 0.5104,0.8841 0.884,-0.5104 z"
       fill="#585450"
       stroke="#363330"
       stroke-width="0.5"
       stroke-miterlimit="3.99393"
       id="path42" />
    <path
       d="m 54.582,47.3154 3.3323,-1.9238 0.66,1.1433 -3.3322,1.9238 z"
       fill="#b98c46"
       stroke="#4a381c"
       stroke-width="0.501008"
       stroke-miterlimit="3.99393"
       id="path44" />
    <path
       d="m 39.5146,52.4696 1.9042,-1.0993 c 0.272,-0.1571 0.8415,0.1488 1.0923,0.3214 l 0.8522,2.1828 c -0.8488,0.4145 -2.5599,1.2513 -2.6143,1.2827 -0.0544,0.0314 -0.1788,-0.0479 -0.2342,-0.0915 l -1.1779,-2.0401 c -0.1256,-0.2176 0.0662,-0.4614 0.1777,-0.556 z"
       fill="#bb8f4a"
       stroke="#4a381c"
       stroke-width="1.00202"
       stroke-miterlimit="3.99393"
       id="path46" />
    <path
       d="M 55.2085,48.3962 43.8518,54.953 42.3205,52.3008 c -0.1884,-0.3264 0.114,-0.6401 0.2888,-0.7561 3.1897,-1.8567 9.6886,-5.63 10.1667,-5.8698 0.4782,-0.2397 0.9179,0.1502 1.078,0.3751 z"
       fill="#585450"
       stroke="#363330"
       stroke-width="1.00202"
       stroke-miterlimit="3.99393"
       id="path48" />
    <path
       d="m 47.7386,50.5336 -0.8245,-1.4281 1.7681,-1.0209 c 0.2307,0.426 0.7423,1.2859 0.8245,1.4281 0.0821,0.1423 0.0565,0.3301 -0.081,0.4095 l -1.2921,0.746 c -0.1904,0.1099 -0.3427,-0.044 -0.395,-0.1346 z"
       fill="#5d5955"
       stroke="#353331"
       stroke-width="0.501008"
       stroke-miterlimit="3.99393"
       id="path50" />
    <path
       d="m 47.918,51.79 0.2552,0.4421 2.4481,-1.4135 -0.2552,-0.442 z"
       fill="#5d5955"
       stroke="#353331"
       stroke-width="0.501008"
       stroke-miterlimit="3.99393"
       id="path52" />
    <path
       d="m 15.3208,70.2455 1.7681,-1.0208 0.746,1.2921 -4.7011,4.0289 -3.33218,1.9239 z"
       fill="#c8a56e"
       stroke="#4a381c"
       stroke-width="1.00202"
       stroke-miterlimit="3.99393"
       id="path54" />
    <path
       d="m 9.46329,75.6506 c -0.3454,0.1995 -0.46374,0.6411 -0.26432,0.9865 0.19941,0.3454 0.64108,0.4638 0.98643,0.2643 l 3.0645,-1.7692 c 0.3454,-0.1994 0.4638,-0.6411 0.2644,-0.9865 -0.1995,-0.3454 -0.6411,-0.4638 -0.9865,-0.2643 z"
       fill="#896734"
       stroke="#4a381c"
       stroke-width="0.501008"
       stroke-miterlimit="3.99393"
       stroke-linecap="round"
       id="path56" />
    <path
       d="M 18.961,62.5695 1.75586,72.5029 4.22939,76.7872 21.4345,66.8538 Z"
       fill="#c8a56e"
       stroke="#4a381c"
       stroke-width="1.00202"
       stroke-miterlimit="3.99393"
       id="path58" />
    <path
       d="m 25.5047,66.3624 -2.8494,-5.5634 1.2921,-0.746 c 0.5146,-0.8048 1.7287,-1.4816 2.2715,-1.7194 l -0.4831,-1.3079 45.7671,-26.4236 1.8701,-1.0797 16.083,-9.2856 0.4186,-0.0603 -0.34,0.1963 0.4711,0.8161 -16.0865,9.2875 c -0.0675,-0.0337 -0.1303,-0.0609 -0.1771,-0.0791 l -1.3941,0.8049 -0.4062,1.7306 -13.8049,7.9703 3.7888,6.5624 -2.4822,1.4331 0.0785,0.136 c -1.339,1.1358 -1.8392,2.1802 -1.9219,2.5604 l 1.6686,2.8902 0.3218,0.0863 0.5301,0.918 -9.3643,7.8093 -0.2643,0.1526 c -1.1707,0.9893 -3.0815,2.5045 -3.2978,2.6294 -0.1123,0.0648 -0.7736,0.3444 -1.5677,0.6802 -0.8502,0.3594 -1.8525,0.7832 -2.4958,1.0765 l -2.2658,-2.9535 -1.0756,0.621 -0.4123,-0.714 -2.2781,1.3153 -4.8358,0.0264 c -0.0954,0.0702 -0.4195,0.2784 -0.952,0.5496 -0.5326,0.2712 -1.6267,0.3498 -2.1071,0.3552 z"
       stroke="#4a381c"
       stroke-width="1.00202"
       stroke-miterlimit="3.99393"
       id="path60" />
    <path
       fill-rule="evenodd"
       clip-rule="evenodd"
       d="M 49.7756,62.7623 C 49.5244,62.3041 49.198,61.7514 48.8381,61.2329 48.1912,60.3007 47.3388,60.2851 46.9936,60.3937 l -4.5954,2.6532 c -0.4084,0.3984 -0.3001,0.882 -0.1751,1.0985 0.226,0.4437 0.7662,1.4527 1.119,1.9381 0.3528,0.4854 0.9955,0.4679 1.2728,0.3985 0.5493,-0.2264 1.7635,-0.7461 2.2259,-1.0131 0.5781,-0.3337 2.3539,-1.8124 2.601,-2.0911 0.1629,-0.1837 0.2772,-0.448 0.3338,-0.6155 z M 26.7139,60.1334 c 0.051,-0.7911 -0.5239,-1.0123 -0.8178,-1.0239 -0.6591,0.3503 -1.9604,1.159 -1.8922,1.5911 0.0681,0.4322 0.4558,0.6587 0.6411,0.7179 0.6073,-0.3354 1.8451,-1.0289 1.9382,-1.1189 0.0931,-0.0901 0.1259,-0.1483 0.1307,-0.1662 z"
       stroke="#453721"
       stroke-width="0.501008"
       stroke-miterlimit="3.99393"
       id="path62" />
    <path
       d="m 33.1198,67.2252 -1.2052,-1.6164 c 2.221,-1.6812 4.3552,-0.4138 5.1446,0.43 0.8661,-0.5152 2.6908,-1.5898 3.0602,-1.7668 0.3693,-0.1769 0.9631,0.124 1.2139,0.2966 l 1.865,3.2302 c -0.2607,0.1505 -0.8077,0.6113 -0.91,1.2507 -0.1024,0.6394 1.52,5.5904 2.3439,7.9861 l 0.8581,0.2299 c 0.2042,0.3536 -0.1161,0.8982 -0.3017,1.1263 -1.3601,0.7853 -6.274,1.8542 -6.7515,1.8125 -0.3819,-0.0334 -0.4783,-0.2528 -0.4788,-0.3583 L 37.6911,78.9122 C 36.1579,74.9373 36.226,70.3281 36.4517,68.5204 35.5075,67.3246 33.837,67.1586 33.1198,67.2252 Z"
       fill="#a1865b"
       stroke="#413625"
       stroke-width="1.00202"
       stroke-miterlimit="3.99393"
       stroke-linecap="round"
       id="path64" />
    <path
       d="m 30.0357,66.285 c 0.4883,-0.2818 0.6556,-0.9062 0.3737,-1.3944 -0.2819,-0.4883 -0.9062,-0.6556 -1.3945,-0.3737 -0.4882,0.2819 -0.6555,0.9063 -0.3736,1.3945 0.2819,0.4883 0.9062,0.6555 1.3944,0.3736 z"
       fill="#433f3d"
       stroke="#353231"
       stroke-width="0.501008"
       stroke-miterlimit="3.99393"
       id="path66" />
    <path
       d="m 35.5475,63.7362 c 0.4882,-0.2819 0.6555,-0.9062 0.3736,-1.3944 -0.2819,-0.4883 -0.9062,-0.6556 -1.3945,-0.3737 -0.4882,0.2819 -0.6555,0.9062 -0.3736,1.3945 0.2819,0.4882 0.9062,0.6555 1.3945,0.3736 z"
       fill="#433f3d"
       stroke="#353231"
       stroke-width="0.501008"
       stroke-miterlimit="3.99393"
       id="path68" />
    <path
       d="m 39.2241,63.7439 c 0.3806,-0.2197 0.5661,-0.6475 0.496,-1.0567 l 0.3537,-0.6126 h -0.7074 c -0.3193,-0.2653 -0.7826,-0.3185 -1.1631,-0.0988 -0.3934,0.2271 -0.5784,0.6765 -0.4881,1.0979 l -0.8975,0.5181 c -0.0992,0.2795 -0.1847,0.5205 0.3534,0.6121 l 0.9226,-0.5327 c 0.3177,0.2425 0.7626,0.285 1.1304,0.0727 z"
       fill="#433f3d"
       stroke="#353231"
       stroke-width="0.501008"
       stroke-miterlimit="3.99393"
       id="path70" />
    <path
       fill-rule="evenodd"
       clip-rule="evenodd"
       d="m 59.5015,48.9998 c 0.1583,0.1957 0.5498,0.5439 0.849,0.3712 l 4.8963,-2.8269 c 0.0596,-0.4727 0.3563,-1.5658 1.0667,-2.1573 l 28.0518,-16.1957 -0.427,-1.839 -4.0647,-6.1765 -17.9872,10.3849 0.3927,0.6801 -0.4403,1.7503 -14.893,8.5984 c -0.3593,-0.125 -1.1139,-0.1547 -1.2581,0.7264 l 1.9043,3.2982 0.633,-0.0028 0.5497,0.9521 -0.1815,0.7848 z"
       fill="#cbaa76"
       stroke="#4a381c"
       stroke-width="1.00202"
       stroke-miterlimit="3.99393"
       id="path72" />
    <path
       d="m 22.0382,71.0833 -0.7762,-3.5868 -16.79716,9.6978 4.21646,6.4062 2.5452,1.5683 1.4241,-0.8222 0.0635,-5.7946 z"
       stroke="#4a381c"
       stroke-width="1.00202"
       stroke-miterlimit="3.99393"
       id="path74" />
  </g>
  <path
     style="fill:#585450;fill-opacity:1;stroke:#585450;stroke-width:0.35;stroke-dasharray:none;stroke-opacity:1"
     d="m 99.77948,-55.734758 c -0.19846,-0.389014 -0.36084,-0.962222 -0.36084,-1.273794 0,-0.69769 -0.63526,-1.769578 -1.04875,-1.769578 -0.19285,0 -0.61261,-0.525989 -1.14025,-1.428827 -0.7863,-1.345419 -0.81187,-1.428826 -0.43791,-1.428826 0.21842,0 3.85249,-1.994644 8.07569,-4.432543 l 7.67857,-4.432544 0.30202,-1.116986 c 0.16612,-0.614343 0.26404,-1.215983 0.21761,-1.336978 -0.053,-0.137977 3.02232,-2.014203 8.24898,-5.032717 4.58337,-2.646999 8.43162,-4.836378 8.55167,-4.865286 0.30088,-0.07245 3.84971,5.357557 4.0332,6.171139 0.0817,0.362075 0.13283,0.66628 0.1137,0.676009 -1.86075,0.946406 -27.72687,16.025719 -28.11542,16.390597 -0.31665,0.297358 -0.68272,0.86163 -0.81349,1.25394 -0.21766,0.652984 -0.42569,0.823461 -2.46053,2.016405 -1.22252,0.716713 -2.28142,1.306304 -2.35309,1.310201 -0.0717,0.0039 -0.2927,-0.311198 -0.49116,-0.700212 z"
     id="path15" />
  <path
     style="fill:#272624;fill-opacity:1;stroke:#272624;stroke-width:0.205394;stroke-dasharray:none;stroke-opacity:1"
     d="m 90.02041,-40.663485 c 0.0812,-0.261294 -0.0994,-0.702848 -0.61151,-1.495181 l -0.72672,-1.124383 0.30387,-0.845054 0.30388,-0.845054 -0.92366,-1.569346 c -0.50802,-0.86314 -0.90141,-1.590802 -0.87421,-1.617028 0.2043,-0.196964 10.59084,-6.119963 10.64208,-6.068723 0.0362,0.03617 -0.14224,0.420717 -0.39648,0.854545 -0.25424,0.433827 -0.46226,0.934561 -0.46226,1.112741 0,0.442407 1.55878,3.144745 2.03022,3.519631 0.2463,0.195861 0.31781,0.359953 0.20232,0.464312 -0.0982,0.08877 -2.1477,1.793464 -4.55438,3.788211 -2.40668,1.994747 -4.52711,3.754908 -4.71208,3.91147 -0.31453,0.266237 -0.32883,0.260663 -0.22107,-0.08614 z"
     id="path27" />
  <path
     style="fill:#272624;fill-opacity:1;stroke:#272624;stroke-width:0.205394;stroke-dasharray:none;stroke-opacity:1"
     d="m 67.053299,-37.487484 c -1.087564,-0.19758 -1.401254,-0.324598 -1.489676,-0.603192 -0.134735,-0.424513 0.132011,-0.653737 1.646298,-1.414719 1.181479,-0.593734 1.753959,-0.660702 3.687615,-0.431374 1.089324,0.129192 1.291905,0.10179 1.939893,-0.2624 l 0.723547,-0.406656 0.397803,0.498892 c 0.75631,0.948503 2.241431,0.475738 2.241431,-0.713524 0,-0.30894 -0.09979,-0.661502 -0.221761,-0.783471 -0.263469,-0.263469 -0.418196,-0.148929 2.365001,-1.750741 1.12967,-0.650156 2.08709,-1.211394 2.1276,-1.247195 0.0405,-0.0358 -0.0144,-0.258273 -0.12193,-0.494381 -0.3304,-0.725138 -0.0769,-1.088196 1.31157,-1.878152 1.73522,-0.987269 2.11732,-0.94801 2.8381,0.291604 0.43798,0.753239 0.61099,0.912155 0.89949,0.826179 0.19647,-0.05855 0.30347,-0.04943 0.23779,0.02027 -0.0657,0.0697 0.15534,0.595526 0.49116,1.168511 0.33582,0.572984 0.61058,1.07749 0.61058,1.121124 0,0.04363 -1.00255,0.656506 -2.22789,1.361938 -2.40684,1.385628 -2.82867,1.784553 -2.64924,2.50538 0.0997,0.40068 0.0789,0.429302 -0.16613,0.227568 -0.15412,-0.126916 -0.5379,-0.304659 -0.85285,-0.394983 -0.59774,-0.171431 -1.43278,0.15071 -3.070391,1.184485 l -0.666443,0.420706 -0.648895,-0.440352 c -0.78771,-0.534555 -1.568865,-0.697042 -2.843037,-0.591378 -1.195926,0.09918 -2.490767,0.867358 -2.327753,1.380971 0.07924,0.249662 -0.02622,0.374564 -0.437226,0.517842 -0.505506,0.176221 -0.76187,0.0074 -0.363051,-0.239105 0.307352,-0.189954 0.195056,-1.144468 -0.178603,-1.518128 -0.758881,-0.75888 -2.14324,-0.205137 -2.14324,0.857296 0,0.275049 0.09511,0.595196 0.211347,0.711437 0.332431,0.332431 0.150232,0.34285 -1.321109,0.07555 z m 11.460261,-2.085224 c 0.83034,-0.05836 1.43732,-0.542541 1.43732,-1.146533 0,-0.163724 0.11795,-0.466073 0.26211,-0.671888 0.25117,-0.358607 0.2307,-0.379574 -0.49116,-0.502893 -0.4143,-0.07078 -0.9388,-0.129406 -1.16555,-0.130286 -0.51109,-0.002 -1.105846,0.514021 -1.105846,0.959417 0,0.183345 -0.194117,0.4218 -0.431371,0.5299 -0.849563,0.387086 -0.632577,1.359302 0.252767,1.132539 0.24558,-0.0629 0.80436,-0.139516 1.24173,-0.170256 z"
     id="path29" />
  <path
     style="fill:#272624;fill-opacity:1;stroke:#272624;stroke-width:0.0726177;stroke-dasharray:none;stroke-opacity:1"
     d="m 49.874552,-19.644694 -1.08271,-0.664893 -1.936393,-2.942919 c -1.065016,-1.618605 -1.913331,-2.964985 -1.885143,-2.991955 0.125351,-0.119935 6.222113,-3.602847 6.252869,-3.572091 0.01893,0.01893 -0.10419,0.191972 -0.273608,0.38453 -0.226651,0.257609 -0.541595,0.490315 -1.192074,0.8808 -0.982577,0.589844 -1.129339,0.750551 -1.129339,1.236649 0,0.543546 0.341374,0.895196 0.905459,0.932715 l 0.350171,0.02329 1.704937,-0.98349 c 0.937715,-0.540919 1.768051,-1.060925 1.84519,-1.155569 0.07714,-0.09464 0.157424,-0.250257 0.17841,-0.345807 0.02831,-0.128904 0.486247,-0.558326 1.774886,-1.664375 0.955201,-0.819856 1.751037,-1.476341 1.768523,-1.458854 0.01749,0.01749 0.254249,0.416344 0.52614,0.886351 l 0.494346,0.854557 -3.078473,2.471392 -3.078474,2.471391 -0.04151,1.841547 c -0.02283,1.01285 -0.04156,2.316238 -0.04162,2.896418 l -1.16e-4,1.054872 -0.429907,0.255403 c -0.236449,0.140472 -0.45667,0.255296 -0.48938,0.255166 -0.03271,-1.31e-4 -0.546693,-0.29944 -1.142184,-0.66513 z m 0.761085,-2.299017 c 0.15782,-0.15782 0.194969,-0.246643 0.193431,-0.46249 -0.0016,-0.230048 -0.163573,-0.546649 -1.165865,-2.279395 -0.684696,-1.183691 -1.227879,-2.054119 -1.319192,-2.113949 -0.376573,-0.246741 -0.916821,-0.04669 -1.06445,0.394154 -0.104839,0.313067 -0.103042,0.316935 1.201054,2.584294 0.784728,1.364363 1.140174,1.924419 1.276878,2.011903 0.269607,0.172536 0.625627,0.117999 0.878144,-0.134517 z"
     id="path31" />
  <path
     style="fill:#272624;fill-opacity:1;stroke:#272624;stroke-width:0.0726177;stroke-dasharray:none;stroke-opacity:1"
     d="m 59.699023,-33.138565 c -0.362503,-0.629203 -0.667199,-1.163373 -0.677102,-1.187043 -0.02131,-0.05094 1.683599,-1.037302 1.723678,-0.997223 0.0151,0.0151 0.129383,0.494702 0.253968,1.065787 0.124585,0.571086 0.250053,1.144253 0.278817,1.273704 0.05195,0.233803 0.04951,0.237606 -0.366903,0.572187 -0.23056,0.185251 -0.449387,0.354769 -0.486281,0.376707 -0.03927,0.02335 -0.340283,-0.434315 -0.726177,-1.104119 z"
     id="path33" />
  <path
     style="fill:#585450;fill-opacity:1;stroke:#585450;stroke-width:0.205394;stroke-dasharray:none;stroke-opacity:1"
     d="m 69.971759,-41.185299 c -0.429578,-0.133983 -1.018093,-0.470186 -1.307813,-0.747118 -0.575448,-0.550046 -2.133712,-3.008326 -1.994912,-3.147126 0.04737,-0.04737 -0.0337,-0.372918 -0.180161,-0.723442 -0.265365,-0.635106 -0.264318,-0.638512 0.302093,-0.982629 0.312609,-0.189921 8.685901,-5.025937 18.607314,-10.746698 9.92142,-5.720762 19.82709,-11.438165 22.01261,-12.70534 2.18553,-1.267175 4.10338,-2.353727 4.26191,-2.41456 0.24404,-0.09365 0.26879,-0.0175 0.1614,0.496669 -0.0698,0.334002 -0.25963,0.735908 -0.42194,0.893126 -0.1623,0.157217 -2.78662,1.714765 -5.8318,3.461217 -3.04519,1.746452 -6.17968,3.556689 -6.96553,4.022751 -0.78586,0.466061 -1.72791,0.900916 -2.09346,0.966345 -0.37708,0.06749 -0.78946,0.289735 -0.95318,0.513688 -0.28275,0.386804 -0.28609,0.382806 -0.1666,-0.199131 l 0.12195,-0.593859 -0.87728,0.504557 c -0.4825,0.277506 -6.03016,3.478303 -12.32813,7.11288 l -11.450863,6.608323 -0.292711,1.58037 c -0.16099,0.869201 -0.25047,1.622607 -0.198844,1.674234 0.05163,0.05163 1.978789,-0.992277 4.282583,-2.319787 3.023045,-1.741959 4.242895,-2.359475 4.383395,-2.218975 0.35797,0.357968 0.20044,0.674876 -0.47509,0.955785 -1.216821,0.506001 -3.080903,1.679238 -3.080903,1.939095 0,0.267742 -0.870996,0.800423 -1.308786,0.800423 -0.708911,0 -0.91527,1.202456 -0.365948,2.132382 0.359165,0.608018 1.239333,1.052094 1.586285,0.800338 0.124586,-0.0904 0.520647,-0.397757 0.880136,-0.683009 0.488363,-0.387514 0.704975,-0.467284 0.856749,-0.31551 0.151775,0.151775 0.483689,0.04624 1.312797,-0.417425 0.84839,-0.474449 1.13182,-0.562811 1.20377,-0.375294 0.0648,0.168889 -0.89531,0.811201 -3.083231,2.062645 -4.097246,2.343544 -4.898581,2.594432 -6.59581,2.065075 z"
     id="path35" />
  <path
     style="fill:#585450;fill-opacity:1;stroke:#585450;stroke-width:0.102697;stroke-dasharray:none;stroke-opacity:1"
     d="m 77.246342,-46.371476 c -0.210482,-0.368668 -0.36116,-0.705149 -0.33484,-0.747736 0.07687,-0.124376 0.876789,-0.570629 1.022867,-0.570629 0.07339,0 0.537031,-0.23473 1.030321,-0.521621 0.82454,-0.479544 0.90556,-0.508959 1.00441,-0.364649 0.35621,0.520039 0.68514,0.592695 1.28887,0.284696 0.19926,-0.101658 0.37843,-0.168701 0.39815,-0.148984 0.0611,0.06114 -0.67343,0.544307 -1.86331,1.22561 -0.85174,0.487692 -1.12914,0.68915 -1.09594,0.795928 0.0318,0.102315 -0.10553,0.225484 -0.48305,0.433194 -0.290119,0.159626 -0.540383,0.28894 -0.556138,0.287363 -0.01576,-0.0016 -0.200858,-0.304504 -0.41134,-0.673172 z"
     id="path37" />
  <path
     style="fill:#585450;fill-opacity:1;stroke:#585450;stroke-width:0.0363088;stroke-dasharray:none;stroke-opacity:1"
     d="m 84.38154,-47.907446 c -0.0582,-0.113787 -0.0729,-0.121732 -0.33854,-0.182955 l -0.27767,-0.064 2.58707,-1.493765 c 1.42289,-0.821571 4.16797,-2.405356 6.10019,-3.519522 2.53591,-1.462267 3.50963,-2.038931 3.50055,-2.073117 -0.007,-0.02605 -0.0179,-0.06687 -0.0243,-0.09071 -0.008,-0.02855 0.38179,-0.272093 1.14067,-0.713185 0.63382,-0.368408 1.15626,-0.667097 1.16096,-0.663753 0.005,0.0033 -0.007,0.07986 -0.0266,0.170035 l -0.0352,0.163956 0.33088,0.606295 c 0.18198,0.333462 0.36609,0.677334 0.40914,0.764159 l 0.0783,0.157865 -0.17211,0.155363 c -0.1373,0.123947 -0.17801,0.146293 -0.20129,0.110505 -0.0161,-0.02467 -0.0795,-0.133657 -0.14093,-0.242189 -0.0615,-0.108531 -0.11997,-0.19733 -0.13003,-0.19733 -0.0101,0 -0.0928,0.04263 -0.18387,0.09474 -0.16141,0.09235 -0.16893,0.09356 -0.29828,0.04792 -0.073,-0.02575 -0.25136,-0.06397 -0.3964,-0.08495 -0.50508,-0.07303 0.0508,-0.366218 -6.75991,3.565631 -3.36695,1.943766 -6.15323,3.550735 -6.19173,3.571043 -0.0637,0.03358 -0.0755,0.02616 -0.13086,-0.08203 z"
     id="path39" />
  <path
     style="fill:#585450;fill-opacity:1;stroke:#585450;stroke-width:0.145235;stroke-dasharray:none;stroke-opacity:1"
     d="m 94.67436,-57.487794 c -0.25323,-0.493888 -0.65312,-0.917985 -1.07902,-1.144339 -0.21031,-0.111781 -0.16537,-0.165939 0.38741,-0.466798 l 0.62533,-0.340347 0.30283,-1.223813 c 0.18099,-0.731444 0.32143,-1.104822 0.34907,-0.928052 0.0254,0.162668 0.43943,0.971297 0.91999,1.796953 0.48055,0.825656 0.87373,1.528317 0.87373,1.56147 0,0.06548 -1.63242,1.037622 -1.94158,1.156258 -0.12933,0.04963 -0.2684,-0.08105 -0.43776,-0.411332 z"
     id="path41" />
  <path
     style="fill:#272624;fill-opacity:1;stroke:#272624;stroke-width:0.145235;stroke-dasharray:none;stroke-opacity:1"
     d="m 70.955752,-46.622249 c 0.03901,-0.129774 0.13401,-0.607848 0.211122,-1.06239 l 0.140202,-0.826435 11.641634,-6.720502 c 6.4029,-3.696275 11.65825,-6.670645 11.67856,-6.60971 0.0635,0.190483 -0.46856,1.957013 -0.63538,2.109598 -0.0872,0.0798 -2.77286,1.648718 -5.96804,3.486495 -4.92838,2.83467 -5.88602,3.341708 -6.31458,3.343364 -0.6844,0.0026 -2.68221,1.175183 -2.8571,1.676863 -0.096,0.275407 -0.850822,0.764404 -3.925834,2.543302 -2.093836,1.211285 -3.859743,2.223269 -3.924238,2.248852 -0.0645,0.02558 -0.08535,-0.05966 -0.04635,-0.189437 z"
     id="path43" />
  <path
     style="fill:#272624;fill-opacity:1;stroke:#272624;stroke-width:0.145235;stroke-dasharray:none;stroke-opacity:1"
     d="m 43.190328,-29.129724 c -0.486222,-0.847528 -0.900775,-1.60847 -0.921227,-1.690983 -0.02045,-0.08251 0.491029,-0.453876 1.136625,-0.825252 1.303639,-0.749914 7.421513,-4.282567 11.934694,-6.891468 1.61194,-0.931803 3.010866,-1.724911 3.108723,-1.762463 0.206461,-0.07923 2.183368,3.210851 2.016997,3.356796 -0.200407,0.175805 -16.007729,9.256839 -16.196965,9.304877 -0.137155,0.03482 -0.456427,-0.406576 -1.078847,-1.491507 z"
     id="path45" />
  <path
     style="fill:#272624;fill-opacity:1;stroke:#272624;stroke-width:0.145235;stroke-dasharray:none;stroke-opacity:1"
     d="m 64.15345,-40.79458 c -0.529547,-1.006283 -0.927238,-1.887167 -0.883758,-1.95752 0.13358,-0.216136 0.376726,-0.142397 0.507796,0.153999 0.06857,0.155053 0.2643,0.350859 0.434964,0.435126 0.273459,0.135023 0.413208,0.09781 1.177125,-0.313487 0.476756,-0.256684 1.004265,-0.591278 1.172243,-0.74354 l 0.305414,-0.276841 0.551838,0.845153 c 0.656541,1.005508 0.95372,1.291372 1.770872,1.703443 l 0.615,0.310131 -0.804437,0.05164 c -0.844694,0.05422 -2.00112,0.51295 -3.151889,1.250283 -0.318653,0.204171 -0.613791,0.37122 -0.655862,0.37122 -0.04207,0 -0.509759,-0.823322 -1.039306,-1.829605 z"
     id="path47" />
  <path
     style="fill:#272624;fill-opacity:1;stroke:#272624;stroke-width:0.145235;stroke-dasharray:none;stroke-opacity:1"
     d="m 80.32611,-49.959112 c -0.24643,-0.420484 -0.44807,-0.81339 -0.44807,-0.873124 0,-0.09251 1.69293,-1.140776 1.84233,-1.140776 0.0286,0 0.052,0.123275 0.052,0.273945 0,0.150669 0.17422,0.582648 0.38715,0.959952 0.21294,0.377304 0.36923,0.701943 0.34731,0.72142 -0.0754,0.06696 -1.61134,0.823099 -1.672,0.823099 -0.0334,0 -0.26233,-0.344032 -0.50877,-0.764516 z"
     id="path49" />
  <path
     style="fill:#272624;fill-opacity:1;stroke:#272624;stroke-width:0.0363088;stroke-dasharray:none;stroke-opacity:1"
     d="m 88.65087,-44.795294 c -0.0179,-0.02323 -0.29212,-0.493496 -0.60934,-1.045029 -0.61828,-1.074967 -0.69946,-1.180367 -0.96679,-1.255216 -0.193,-0.05403 -0.50328,-0.02481 -0.67782,0.06384 -0.0776,0.03943 -0.35737,0.197604 -0.62163,0.351497 -0.26426,0.153893 -0.49159,0.279347 -0.50517,0.278787 -0.0252,-10e-4 -0.52386,-0.860451 -0.53721,-0.925889 -0.008,-0.04028 12.19713,-7.093736 12.34444,-7.133832 0.0514,-0.01399 0.13813,-0.02109 0.19276,-0.01579 0.0871,0.0085 0.0142,0.05861 -0.59528,0.408911 -0.38203,0.219594 -1.51155,0.871169 -2.51005,1.447944 -0.99849,0.576775 -3.07283,1.773902 -4.60964,2.660284 -1.53681,0.886381 -2.79798,1.614372 -2.80259,1.617756 -0.005,0.0034 0.43943,0.78123 0.98678,1.728543 0.81356,1.408058 0.99051,1.734983 0.96964,1.791409 -0.0203,0.05496 -0.0322,0.06041 -0.0581,0.02678 z"
     id="path51" />
  <path
     style="fill:#272624;fill-opacity:1;stroke:#272624;stroke-width:0.0726177;stroke-dasharray:none;stroke-opacity:1"
     d="m 95.43903,-56.148425 c -0.1092,-0.190853 -0.1827,-0.362847 -0.16333,-0.382208 0.0194,-0.01936 0.48602,-0.294728 1.03703,-0.611926 0.98442,-0.566704 1.0081,-0.576343 1.36324,-0.554948 0.30147,0.01816 0.37835,0.0476 0.46342,0.177438 0.0874,0.133414 0.0893,0.167562 0.0133,0.238896 -0.0488,0.04578 -0.63463,0.397448 -1.30191,0.781492 l -1.21323,0.698261 z"
     id="path53" />
  <path
     style="fill:#272624;fill-opacity:1;stroke:#272624;stroke-width:0.102697;stroke-dasharray:none;stroke-opacity:1"
     d="m 78.002318,-25.167648 c -0.513644,-1.598418 -0.737248,-2.537627 -0.961278,-4.037678 -0.208244,-1.394358 -0.310459,-4.154622 -0.195571,-5.281357 l 0.08181,-0.802319 -0.383709,-0.410216 c -0.21104,-0.225619 -0.58261,-0.518472 -0.825712,-0.650784 -0.488474,-0.265861 -1.658735,-0.593872 -2.118786,-0.593872 -0.253722,0 -0.347926,-0.0696 -0.667994,-0.493527 -0.204938,-0.271439 -0.352528,-0.513614 -0.327976,-0.538165 0.02455,-0.02455 0.281345,-0.128234 0.570651,-0.230405 1.068178,-0.377236 2.382028,-0.06028 3.361616,0.81095 l 0.424457,0.377508 1.450874,-0.844687 c 2.03436,-1.184386 1.937,-1.141288 2.26588,-1.003003 0.22139,0.09309 0.42771,0.38117 1.04755,1.462717 0.42451,0.740739 0.77185,1.367631 0.77185,1.393092 0,0.02546 -0.139,0.228394 -0.30889,0.450963 -0.16989,0.222569 -0.33636,0.551056 -0.36992,0.72997 -0.11558,0.616081 0.24532,2.015282 1.59155,6.170356 l 0.81836,2.525813 0.38897,0.09794 c 0.78912,0.198705 0.30265,0.54752 -1.53961,1.103954 -1.28913,0.389366 -3.47062,0.907116 -4.16156,0.987694 l -0.50018,0.05833 z"
     id="path55" />
  <path
     style="fill:#272624;fill-opacity:1;stroke:#272624;stroke-width:0.0513485;stroke-dasharray:none;stroke-opacity:1"
     d="m 82.61737,-37.866573 c -0.4244,-0.739339 -0.76598,-1.349085 -0.75907,-1.354989 0.007,-0.0059 0.0528,-0.0222 0.10187,-0.03622 0.0768,-0.02191 0.14142,0.06956 0.4614,0.653053 0.46548,0.848804 0.78217,1.308682 1.01208,1.469683 0.0991,0.06939 0.32206,0.158687 0.50081,0.200569 l 0.3222,0.0755 -0.38918,0.168016 c -0.21405,0.09241 -0.40928,0.168158 -0.43383,0.168331 -0.0246,1.72e-4 -0.39189,-0.604601 -0.81628,-1.343941 z"
     id="path57" />
  <path
     style="fill:#272624;fill-opacity:1;stroke:#272624;stroke-width:0.0363088;stroke-dasharray:none;stroke-opacity:1"
     d="m 58.058875,-31.424522 c -0.276581,-0.48055 -0.502875,-0.89007 -0.502875,-0.910045 0,-0.02587 0.639435,-0.603923 0.734501,-0.663993 0.0046,-0.0029 -0.08481,-0.165499 -0.198638,-0.361347 -0.11383,-0.195849 -0.202822,-0.359409 -0.197762,-0.363468 0.05469,-0.04386 0.626569,-0.363586 0.65034,-0.363586 0.02416,0 1.188119,1.973851 1.391167,2.359146 0.03484,0.06612 -0.0024,0.10165 -0.654175,0.623565 -0.380118,0.3044 -0.697549,0.553454 -0.705403,0.553454 -0.0079,0 -0.240573,-0.393177 -0.517155,-0.873726 z"
     id="path59" />
  <path
     style="fill:#272624;fill-opacity:1;stroke:#272624;stroke-width:0.0363088;stroke-dasharray:none;stroke-opacity:1"
     d="m 49.328034,-26.928434 c -0.26203,-0.175048 -0.288326,-0.527162 -0.05503,-0.736837 0.04072,-0.0366 0.783686,-0.47555 1.651033,-0.975449 1.7296,-0.996862 1.735006,-0.999237 1.971864,-0.866115 0.135986,0.07643 0.255677,0.267611 0.255677,0.408393 0,0.12236 -0.11826,0.326702 -0.231074,0.399273 -0.13283,0.08545 -2.969681,1.720889 -3.106193,1.790717 -0.146805,0.07509 -0.356881,0.06646 -0.486279,-0.01998 z"
     id="path61" />
  <path
     style="fill:#272624;fill-opacity:1;stroke:#272624;stroke-width:0.0363088;stroke-dasharray:none;stroke-opacity:1"
     d="m 53.031041,-30.013849 c -0.07498,-0.02847 -0.132741,-0.06503 -0.128361,-0.08124 0.0044,-0.01621 0.297769,-0.356962 0.651976,-0.757225 l 0.644012,-0.727752 1.246836,-0.719674 c 0.685759,-0.395821 1.253116,-0.713393 1.260792,-0.705717 0.01229,0.01229 -3.362438,2.923004 -3.489253,3.009493 -0.03659,0.02495 -0.0856,0.02024 -0.186002,-0.01789 z"
     id="path63" />
  <path
     style="fill:#363430;fill-opacity:1;stroke:#363430;stroke-width:0.607;stroke-dasharray:none;stroke-opacity:1"
     d="m 77.8396,-23.058846 c -0.202095,-0.109791 -0.307327,-0.349504 -0.73348,-1.67083 -0.990886,-3.072335 -1.24787,-4.703382 -1.256782,-7.976694 l -0.0063,-2.326167 -0.254038,-0.210402 c -0.443756,-0.367532 -1.281231,-0.647363 -2.08806,-0.6977 l -0.742269,-0.04631 -0.318449,-0.433813 c -0.175146,-0.238598 -0.330607,-0.433815 -0.345467,-0.433815 -0.01486,0 -0.29226,0.124122 -0.616444,0.275826 -0.436183,0.204114 -0.81607,0.300761 -1.461179,0.371739 -0.818443,0.09005 -0.96459,0.0789 -2.389881,-0.182355 -0.83497,-0.153048 -1.723958,-0.304733 -1.975527,-0.337077 -0.251569,-0.03234 -0.497205,-0.08445 -0.545858,-0.115795 -0.146872,-0.09462 -3.252336,-6.168932 -3.19843,-6.256154 0.02751,-0.04451 0.349997,-0.245563 0.716646,-0.446791 0.389405,-0.213719 0.902382,-0.602782 1.233524,-0.935559 0.311791,-0.313329 0.795236,-0.698558 1.074323,-0.856065 0.533362,-0.301011 0.565647,-0.350895 0.412407,-0.637227 -0.05226,-0.09765 -0.14782,-0.352983 -0.212349,-0.567396 l -0.117325,-0.389842 3.449534,-1.988457 c 1.897244,-1.09365 4.9565,-2.859686 6.798347,-3.924523 1.841847,-1.064836 10.120107,-5.845239 18.396137,-10.623116 8.27604,-4.777878 18.94535,-10.937444 23.7096,-13.687926 4.76424,-2.750481 9.46413,-5.463321 10.4442,-6.028534 0.98007,-0.565212 1.90434,-1.05713 2.05394,-1.093151 0.1496,-0.03602 0.33227,-0.08885 0.40595,-0.11739 0.0979,-0.03793 0.46054,0.446105 1.34715,1.798066 0.66726,1.017481 1.64908,2.511614 2.18181,3.320296 l 0.96861,1.47033 0.25817,1.15012 c 0.14199,0.632565 0.24519,1.161194 0.22933,1.17473 -0.0159,0.01354 -6.41837,3.711049 -14.2278,8.216695 -7.80943,4.505647 -14.28533,8.271459 -14.39088,8.368474 -0.2371,0.217912 -0.64381,1.10729 -0.72786,1.591655 l -0.0625,0.36038 -2.6344,1.520905 c -2.40335,1.387514 -2.66573,1.517909 -2.99161,1.486756 -0.19646,-0.01878 -0.42251,-0.06345 -0.50234,-0.09927 -0.10819,-0.04854 -0.26864,0.08368 -0.6303,0.519398 -0.26685,0.321483 -0.57083,0.736911 -0.67551,0.923171 l -0.19034,0.338656 0.76232,1.314648 c 0.41927,0.723057 0.81819,1.314648 0.88649,1.314648 0.12047,0 0.28341,0.227175 0.77372,1.078789 l 0.23549,0.409027 -0.62774,0.528641 c -0.34526,0.290752 -0.73477,0.620558 -0.86557,0.732902 -0.13081,0.112344 -0.73561,0.614666 -1.34401,1.116271 -0.60839,0.501604 -1.60723,1.333959 -2.21963,1.849676 -0.61241,0.515717 -1.48533,1.239061 -1.93982,1.60743 -0.4545,0.36837 -1.26402,1.039071 -1.79895,1.490448 -0.53491,0.451377 -1.33425,1.102266 -1.77629,1.446419 -0.44204,0.344154 -1.25766,0.98266 -1.81248,1.418902 -0.90698,0.713148 -1.15474,0.855001 -2.45579,1.406059 -2.45915,1.041568 -2.88941,1.266239 -3.11073,1.624341 -0.18485,0.299106 -0.19042,0.354162 -0.0874,0.864745 0.15328,0.759953 0.8056,2.96752 1.53653,5.199864 l 0.61759,1.886213 0.40563,0.113568 c 0.42877,0.120048 0.66572,0.412758 0.66399,0.820234 -0.001,0.32173 -0.40769,1.114051 -0.65412,1.275517 -0.37717,0.247132 -1.90456,0.755885 -3.49753,1.164983 -2.59504,0.666439 -3.58934,0.796179 -4.075921,0.531835 z m 1.79872,-0.946973 c 0.27014,-0.05167 1.05376,-0.23203 1.74139,-0.400798 3.02705,-0.74295 4.29221,-1.370356 3.33913,-1.655906 -0.42417,-0.127084 -0.46826,-0.17871 -0.63676,-0.745613 -0.073,-0.245579 -0.46266,-1.471245 -0.86592,-2.7237 -0.95801,-2.975379 -1.3705,-4.565679 -1.32222,-5.097622 0.0244,-0.269051 0.13392,-0.549942 0.31959,-0.819806 0.15535,-0.225785 0.28223,-0.48365 0.28197,-0.573033 -4.4e-4,-0.151085 -0.85512,-1.709199 -1.34645,-2.454639 -0.25776,-0.391065 -0.5414,-0.542553 -0.86841,-0.463802 -0.13225,0.03185 -0.93433,0.458058 -1.7824,0.947129 l -1.541947,0.88922 -0.353074,-0.318981 c -0.421405,-0.380713 -1.293736,-0.836552 -1.762548,-0.921021 -0.604263,-0.108876 -1.310001,-0.06722 -1.788344,0.105544 -0.520483,0.187988 -0.559423,0.287019 -0.275539,0.700726 0.323236,0.471054 0.614147,0.683548 0.935798,0.683548 0.163679,0 0.67759,0.121722 1.142023,0.270494 0.636173,0.203784 0.966565,0.369988 1.339678,0.673923 0.272389,0.221886 0.529821,0.471883 0.57207,0.555547 0.04323,0.0856 0.04055,0.542611 -0.0061,1.045134 -0.173704,1.870274 0.153224,5.429115 0.687403,7.482854 0.217433,0.835962 0.82596,2.798945 0.91336,2.946344 0.0434,0.07321 0.44415,0.03382 1.27733,-0.125542 z m 4.25782,-12.68809 c 0.16311,-0.05898 0.29657,-0.132993 0.29657,-0.164468 0,-0.03147 -0.15237,-0.102876 -0.33859,-0.15867 -0.44019,-0.131886 -0.69497,-0.412323 -1.31275,-1.444955 -0.38147,-0.637641 -0.51943,-0.961336 -0.55541,-1.303177 -0.0452,-0.429261 -0.0302,-0.472547 0.26783,-0.770526 0.35559,-0.355589 1.01205,-0.788565 2.99402,-1.974727 1.99381,-1.193255 1.95435,-1.17512 2.33585,-1.073292 0.28802,0.07688 0.34224,0.06372 0.47779,-0.115987 0.34592,-0.458593 0.30472,-0.671147 -0.3524,-1.818296 -0.33772,-0.58956 -0.68208,-1.093669 -0.76524,-1.120244 -0.1527,-0.0488 -0.72112,0.200664 -1.15746,0.507967 -0.47247,0.332754 -0.64957,0.243046 -1.21299,-0.614447 -0.28239,-0.429765 -0.536,-0.81128 -0.56359,-0.847813 -0.0276,-0.03653 -0.24205,-0.10227 -0.47657,-0.146084 -0.3954,-0.07387 -0.47943,-0.05376 -1.15599,0.276723 -1.37303,0.670676 -2.15961,1.297358 -2.23364,1.779569 -0.0177,0.115585 0.0269,0.38412 0.0992,0.596745 0.074,0.217463 0.0975,0.418358 0.0537,0.4592 -0.0428,0.03993 -0.96187,0.582536 -2.04242,1.205781 -1.080547,0.623244 -2.085191,1.221847 -2.232539,1.330228 -0.260985,0.191968 -0.279438,0.1933 -0.714413,0.05156 l -0.446418,-0.145497 0.379393,-0.194525 c 0.648528,-0.332516 2.068204,-1.159224 3.339647,-1.944748 l 1.2186,-0.752874 -0.0915,-0.298244 -0.0915,-0.298245 -1.01104,0.524568 c -0.936399,0.485837 -1.347429,0.613713 -1.495786,0.465355 -0.03257,-0.03257 0.06038,-0.131943 0.20655,-0.220834 l 0.265704,-0.161621 -0.635296,-1.096365 c -0.349414,-0.603001 -0.665784,-1.130245 -0.703047,-1.171655 -0.03726,-0.04141 -0.168789,-0.0091 -0.292282,0.07183 -0.329786,0.216085 -0.380564,0.01692 -0.06367,-0.249728 0.381633,-0.321123 1.673074,-1.088909 2.433377,-1.44669 1.12176,-0.527869 1.24577,-0.729822 0.78401,-1.27678 l -0.17586,-0.208308 -0.69412,0.37905 c -0.381768,0.208477 -1.919789,1.069352 -3.417824,1.913055 -1.498036,0.843703 -3.075326,1.724535 -3.50509,1.957404 l -0.78139,0.4234 v -0.305999 c 0,-0.32686 0.410569,-2.649249 0.480764,-2.719443 0.06772,-0.06772 24.29452,-14.036816 24.31174,-14.01807 0.0373,0.04056 -0.23584,1.29959 -0.35367,1.630495 -0.0711,0.199755 -0.19802,0.671937 -0.28197,1.049295 -0.084,0.377356 -0.18112,0.686103 -0.21591,0.686103 -0.0348,0 -0.30202,0.145901 -0.59382,0.324223 -0.29181,0.178322 -0.69886,0.376579 -0.90456,0.440571 -0.67551,0.21015 -10.50227,5.911455 -10.88289,6.314054 -0.15003,0.158697 -0.43133,0.361878 -0.62511,0.451516 -0.4856,0.224622 -1.64464,0.980996 -1.64605,1.074188 -0.002,0.127827 0.61121,1.247508 0.82502,1.506593 l 0.2008,0.243311 0.87366,-0.437766 0.87365,-0.437766 0.20293,0.328408 c 0.62584,1.0128 0.68085,1.141805 0.54492,1.277735 -0.11359,0.113587 -0.0624,0.144796 0.40861,0.249297 0.29615,0.0657 0.57219,0.179747 0.61343,0.253437 0.0605,0.108123 1.21883,-0.525969 6.00135,-3.285298 3.2595,-1.880604 6.12825,-3.511131 6.37501,-3.623393 0.39027,-0.177557 0.50312,-0.19235 0.86736,-0.113702 0.28478,0.06149 0.47354,0.06107 0.59011,-0.0013 0.14149,-0.07572 0.18885,-0.05341 0.27146,0.127886 0.1208,0.265124 0.20518,0.27445 0.41232,0.04557 0.1518,-0.167738 0.14239,-0.201774 -0.25959,-0.939222 -0.27919,-0.51218 -0.39852,-0.823715 -0.3609,-0.942224 0.0309,-0.09738 0.0367,-0.177049 0.0129,-0.177049 -0.0238,0 -0.57278,0.307702 -1.21998,0.683781 -0.94045,0.546492 -1.19269,0.658554 -1.25626,0.558136 -0.14705,-0.232279 -0.0822,-0.302725 0.65024,-0.706107 0.40131,-0.221021 0.9802,-0.5626 1.28643,-0.759064 0.54301,-0.348378 0.55303,-0.361805 0.40525,-0.543251 -0.32676,-0.4012 -0.90785,-0.221983 -2.50962,0.774013 -0.39261,0.244126 -0.39966,0.245065 -0.52259,0.06955 -0.0685,-0.09785 -0.11047,-0.190226 -0.0932,-0.205275 0.0173,-0.01505 0.31273,-0.186859 0.65654,-0.3818 1.25242,-0.710119 1.47732,-0.869135 1.42576,-1.00807 -0.0273,-0.0737 -0.41171,-0.784708 -0.85415,-1.580022 -0.44243,-0.795314 -0.82629,-1.580761 -0.85301,-1.745439 -0.0429,-0.26417 -0.006,-0.337653 0.31101,-0.624295 0.31935,-0.288508 0.82518,-0.513443 1.15785,-0.514873 0.17196,-7.39e-4 0.98652,-0.456636 6.6565,-3.725536 7.48004,-4.31245 8.01874,-4.643562 8.20651,-5.044168 0.24933,-0.531909 0.33329,-1.024079 0.2047,-1.199935 -0.10159,-0.138935 -0.19222,-0.107059 -1.0391,0.365486 -1.47324,0.822039 -44.047034,25.398639 -44.411594,25.637507 -0.264391,0.173236 -0.298033,0.478765 -0.104043,0.944883 0.06893,0.165625 0.150423,0.460261 0.181094,0.654747 0.0916,0.580851 1.393826,2.639448 2.055435,3.249297 1.252351,1.154377 3.04988,1.302757 4.910184,0.405317 0.242731,-0.117097 0.451517,-0.212904 0.46397,-0.212904 0.01245,0 -0.03501,0.110511 -0.105464,0.245579 -0.07046,0.135069 -0.128354,0.356091 -0.128657,0.491159 -3.03e-4,0.135069 -0.04772,0.24558 -0.105373,0.24558 -0.05765,0 -0.432658,0.16787 -0.833347,0.373044 l -0.728483,0.373044 -1.438254,-0.119267 c -1.100822,-0.09129 -1.580046,-0.09577 -2.042631,-0.01912 -0.957093,0.158595 -3.068175,1.252435 -3.068175,1.589748 0,0.07421 -0.04019,0.110097 -0.0893,0.07974 -0.111912,-0.06917 -0.111406,-0.04541 0.0062,0.292005 0.0607,0.174138 0.207211,0.327008 0.401965,0.419425 0.388196,0.184211 2.02039,0.498304 2.495975,0.480315 0.198238,-0.0075 0.447067,0.03273 0.552951,0.0894 0.247325,0.132364 0.786301,0.132366 1.033622,5e-6 0.10588,-0.05667 0.328131,-0.09793 0.493891,-0.0917 0.39416,0.01482 0.909288,-0.204112 0.909288,-0.386449 0,-0.07908 0.03438,-0.122531 0.0764,-0.09656 0.04202,0.02597 0.05716,-0.05344 0.03364,-0.176462 -0.05615,-0.293702 0.163331,-0.529244 0.786537,-0.844114 0.656525,-0.331704 1.448144,-0.47782 2.295385,-0.42368 0.84247,0.05384 1.27759,0.201529 2.021368,0.68612 l 0.569362,0.370953 0.792346,-0.499141 c 1.577718,-0.993887 2.368298,-1.272413 3.038848,-1.070607 0.60066,0.180773 0.94121,0.495483 1.31843,1.218407 0.48284,0.925346 1.10027,1.862767 1.22689,1.862767 0.0589,0 0.24054,-0.04826 0.40366,-0.107241 z m 1.24865,-0.996148 c 1.52691,-0.653675 1.97357,-0.934272 3.40536,-2.139272 0.40739,-0.342866 0.79589,-0.728035 0.86333,-0.855931 0.1357,-0.257348 0.13415,-0.261003 -0.59761,-1.411697 -0.27662,-0.434997 -0.45036,-0.602898 -0.80855,-0.781389 -0.25092,-0.125039 -0.54102,-0.227343 -0.64466,-0.227343 -0.14491,0 -2.52254,1.326181 -4.79971,2.677151 -0.28651,0.16998 -0.19258,0.650506 0.3009,1.539229 0.61723,1.111614 0.69283,1.218881 0.96212,1.36525 0.34728,0.188759 0.54965,0.163286 1.31882,-0.165998 z m -19.119894,-1.668028 c 1.784945,-1.078157 2.944191,-1.336927 4.627984,-1.033071 1.041569,0.187961 1.320918,0.18069 1.702255,-0.0443 0.174713,-0.103083 0.31766,-0.200308 0.31766,-0.216056 0,-0.01575 -0.150697,0.01298 -0.334881,0.06385 -0.184185,0.05086 -0.777929,0.07552 -1.319431,0.0548 -0.963816,-0.03688 -0.999303,-0.04582 -1.685224,-0.424457 -0.949159,-0.523948 -1.217244,-0.779023 -1.888152,-1.796524 l -0.574898,-0.871891 -0.271732,0.253835 c -0.392923,0.367045 -1.657025,1.075013 -2.026544,1.134977 -0.284313,0.04614 -0.349993,0.0146 -0.653,-0.313553 -0.18529,-0.200668 -0.31203,-0.389712 -0.281645,-0.420097 0.07581,-0.07581 -0.27304,0.05325 -0.393792,0.145683 -0.110979,0.08495 0.03151,0.442812 0.706018,1.773147 0.591355,1.166333 1.161907,2.140831 1.25419,2.142145 0.04229,6.02e-4 0.411832,-0.201213 0.821192,-0.448479 z m 28.839364,-4.920608 c 2.60314,-2.16266 4.74464,-4.000083 4.75889,-4.083161 0.0143,-0.08308 -0.10112,-0.290698 -0.25638,-0.461374 -0.6372,-0.700505 -1.95741,-3.014327 -1.95741,-3.430582 0,-0.252229 0.75729,-1.85264 0.8383,-1.771624 0.0301,0.03009 0.0547,-0.0099 0.0547,-0.08886 0,-0.07896 -0.0388,-0.16756 -0.0863,-0.196884 -0.0964,-0.05957 -1.74814,0.849156 -6.68038,3.675235 -4.39972,2.520949 -4.11609,2.333353 -4.02662,2.66331 0.04,0.147347 0.43118,0.887375 0.86938,1.644506 l 0.79673,1.376601 -0.30509,0.842826 -0.30509,0.842826 0.57669,0.90613 c 0.69157,1.086625 0.79642,1.340962 0.72904,1.768386 -0.0441,0.279947 -0.0292,0.320628 0.10453,0.285607 0.0858,-0.02246 2.28583,-1.810286 4.88897,-3.972946 z m -29.422329,1.198624 c 0.719417,-0.412198 0.890446,-0.549416 0.890446,-0.714413 0,-0.210496 -0.283281,-0.56143 -0.453196,-0.56143 -0.248802,0 -1.779346,1.131463 -1.779346,1.31539 0,0.120846 0.271162,0.470643 0.364842,0.470643 0.04774,0 0.487509,-0.229585 0.977254,-0.51019 z m 23.168829,-2.0586 c -0.0994,-0.0711 -1.8283,-3.067407 -1.8283,-3.168506 0,-0.07008 0.10604,-0.132512 6.00891,-3.537411 2.39625,-1.382212 4.39312,-2.513112 4.43748,-2.513112 0.0444,0 0.10542,-0.04006 0.13569,-0.08903 0.0361,-0.0584 -0.0204,-0.06036 -0.16415,-0.0057 -0.12055,0.04583 -0.2434,0.0591 -0.27301,0.0295 -0.0296,-0.02961 -0.0538,-0.0046 -0.0538,0.05562 0,0.0602 -0.0367,0.08674 -0.0817,0.05898 -0.0449,-0.02776 -0.0952,-0.01575 -0.11163,0.0267 -0.0165,0.04245 -1.2958,0.801221 -2.84295,1.686162 -1.54716,0.884941 -3.98645,2.292439 -5.42066,3.127773 -1.43421,0.835334 -2.62974,1.496708 -2.65672,1.469719 -0.027,-0.02699 -0.0491,-0.0065 -0.0491,0.04544 0,0.05198 -0.10047,0.119719 -0.22326,0.150537 -0.12279,0.03082 -0.22325,0.09783 -0.22325,0.148904 0,0.05108 -0.0336,0.07208 -0.0747,0.04667 -0.0411,-0.02541 -0.16131,0.01443 -0.26709,0.08853 l -0.19235,0.134723 0.24477,0.484276 c 0.23597,0.466873 0.39508,0.59002 0.5139,0.397754 0.10605,-0.171582 1.10942,-0.623113 1.38466,-0.623113 0.34922,0 0.5419,0.20736 1.15473,1.24266 0.26412,0.446203 0.52387,0.810662 0.57723,0.80991 0.065,-9.16e-4 0.0668,-0.02301 0.005,-0.06698 z m -10.42014,-0.761459 c 0.25975,-0.136575 0.50649,-0.337274 0.54831,-0.445997 0.0464,-0.12057 0.50657,-0.455935 1.1798,-0.859764 1.21246,-0.727286 2.2527,-1.433609 2.19554,-1.490774 -0.0201,-0.02014 -0.30328,0.0843 -0.62921,0.232085 -0.75401,0.341887 -0.98478,0.340674 -1.33246,-0.007 l -0.2757,-0.275699 -1.45784,0.734212 c -0.801814,0.403817 -1.497079,0.781489 -1.545034,0.839272 -0.05996,0.07224 0.04221,0.334182 0.327116,0.838625 0.227869,0.403462 0.437457,0.722271 0.465752,0.708465 0.02829,-0.01381 0.263971,-0.136845 0.523726,-0.27342 z m -5.111847,-1.631706 c 1.591959,-0.911062 3.210811,-1.869473 5.086077,-3.011113 0.0982,-0.0598 0.20319,-0.142303 0.23324,-0.183336 0.03,-0.04103 0.0803,-0.07117 0.11162,-0.06698 0.18773,0.02512 0.24571,-0.0223 0.35915,-0.293812 0.24709,-0.591366 1.95983,-1.609888 2.92815,-1.741292 0.33695,-0.04572 0.70038,-0.185859 1.11312,-0.42921 0.33705,-0.198726 1.2156,-0.695858 1.95234,-1.10474 1.28398,-0.712592 8.0275,-4.602685 8.90784,-5.138606 0.2333,-0.142026 0.42418,-0.315779 0.42418,-0.386118 0,-0.07034 0.0979,-0.41221 0.21762,-0.759714 0.19938,-0.578908 0.35847,-1.39089 0.27251,-1.39089 -0.0792,0 -0.98505,0.562228 -1.03592,0.642956 -0.0301,0.04769 -0.0834,0.07851 -0.11849,0.06849 -0.0351,-0.01002 -0.25165,0.100837 -0.48117,0.246351 -0.22953,0.145514 -1.44206,0.838281 -2.69452,1.539483 -2.95308,1.653316 -18.854235,10.806289 -18.99539,10.934069 -0.09235,0.0836 -0.471305,1.757073 -0.472098,2.084812 -1.49e-4,0.06139 0.05182,0.111627 0.115477,0.111627 0.06366,0 0.99798,-0.504893 2.076264,-1.121984 z m 28.429117,-7.952868 c 2.21898,-1.265884 3.42174,-2.036729 3.50029,-2.243326 0.19997,-0.525959 0.65116,-1.341797 0.86831,-1.570049 0.24823,-0.260931 2.11005,-1.388365 7.91972,-4.795826 5.30629,-3.11222 16.32188,-9.498195 18.41483,-10.675467 1.04171,-0.585958 1.91824,-1.135032 1.94785,-1.220166 0.0906,-0.260422 -0.21215,-1.243975 -0.55705,-1.809848 -0.53172,-0.872364 -2.12164,-3.317246 -2.85801,-4.394868 l -0.6843,-1.001406 -0.45172,0.254358 c -3.44823,1.941661 -9.5591,5.469053 -14.51673,8.379522 l -2.27719,1.336871 0.0303,0.333779 c 0.0167,0.183578 -0.0775,0.768256 -0.2092,1.299283 l -0.23953,0.965505 -4.56844,2.632438 c -8.02162,4.62224 -10.76985,6.134865 -11.1462,6.134865 -0.57015,0 -0.50119,0.248394 0.55901,2.01363 0.60016,0.999273 0.74808,1.187459 0.96794,1.23143 0.50336,0.100674 0.97377,0.889035 1.00707,1.687766 0.0311,0.74647 0.70894,2.032703 1.0712,2.032703 0.10203,0 0.65185,-0.266038 1.22182,-0.591194 z"
     id="path67" />
  <path
     style="fill:#363430;fill-opacity:1;stroke:#363430;stroke-width:0.414;stroke-dasharray:none;stroke-opacity:1"
     d="m 44.521508,-24.958993 c -0.562689,-0.855515 -1.028477,-1.576347 -1.035086,-1.601848 -0.0066,-0.0255 -0.306709,-0.557206 -0.66689,-1.181566 l -0.654873,-1.135199 0.0058,-0.996878 c 0.0032,-0.548282 0.01393,-0.976784 0.02385,-0.952226 0.161608,0.399893 1.119899,2.096074 1.530824,2.709564 0.118162,0.176411 0.250737,0.380083 0.294611,0.452606 0.102056,0.168696 0.122361,0.189005 0.159281,0.159312 0.01587,-0.01276 0.13434,-0.0779 0.26327,-0.14474 0.992356,-0.51449 15.701142,-8.965948 16.018719,-9.204126 0.03697,-0.02772 0.08093,-0.07603 0.09769,-0.107357 0.02699,-0.05044 0.02539,-0.06417 -0.01405,-0.120151 -0.02449,-0.03476 -0.05185,-0.08832 -0.06079,-0.119014 -0.02999,-0.102927 -0.360313,-0.744233 -0.576347,-1.118968 -0.267265,-0.4636 -0.568057,-0.950205 -0.804338,-1.301215 -0.09997,-0.148516 -0.200827,-0.305192 -0.22412,-0.348169 -0.0513,-0.09465 -0.261879,-0.454227 -0.273065,-0.466276 -0.0044,-0.0047 -0.03307,0.0078 -0.06372,0.02791 -0.03065,0.02008 -0.0714,0.03651 -0.09056,0.03651 -0.06969,0 -1.15749,0.620768 -6.775989,3.866798 -2.093566,1.209536 -4.852362,2.802631 -6.130657,3.540211 -2.518532,1.453201 -2.53758,1.464413 -2.82996,1.66585 -0.108868,0.07501 -0.277158,0.183604 -0.373976,0.241328 l -0.176034,0.104955 v -0.578957 -0.578956 l 0.168222,-0.0953 c 0.09252,-0.05241 3.871167,-2.232675 8.39699,-4.845028 4.525822,-2.612353 8.231963,-4.749732 8.235869,-4.749732 0.0093,0 0.332109,0.546204 0.580487,0.982318 0.243786,0.428051 1.493012,2.591773 1.86012,3.22182 0.148899,0.255547 0.270725,0.468454 0.270725,0.473127 0,0.0047 0.06472,0.119167 0.143816,0.25443 l 0.143816,0.245933 -0.200452,0.11471 c -0.148747,0.08512 -0.197757,0.124233 -0.190002,0.151631 0.0057,0.02031 0.203244,0.930474 0.438882,2.022595 0.419839,1.945846 0.42756,1.986372 0.384918,2.02045 -0.02393,0.01913 -2.149977,1.721769 -4.72454,3.783649 l -4.681025,3.748874 -1.15e-4,0.470629 c -6.4e-5,0.258847 -0.0066,0.568583 -0.01453,0.688303 l -0.01441,0.217673 h -0.478317 -0.478316 l 0.01287,-0.407439 c 0.0071,-0.224091 0.01894,-0.643785 0.02635,-0.932652 l 0.01348,-0.525213 0.516724,-0.414708 c 0.284199,-0.22809 1.646949,-1.321365 3.028334,-2.429501 1.381385,-1.108136 2.53463,-2.037062 2.562767,-2.06428 l 0.05116,-0.04949 -0.472495,-0.813444 c -0.582525,-1.00287 -0.587832,-1.01083 -0.634464,-0.951783 -0.01228,0.01555 -0.08763,0.07804 -0.167441,0.138862 -0.429941,0.32766 -2.112077,1.761049 -2.80184,2.387515 -0.122789,0.111522 -0.286044,0.256267 -0.362788,0.321656 -0.07763,0.06615 -0.139533,0.137132 -0.139533,0.160013 0,0.02262 -0.0091,0.04675 -0.02024,0.05363 -0.01113,0.0069 -0.03613,0.05916 -0.05556,0.116175 -0.06901,0.202533 -0.157345,0.306979 -0.39048,0.461694 -0.48264,0.320296 -1.092225,0.685 -2.541779,1.520699 l -0.764338,0.44067 -0.251457,-0.02341 c -0.30146,-0.02807 -0.445329,-0.06836 -0.589099,-0.164989 -0.243002,-0.163322 -0.354446,-0.403675 -0.354446,-0.764438 0,-0.199214 0.0067,-0.236932 0.06238,-0.350287 0.105249,-0.214327 0.295365,-0.366414 0.998074,-0.798433 0.424043,-0.260698 0.67051,-0.422163 0.694584,-0.455035 0.0075,-0.01026 0.02007,-0.01779 0.02791,-0.01674 0.05491,0.0073 0.06635,-0.0021 0.412337,-0.340383 0.09002,-0.08802 0.215219,-0.230357 0.278221,-0.31631 0.063,-0.08595 0.160139,-0.210778 0.215861,-0.27739 l 0.101311,-0.121111 -0.111628,0.064 c -0.06139,0.0352 -0.176928,0.103825 -0.256742,0.152505 -0.07981,0.04868 -0.330974,0.190927 -0.558135,0.316106 -1.611323,0.887933 -5.462517,3.107033 -5.558151,3.202666 -0.02197,0.02197 -0.05106,0.04371 -0.06463,0.04832 -0.02753,0.0093 0.14622,0.28744 0.179587,0.28744 0.01141,0 0.01549,0.0085 0.0091,0.01894 -0.0064,0.01042 0.0063,0.03827 0.0283,0.06189 0.02201,0.02362 0.09037,0.128119 0.151917,0.232216 0.125322,0.211964 0.673781,1.072361 1.119857,1.75678 0.161755,0.248182 0.2941,0.456646 0.2941,0.463253 0,0.0066 -0.259334,0.01201 -0.576298,0.01201 h -0.576304 z m 5.427794,-2.006842 c 0.257662,-0.140452 2.270733,-1.299176 2.699185,-1.553652 0.300824,-0.178672 0.344999,-0.212794 0.416965,-0.322073 0.04427,-0.06722 0.08727,-0.153102 0.09556,-0.190836 0.02367,-0.107762 -0.03034,-0.255995 -0.13617,-0.373697 -0.122463,-0.136209 -0.243957,-0.193418 -0.359784,-0.169415 -0.04683,0.0097 -0.0977,0.01552 -0.113046,0.01293 -0.01535,-0.0026 -0.02791,0.0064 -0.02791,0.01991 0,0.01354 -0.011,0.01782 -0.02445,0.0095 -0.01345,-0.0083 -0.05182,0.0051 -0.08528,0.02986 -0.03346,0.02473 -0.130935,0.08028 -0.216622,0.123428 -0.422834,0.212936 -2.737461,1.560332 -2.927607,1.704226 -0.208871,0.158064 -0.228615,0.474762 -0.04187,0.671681 0.18855,0.198828 0.40518,0.210279 0.72102,0.03812 z m 3.387214,-3.107047 c 0.200799,-0.161938 1.40131,-1.192233 2.190858,-1.880224 0.331807,-0.289127 0.652089,-0.565871 0.711737,-0.614987 0.277327,-0.228356 0.705429,-0.595497 0.705429,-0.604977 0,-0.01739 -0.468312,0.250573 -0.491159,0.281036 -0.0061,0.0082 -0.0413,0.03031 -0.07814,0.04917 -0.03684,0.01886 -0.277952,0.154345 -0.53581,0.301087 -1.160288,0.660295 -1.655329,0.951839 -1.696732,0.999253 -0.298195,0.341495 -1.020468,1.163073 -1.090525,1.240463 -0.05002,0.05526 -0.119145,0.132126 -0.153611,0.170824 l -0.06267,0.07036 0.128754,0.03919 c 0.07081,0.02155 0.138298,0.04766 0.149963,0.05801 0.03699,0.03283 0.05958,0.02171 0.221901,-0.109201 z m 5.865205,-0.945442 c 0.673725,-0.538104 0.781486,-0.635354 0.76184,-0.687536 -0.05493,-0.145914 -1.338072,-2.317447 -1.399464,-2.368398 -0.0239,-0.01984 -0.06115,-0.01029 -0.165629,0.04245 -0.228699,0.115447 -0.516261,0.292124 -0.516261,0.317189 0,0.02675 0.326901,0.613923 0.371587,0.667431 0.02452,0.02937 0.01171,0.04775 -0.08771,0.125857 -0.06404,0.05031 -0.233269,0.202144 -0.376069,0.337413 l -0.259638,0.245944 0.09375,0.175171 c 0.339181,0.633772 0.921676,1.615161 0.958665,1.615161 0.01629,0 0.294815,-0.211806 0.618935,-0.470681 z m 1.283863,-1.016959 c 0.152714,-0.103432 0.709421,-0.557903 0.78235,-0.638675 0.05997,-0.06642 0.06942,-0.09248 0.06378,-0.175821 -0.0067,-0.09837 -0.391006,-1.8699 -0.492455,-2.269824 -0.02989,-0.117809 -0.0632,-0.22306 -0.07403,-0.233891 -0.04303,-0.04303 -1.303755,0.657957 -1.695255,0.942593 l -0.09595,0.06976 0.09452,0.172113 c 0.234644,0.427254 0.910521,1.579657 1.056784,1.801868 0.08891,0.135069 0.178406,0.27823 0.198892,0.318137 0.02049,0.03991 0.04563,0.07256 0.05588,0.07256 0.01025,0 0.05771,-0.02647 0.105472,-0.05881 z"
     id="path69" />
  <path
     style="fill:#363430;fill-opacity:1;stroke:#363430;stroke-width:0.526;stroke-dasharray:none;stroke-opacity:1"
     d="m 49.536482,-18.650213 -1.42078,-0.868535 -1.213125,-1.827057 c -0.667219,-1.004881 -1.206665,-1.833518 -1.198769,-1.841414 0.0079,-0.0079 0.264335,-0.02037 0.569863,-0.02772 l 0.555506,-0.01336 0.968378,1.472999 0.968377,1.472998 1.024455,0.620648 c 0.56345,0.341357 1.0911,0.637376 1.172555,0.657819 0.103956,0.02609 0.275754,-0.03615 0.576377,-0.20883 l 0.428277,-0.246001 0.01673,-1.875716 0.01673,-1.875717 h 0.473483 0.473483 l -0.01661,2.162744 -0.01662,2.162744 -0.947187,0.551967 c -0.520953,0.303582 -0.961395,0.551741 -0.97876,0.551465 -0.01736,-2.77e-4 -0.670924,-0.391343 -1.452354,-0.869037 z"
     id="path71" />
  <path
     style="fill:#363430;fill-opacity:1;stroke:#363430;stroke-width:0.00830367;stroke-dasharray:none;stroke-opacity:1"
     d="m 49.931144,-21.771931 c -0.03473,-0.01098 -0.08531,-0.03152 -0.112399,-0.04565 -0.16837,-0.08778 -0.49184,-0.599932 -1.59238,-2.521249 -0.718828,-1.254924 -0.883312,-1.567279 -0.934011,-1.773682 -0.02597,-0.105718 -0.02577,-0.110962 0.0085,-0.227573 0.04577,-0.155563 0.09511,-0.23732 0.202455,-0.335424 0.100405,-0.09176 0.164574,-0.127764 0.29566,-0.165872 0.180871,-0.05258 0.434522,-0.0097 0.542445,0.09168 0.177895,0.167123 1.832938,2.962425 2.26775,3.830139 0.150186,0.299713 0.187503,0.420231 0.178882,0.577722 -0.0081,0.148383 -0.0424,0.22643 -0.149924,0.341385 -0.193183,0.206527 -0.481699,0.299783 -0.707015,0.228525 z m 0.316131,-0.467547 c 0.09383,-0.05799 0.128097,-0.187583 0.07633,-0.288637 -0.01424,-0.02779 -0.357969,-0.625939 -0.76385,-1.329225 -0.405881,-0.703287 -0.891537,-1.545099 -1.079237,-1.870695 -0.187699,-0.325595 -0.361575,-0.610553 -0.38639,-0.63324 -0.06453,-0.059 -0.143727,-0.07003 -0.229715,-0.03199 -0.09097,0.04024 -0.127617,0.0974 -0.127474,0.198836 1.08e-4,0.07648 0.03779,0.14483 0.953403,1.729311 0.52431,0.907326 1.024536,1.773077 1.111613,1.92389 0.112495,0.194837 0.172383,0.282781 0.206901,0.303831 0.06475,0.03948 0.172692,0.03854 0.238419,-0.0021 z"
     id="path73" />
  <path
     style="fill:#363430;fill-opacity:1;stroke:#363430;stroke-width:0.0166073;stroke-dasharray:none;stroke-opacity:1"
     d="m 41.364547,-30.259404 c -0.530053,-0.918996 -0.588763,-1.034775 -0.54204,-1.06894 0.125931,-0.09208 1.123777,-0.650672 1.137617,-0.636832 0.0084,0.0084 0.01162,0.627567 0.0071,1.375861 l -0.0082,1.360535 z"
     id="path75" />
  <path
     style="fill:#272624;fill-opacity:1;stroke:#272624;stroke-width:0.7;stroke-opacity:1;stroke-dasharray:none"
     d="M 3.0073814,11.768014 V 8.23761 H 18.436556 33.86573 v 3.530404 3.530405 H 18.436556 3.0073814 Z"
     id="path1" />
  <path
     style="fill:#272624;fill-opacity:1;stroke:#272624;stroke-width:0.429;stroke-dasharray:none;stroke-opacity:1"
     d="M 63.333903,11.927115 V 9.893033 h 1.664248 1.664249 v 2.034082 2.034081 h -1.664249 -1.664248 z"
     id="path3" />
  <path
     style="fill:#272624;fill-opacity:1;stroke:#272624;stroke-width:0.0280471;stroke-dasharray:none;stroke-opacity:1"
     d="M 69.202462,11.866081 V 9.8393675 h 1.83058 1.83058 v 2.0267135 2.026714 h -1.83058 -1.83058 z"
     id="path5" />
  <path
     style="fill:#272624;fill-opacity:1;stroke:#272624;stroke-width:0.0280471;stroke-dasharray:none;stroke-opacity:1"
     d="M 57.303692,11.866081 V 9.8393675 h 1.797891 1.797891 v 2.0267135 2.026714 h -1.797891 -1.797891 z"
     id="path7" />
  <path
     style="fill:#272624;fill-opacity:1;stroke:#272624;stroke-width:0.0280471;stroke-dasharray:none;stroke-opacity:1"
     d="M 50.242883,11.866081 V 9.8393675 h 2.320914 2.320914 v 2.0267135 2.026714 h -2.320914 -2.320914 z"
     id="path9" />
  <path
     style="fill:#272624;fill-opacity:1;stroke:#272624;stroke-width:0.328;stroke-dasharray:none;stroke-opacity:1"
     d="m 50.415145,16.960809 c -0.151482,-0.119156 -0.172262,-0.182246 -0.172262,-0.523023 v -0.387522 h 27.58994 27.589937 l -0.0168,-4.167838 -0.0168,-4.1678388 L 77.815995,7.6981659 50.242883,7.6817446 V 7.3549321 c 0,-0.239642 0.03488,-0.3616888 0.130756,-0.4575682 0.130342,-0.130342 0.217926,-0.1307557 27.682777,-0.1307557 h 27.552024 l 0.1355,0.1722614 c 0.13431,0.1707432 0.1355,0.2148507 0.1355,5.0043774 v 4.832117 l -0.16047,0.160472 -0.16048,0.160474 H 78.07295 50.587406 Z"
     id="path11" />
  <path
     style="fill:#272624;fill-opacity:1;stroke:#272624;stroke-width:0.0428879;stroke-dasharray:none;stroke-opacity:1"
     d="M 75.380669,11.89877 V 9.8720564 h 1.765203 1.765202 v 2.0267136 2.026714 h -1.765202 -1.765203 z"
     id="path13" />
  <path
     style="fill:#272624;fill-opacity:1;stroke:#272624;stroke-width:0.0428879;stroke-dasharray:none;stroke-opacity:1"
     d="M 81.395432,11.89877 V 9.8720564 h 1.765202 1.765203 v 2.0267136 2.026714 h -1.765203 -1.765202 z"
     id="path17" />
  <path
     style="fill:#272624;fill-opacity:1;stroke:#272624;stroke-width:0.0428879;stroke-dasharray:none;stroke-opacity:1"
     d="M 87.410195,11.89877 V 9.8720564 h 1.699824 1.699825 v 2.0267136 2.026714 h -1.699825 -1.699824 z"
     id="path19" />
  <path
     style="fill:#272624;fill-opacity:1;stroke:#272624;stroke-width:0.0428879;stroke-dasharray:none;stroke-opacity:1"
     d="M 93.294202,11.89877 V 9.8720564 h 1.83058 1.83058 v 2.0267136 2.026714 h -1.83058 -1.83058 z"
     id="path21" />
  <path
     style="fill:#272624;fill-opacity:1;stroke:#272624;stroke-width:0.0428879;stroke-dasharray:none;stroke-opacity:1"
     d="M 99.439721,11.89877 V 9.8720564 h 1.765199 1.76521 v 2.0267136 2.026714 h -1.76521 -1.765199 z"
     id="path23" />
  <path
     style="fill:#272624;fill-opacity:1;stroke:#272624;stroke-width:0.443;stroke-dasharray:none;stroke-opacity:1"
     d="m 96.359742,3.3899158 c 0.499439,-0.1744361 1.00517,-0.3171565 1.123847,-0.3171565 0.207585,0 0.648575,0.3848495 0.648575,0.5660076 0,0.048274 -0.603111,0.083391 -1.340246,0.078038 l -1.340246,-0.00973 z"
     id="path25" />
  <path
     style="fill:#272624;fill-opacity:1;stroke:#272624;stroke-width:0.305;stroke-dasharray:none;stroke-opacity:1"
     d="m 95.264006,3.6723516 c 0.06846,-0.022546 0.126217,-0.038926 0.128359,-0.0364 0.0021,0.00253 0.0071,0.021495 0.01104,0.042153 l 0.0072,0.037561 -0.135509,-0.00116 -0.135509,-0.00116 z"
     id="path65" />
  <path
     style="fill:#272624;fill-opacity:1;stroke:#272624;stroke-width:0.214;stroke-dasharray:none;stroke-opacity:1"
     d="M 109.30877,11.811542 V 9.8236893 h 0.4854 0.48541 v 1.9878527 1.987852 h -0.48541 -0.4854 z"
     id="path76" />
  <path
     style="fill:#272624;fill-opacity:1;stroke:#272624;stroke-width:0.0197861;stroke-dasharray:none;stroke-opacity:1"
     d="M 112.75284,11.834656 V 9.8468039 h 1.71048 1.71047 v 1.9878521 1.987853 h -1.71047 -1.71048 z"
     id="path77" />
  <path
     style="fill:#272624;fill-opacity:1;stroke:#272624;stroke-width:0.0197861;stroke-dasharray:none;stroke-opacity:1"
     d="M 118.67017,11.834656 V 9.8468039 h 1.29441 1.29442 v 1.9878521 1.987853 h -1.29442 -1.29441 z"
     id="path78" />
  <path
     style="fill:#272624;fill-opacity:1;stroke:#272624;stroke-width:0.205;stroke-dasharray:none;stroke-opacity:1"
     d="m 118.66933,13.805367 c -0.006,-0.016 -0.008,-0.913219 -0.005,-1.993825 l 0.006,-1.9647381 h 1.29441 1.29442 v 1.9878521 1.987853 l -1.28929,0.006 c -1.01914,0.0047 -1.29161,-1.22e-4 -1.30038,-0.02311 z"
     id="path79" />
  <path
     style="fill:#272624;fill-opacity:1;stroke:#272624;stroke-width:0.105;stroke-dasharray:none;stroke-opacity:1"
     d="m 112.75198,13.805322 c -0.006,-0.01597 -0.008,-0.913174 -0.005,-1.99378 l 0.006,-1.9647381 h 1.71048 1.71047 v 1.9878521 1.987853 l -1.70536,0.0059 c -1.35205,0.0047 -1.70767,-9e-5 -1.71645,-0.02311 z"
     id="path80" />
  <path
     style="fill:#272624;fill-opacity:1;stroke:#272624;stroke-width:0.102;stroke-dasharray:none;stroke-opacity:1"
     d="M 109.32033,7.674035 V 7.5237903 h 5.98667 5.98667 V 7.674035 7.8242796 h -5.98667 -5.98667 z"
     id="path81" />
  <path
     style="fill:#272624;fill-opacity:1;stroke:#272624;stroke-width:0.202;stroke-dasharray:none;stroke-opacity:1"
     d="m 109.32033,16.018392 v -0.196474 h 0.48379 0.4838 l 0.007,0.05201 0.007,0.05201 1.19617,0.006 1.19618,0.006 v -0.05799 -0.058 h 1.74354 1.74355 l 0.007,0.05201 0.007,0.05201 h 1.20196 1.20195 l 0.007,-0.05201 0.007,-0.05201 h 1.33903 1.33904 v 0.196474 0.196474 h -5.98667 -5.98667 z"
     id="path82" />
  <path
     style="fill:#191817;fill-opacity:1;stroke:#191817;stroke-width:0.526;stroke-dasharray:none;stroke-opacity:1"
     d="M 72.896311,11.89877 V 7.9107207 h 1.23546 1.23546 l -0.02597,2.9746923 -0.02597,2.974693 1.884157,0.03641 1.884158,0.03641 -0.08187,-3.011099 -0.08187,-3.0110993 h 1.237784 1.237783 V 8.8223209 9.733921 l 1.797891,0.040387 1.797891,0.040387 -1.863269,0.028681 -1.863268,0.028681 v 2.026714 2.026714 h 1.83058 1.83058 l 0.0096,-2.059403 c 0.0053,-1.132671 0.0014,-2.4859933 -0.0085,-3.0073817 l -0.01811,-0.947979 h 1.250716 1.250718 v 0.91529 0.91529 h 1.699824 1.699825 V 8.8212758 7.9012509 l 1.274868,0.037424 1.274868,0.037424 0.03866,0.8826011 0.03866,0.882601 h 1.759228 1.759228 v -0.91529 -0.91529 h 1.24218 1.242179 v 0.91529 0.91529 h 1.765198 1.76521 v -0.91529 -0.91529 h 1.11142 1.11142 v 3.988049 3.988049 h -1.11142 -1.11142 v -0.91529 -0.91529 h -1.76521 -1.765198 v 0.91529 0.91529 h -1.242179 -1.24218 v -0.91529 -0.91529 H 95.19016 93.424958 v 0.91529 0.91529 h -1.307557 -1.307557 v -0.91529 -0.91529 h -1.699825 -1.699824 v 0.91529 0.91529 h -1.242179 -1.242179 v -0.91529 -0.91529 h -1.765203 -1.765202 v 0.91529 0.91529 h -1.242179 -1.242179 v -0.91529 -0.91529 h -1.765202 -1.765203 v 0.91529 0.91529 H 74.13849 72.896311 Z m 18.0445,-0.03269 2.12e-4,-2.0594024 -1.830792,0.039581 -1.830792,0.039581 v 2.0198204 2.019822 h 1.83058 1.83058 z m 6.014551,0.03269 V 9.8720564 h -1.895958 -1.895957 v 2.0267136 2.026714 h 1.895957 1.895958 z m 6.014768,0 V 9.8720564 h -1.76521 -1.765199 v 2.0267136 2.026714 h 1.765199 1.76521 z"
     id="path85" />
  <path
     style="fill:#191817;fill-opacity:1;stroke:#191817;stroke-width:0.269;stroke-dasharray:none;stroke-opacity:1"
     d="M 66.81617,11.89877 V 7.9107207 h 1.176802 1.176801 V 11.89877 15.886819 H 67.992972 66.81617 Z"
     id="path86" />
  <path
     style="fill:#191817;fill-opacity:1;stroke:#191817;stroke-width:0.335;stroke-dasharray:none;stroke-opacity:1"
     d="M 60.932163,11.89877 V 7.9107207 h 1.20949 1.209491 v 0.8499122 c 0,0.4794376 -0.057,0.8499121 -0.130756,0.8499121 -0.08219,0 -0.130756,0.849912 -0.130756,2.288225 0,1.438313 0.04857,2.288225 0.130756,2.288225 0.07376,0 0.130756,0.370474 0.130756,0.849912 v 0.849912 h -1.209491 -1.20949 z"
     id="path87" />
  <path
     style="fill:#191817;fill-opacity:1;stroke:#191817;stroke-width:0.344;stroke-dasharray:none;stroke-opacity:1"
     d="M 54.9174,11.89877 V 7.9107207 h 1.176802 1.176801 V 11.89877 15.886819 H 56.094202 54.9174 Z"
     id="path88" />
  <path
     style="fill:#252322;fill-opacity:1;stroke:#252322;stroke-width:0.303;stroke-dasharray:none;stroke-opacity:1"
     d="M 87.704396,15.102285 V 14.35044 h 1.405623 1.405624 v 0.751845 0.751845 h -1.405624 -1.405623 z"
     id="path89" />
  <path
     style="fill:#252322;fill-opacity:1;stroke:#252322;stroke-width:0.52;stroke-dasharray:none;stroke-opacity:1"
     d="M 93.719158,15.102285 V 14.35044 h 1.471002 1.471002 v 0.751845 0.751845 H 95.19016 93.719158 Z"
     id="path90" />
  <path
     style="fill:#252322;fill-opacity:1;stroke:#252322;stroke-width:0.134;stroke-dasharray:none;stroke-opacity:1"
     d="M 99.733921,15.102285 V 14.35044 h 1.470999 1.471 v 0.751845 0.751845 h -1.471 -1.470999 z"
     id="path91" />
  <path
     style="fill:#252322;fill-opacity:1;stroke:#252322;stroke-width:0.109;stroke-dasharray:none;stroke-opacity:1"
     d="M 99.733921,8.6625661 V 7.8780318 h 1.470999 1.471 v 0.7845343 0.7845343 h -1.471 -1.470999 z"
     id="path92" />
  <path
     style="fill:#252322;fill-opacity:1;stroke:#252322;stroke-width:0.107;stroke-dasharray:none;stroke-opacity:1"
     d="M 93.696063,8.9469024 C 93.672808,8.6717935 93.653781,8.3187531 93.653781,8.1623681 V 7.8780318 h 1.50369 1.503691 v 0.7845343 0.7845343 h -1.461409 -1.461408 z"
     id="path93" />
  <path
     style="fill:#252322;fill-opacity:1;stroke:#252322;stroke-width:0.107;stroke-dasharray:none;stroke-opacity:1"
     d="M 87.704396,8.6625661 V 7.8780318 h 1.405623 1.405624 v 0.7845343 0.7845343 h -1.405624 -1.405623 z"
     id="path94" />
  <path
     style="fill:#252322;fill-opacity:1;stroke:#252322;stroke-width:0.107;stroke-dasharray:none;stroke-opacity:1"
     d="M 82.359756,9.4637141 81.689633,9.4425261 V 8.660279 7.8780318 h 1.471001 1.471002 V 8.695255 9.5124782 l -0.800879,-0.013788 c -0.440483,-0.00758 -1.102434,-0.023323 -1.471001,-0.034976 z"
     id="path95" />
  <path
     style="fill:#252322;fill-opacity:1;stroke:#252322;stroke-width:0.107;stroke-dasharray:none;stroke-opacity:1"
     d="M 81.689633,15.102285 V 14.35044 h 1.471001 1.471002 v 0.751845 0.751845 h -1.471002 -1.471001 z"
     id="path96" />
  <path
     style="fill:#252322;fill-opacity:1;stroke:#252322;stroke-width:0.107;stroke-dasharray:none;stroke-opacity:1"
     d="M 75.67487,15.102285 V 14.35044 h 1.471002 1.471001 v 0.751845 0.751845 H 77.145872 75.67487 Z"
     id="path97" />
  <path
     style="fill:#252322;fill-opacity:1;stroke:#252322;stroke-width:0.207;stroke-dasharray:none;stroke-opacity:1"
     d="M 75.637222,9.6187172 C 75.657928,9.5153385 75.67487,9.081393 75.67487,8.6543939 V 7.8780318 h 1.461311 1.461312 l 0.04199,0.5393673 c 0.02309,0.296652 0.04216,0.722206 0.04238,0.9456756 l 3.92e-4,0.4063081 -1.541338,0.018648 -1.541339,0.018648 z"
     id="path98" />
  <path
     style="fill:#252322;fill-opacity:1;stroke:#252322;stroke-width:0.214;stroke-dasharray:none;stroke-opacity:1"
     d="M 69.333218,8.8260107 V 7.8780318 h 1.634446 1.634446 v 0.9479789 0.947979 h -1.634446 -1.634446 z"
     id="path99" />
  <path
     style="fill:#252322;fill-opacity:1;stroke:#252322;stroke-width:0.114;stroke-dasharray:none;stroke-opacity:1"
     d="m 69.333218,14.873463 v -0.980668 h 1.634446 1.634446 v 0.980668 0.980667 h -1.634446 -1.634446 z"
     id="path100" />
  <path
     style="fill:#252322;fill-opacity:1;stroke:#252322;stroke-width:0.00745308;stroke-dasharray:none;stroke-opacity:1"
     d="m 64.282778,15.870671 c 0.440483,-0.01131 1.161274,-0.01131 1.601758,0 0.440483,0.01131 0.08009,0.02056 -0.800879,0.02056 -0.880967,0 -1.241362,-0.0093 -0.800879,-0.02056 z"
     id="path101" />
  <path
     style="fill:#252322;fill-opacity:1;stroke:#252322;stroke-width:0.207;stroke-dasharray:none;stroke-opacity:1"
     d="m 63.50198,15.036788 -0.02008,-0.817342 1.585413,1.19e-4 1.585413,1.19e-4 v 0.817223 0.817223 h -1.565332 -1.565332 z"
     id="path102" />
  <path
     style="fill:#252322;fill-opacity:1;stroke:#252322;stroke-width:0.214;stroke-dasharray:none;stroke-opacity:1"
     d="m 63.474905,9.5398201 c 0.02183,-0.056878 0.03968,-0.4540482 0.03968,-0.8826011 V 7.8780318 h 1.569069 1.569068 v 0.8826011 0.882601 H 65.04397 c -1.440111,0 -1.604592,-0.010841 -1.569068,-0.1034138 z"
     id="path103" />
  <path
     style="fill:#252322;fill-opacity:1;stroke:#252322;stroke-width:0.00989303;stroke-dasharray:none;stroke-opacity:1"
     d="M 57.439689,8.8528777 V 7.882066 h 1.664249 1.664248 v 0.9708117 0.9708116 h -1.664248 -1.664249 z"
     id="path104" />
  <path
     style="fill:#252322;fill-opacity:1;stroke:#252322;stroke-width:0.21;stroke-dasharray:none;stroke-opacity:1"
     d="m 57.439689,14.908893 v -0.970811 h 1.664249 1.664248 v 0.970811 0.970812 h -1.664248 -1.664249 z"
     id="path105" />
  <path
     style="fill:#252322;fill-opacity:1;stroke:#252322;stroke-width:0.21;stroke-dasharray:none;stroke-opacity:1"
     d="M 57.439689,8.8528777 V 7.882066 h 1.664249 1.664248 v 0.9708117 0.9708116 h -1.664248 -1.664249 z"
     id="path106" />
  <path
     style="fill:#252322;fill-opacity:1;stroke:#252322;stroke-width:0.21;stroke-dasharray:none;stroke-opacity:1"
     d="M 50.227946,8.8528777 V 7.882066 h 2.242112 2.242113 v 0.9708117 0.9708116 h -2.242113 -2.242112 z"
     id="path107" />
  <path
     style="fill:#252322;fill-opacity:1;stroke:#252322;stroke-width:0.21;stroke-dasharray:none;stroke-opacity:1"
     d="m 50.227946,14.908893 v -0.970811 h 2.242112 2.242113 v 0.970811 0.970812 h -2.242113 -2.242112 z"
     id="path108" />
  <path
     style="fill:#252322;fill-opacity:1;stroke:#252322;stroke-width:0.000820312;stroke-dasharray:none;stroke-opacity:1"
     d="m 50.230453,11.880859 c 0,-1.075293 4.47e-4,-1.515185 9.92e-4,-0.977539 5.46e-4,0.537647 5.46e-4,1.417432 0,1.955078 -5.45e-4,0.537647 -9.92e-4,0.09775 -9.92e-4,-0.977539 z"
     id="path109" />
  <path
     style="fill:#252322;fill-opacity:1;stroke:#252322;stroke-width:0.301;stroke-dasharray:none;stroke-opacity:1"
     d="M 50.201172,11.880859 V 9.9316406 h 0.01367 0.01367 v 1.9492184 1.949219 h -0.01367 -0.01367 z"
     id="path110" />
  <path
     style="fill:#252322;fill-opacity:1;stroke:#252322;stroke-width:0.219;stroke-dasharray:none;stroke-opacity:1"
     d="m 112.66752,14.515625 c 0.006,-0.661719 0.0218,-1.069531 0.0347,-0.90625 l 0.0234,0.296875 h 1.74657 1.74658 v 0.90625 0.90625 h -1.78125 -1.78125 z"
     id="path111" />
  <path
     style="fill:#252322;fill-opacity:1;stroke:#252322;stroke-width:0.214;stroke-dasharray:none;stroke-opacity:1"
     d="m 118.59369,14.828125 -6e-5,-0.890625 1.34381,0.01799 1.34381,0.01799 v 0.872632 0.872632 h -1.34375 -1.34375 z"
     id="path112" />
  <path
     style="fill:#252322;fill-opacity:1;stroke:#252322;stroke-width:0.213;stroke-dasharray:none;stroke-opacity:1"
     d="M 112.65625,8.875 V 7.96875 h -1.15449 -1.15448 l -0.0174,0.859375 -0.0174,0.859375 -0.48438,0.018254 -0.48437,0.018254 V 8.815129 7.90625 h 5.96875 5.96875 V 8.8125 9.71875 h -1.34375 -1.34375 v -0.875 -0.875 h -1.1875 -1.1875 V 8.875 9.78125 h -1.78125 -1.78125 z"
     id="path113" />
  <path
     style="fill:#252322;fill-opacity:1;stroke:#252322;stroke-width:0.207;stroke-dasharray:none;stroke-opacity:1"
     d="m 109.32812,14.8125 v -0.890625 h 0.5 0.5 v 0.890625 0.890625 h -0.5 -0.5 z"
     id="path114" />
  <path
     style="fill:#191817;fill-opacity:1;stroke:#191817;stroke-width:0.413;stroke-dasharray:none;stroke-opacity:1"
     d="m 110.4475,14.271129 c -0.052,-1.905285 -0.052,-3.303638 8e-5,-4.911754 l 0.041,-1.265625 h 1.02133 1.02133 V 9 c 0,0.4984375 0.024,0.90625 0.0533,0.90625 0.0293,0 0.0683,0.792663 0.0867,1.761474 0.0276,1.452279 0.0182,1.776699 -0.0533,1.848214 -0.0674,0.06735 -0.0867,0.330228 -0.0867,1.176026 V 15.78125 H 111.51 110.48874 Z"
     id="path115" />
  <path
     style="fill:#191817;fill-opacity:1;stroke:#191817;stroke-width:0.226;stroke-dasharray:none;stroke-opacity:1"
     d="m 116.34375,14.78125 c 0,-0.625 -0.0234,-1 -0.0625,-1 -0.0403,0 -0.0625,-0.6875 -0.0625,-1.9375 0,-1.25 0.0222,-1.9375 0.0625,-1.9375 0.0388,0 0.0625,-0.34375 0.0625,-0.90625 V 8.09375 h 1.05256 1.05256 l 0.0412,1.3225773 c 0.0521,1.6721757 0.0521,2.9466217 -6e-5,4.8548017 l -0.0412,1.510121 h -1.05251 -1.0525 z"
     id="path116" />
</svg>
