<?xml version="1.0" encoding="UTF-8" standalone="no"?>
<svg
   width="110"
   height="110"
   viewBox="0 0 110 110"
   fill="none"
   version="1.1"
   id="svg83"
   sodipodi:docname="mcx_spear.svg"
   inkscape:version="1.3.2 (091e20e, 2023-11-25, custom)"
   xmlns:inkscape="http://www.inkscape.org/namespaces/inkscape"
   xmlns:sodipodi="http://sodipodi.sourceforge.net/DTD/sodipodi-0.dtd"
   xmlns="http://www.w3.org/2000/svg"
   xmlns:svg="http://www.w3.org/2000/svg">
  <sodipodi:namedview
     id="namedview85"
     pagecolor="#505050"
     bordercolor="#ffffff"
     borderopacity="1"
     inkscape:pageshadow="0"
     inkscape:pageopacity="0"
     inkscape:pagecheckerboard="1"
     showgrid="false"
     inkscape:zoom="1.9795455"
     inkscape:cx="96.991963"
     inkscape:cy="31.572905"
     inkscape:window-width="1920"
     inkscape:window-height="1017"
     inkscape:window-x="-8"
     inkscape:window-y="-8"
     inkscape:window-maximized="1"
     inkscape:current-layer="svg83"
     inkscape:showpageshadow="2"
     inkscape:deskcolor="#d1d1d1" />
  <g
     clip-path="url(#clip0_619_1195)"
     id="g76"
     transform="matrix(1.0071511,0,0,1.0071511,-0.34305294,3.8448582)">
    <path
       fill-rule="evenodd"
       clip-rule="evenodd"
       d="m 22.6539,60.7986 2.3429,4.5746 c 0.4337,-0.399 1.2352,-0.9708 2.1065,-1.4126 0.4558,-0.2311 0.9379,-0.4304 1.4028,-0.5501 0.462,-0.119 0.9252,-0.1642 1.334,-0.0678 1.416,0.3338 2.149,0.336 2.3423,0.2965 l 8.0925,-4.6722 -0.4071,-0.7052 0.3187,-0.9212 2.8772,-1.6612 1.0822,0.2552 1.0128,1.7542 1.3374,-0.7721 c 0.0799,-0.035 0.2182,-0.0753 0.3533,-0.0661 0.143,0.0096 0.3154,0.0725 0.4202,0.2541 l 1.277,2.2118 -0.463,1.0477 0.2747,0.1173 0.6173,-1.6783 -1.9079,-3.3046 11.0847,-6.3998 0.4691,0.8124 c 0.2455,-0.2787 0.5426,-0.5746 0.8991,-0.877 l -0.0786,-0.136 2.4822,-1.4331 -3.7888,-6.5624 13.8049,-7.9703 0.4062,-1.7306 1.3941,-0.8049 c 0.0468,0.0182 0.1096,0.0454 0.1772,0.0791 l 16.0864,-9.2875 -0.4711,-0.8161 0.34,-0.1963 -0.4185,0.0603 -63.7203,36.7889 0.4831,1.3079 c -0.5427,0.2378 -1.7569,0.9146 -2.2715,1.7194 z m 4.0585,-0.6658 c 0.0511,-0.7911 -0.5239,-1.0122 -0.8178,-1.0239 -0.6591,0.3503 -1.9604,1.159 -1.8922,1.5912 0.0681,0.4321 0.4558,0.6586 0.6412,0.7179 0.6072,-0.3355 1.845,-1.029 1.9381,-1.119 0.0931,-0.09 0.1259,-0.1483 0.1307,-0.1662 z"
       fill="#c1995b"
       id="path2" />
    <path
       d="m 56.5869,70.8944 -5.5612,-6.9648 -0.2939,-0.3681 3.807,-5.8032 3.6328,-3.0013 1.158,0.884 8.0787,9.9287 -0.8284,0.6615 -0.441,-0.5523 c -0.1176,-0.1473 -0.286,-0.1066 -0.3556,-0.0678 l -8.376,6.6882 -1.0045,-1.258 z"
       fill="#585450"
       id="path4" />
    <path
       fill-rule="evenodd"
       clip-rule="evenodd"
       d="m 57.9085,59.2094 -1.5776,-1.9757 1.8409,-1.4699 1.4,1.7533 0.6691,-0.6807 0.6976,0.6334 -0.7749,0.7885 1.9071,2.3884 0.6691,-0.6808 0.6976,0.6334 -0.7749,0.7885 3.2019,4.01 -1.8409,1.4699 -3.0243,-3.7876 -2.4673,2.5103 2.7609,3.4577 -0.7363,0.588 -2.6899,-3.3688 -2.6903,2.7371 -0.6976,-0.6334 2.7961,-2.8448 -1.9071,-2.3885 -2.6903,2.7372 -0.6976,-0.6334 2.7961,-2.8449 -1.912,-2.3945 0.7364,-0.588 1.841,2.3056 z m 0.5918,0.7412 -2.4673,2.5102 1.9071,2.3884 2.4673,-2.5102 z"
       fill="#383633"
       stroke="#363430"
       stroke-width="0.501008"
       stroke-miterlimit="3.99393"
       id="path6" />
    <path
       d="m 57.3803,72.2687 c 0.2858,0.4628 0.8311,1.0408 1.1762,1.2213 0.3452,0.1805 1.3264,-0.5764 1.8434,-1.041 l 6.9498,-5.8798 c 0.1486,-0.1705 0.3501,-0.6312 0.0762,-0.9742 l -0.0402,-0.0092 -0.8083,0.6455 -0.441,-0.5523 c -0.1176,-0.1473 -0.286,-0.1066 -0.3556,-0.0678 l -8.376,6.6881 z"
       fill="#585450"
       stroke="#363430"
       stroke-width="1.00202"
       stroke-miterlimit="3.99393"
       id="path8" />
    <path
       d="m 56.5869,70.8944 -5.5612,-6.9648 -0.2939,-0.3681 3.807,-5.8032 3.6328,-3.0013 1.158,0.884 8.0787,9.9287 -0.8284,0.6615 -0.441,-0.5523 c -0.1176,-0.1473 -0.286,-0.1066 -0.3556,-0.0678 l -8.376,6.6882 -1.0045,-1.258 z"
       stroke="#363430"
       stroke-width="1.00202"
       stroke-miterlimit="3.99393"
       id="path10" />
    <path
       d="m 104.809,16.9935 -3.128,1.8061 0.078,0.136 -43.9305,25.3635 1.2957,2.2441 43.9308,-25.3635 0.118,0.204 3.128,-1.806 -0.078,-0.1361 2.652,-1.5312 -0.393,-0.68 -2.652,1.5312 -0.55,-0.9521 2.652,-1.5312 -0.392,-0.68 -2.652,1.5312 z"
       fill="#56524e"
       stroke="#363330"
       stroke-width="1.00202"
       stroke-miterlimit="3.99393"
       id="path12" />
    <path
       d="m 21.9197,65.8922 -0.884,0.5104 -2.022,-3.5022 c 0.6528,-0.3769 1.4979,-0.4417 1.8389,-0.427 0.5886,-0.6365 0.6779,-0.8485 0.7792,-1.0846 l 0.8161,-0.4712 3.3569,5.8144 -1.8701,1.0797 z"
       fill="#56534e"
       stroke="#363430"
       stroke-width="1.00202"
       stroke-miterlimit="3.99393"
       id="path14" />
    <path
       d="M 0.844026,73.6283 C 0.793977,72.9802 1.34131,72.742 1.8366,72.4561 L 2.71637,71.9482 11.9902,84.7289 9.68926,86.0573 7.50965,84.1576 C 5.24073,81.0352 0.916138,74.5621 0.844026,73.6283 Z"
       fill="#423e38"
       stroke="#37342f"
       stroke-width="1.00202"
       stroke-miterlimit="3.99393"
       id="path16" />
    <path
       fill-rule="evenodd"
       clip-rule="evenodd"
       d="m 21.262,67.4965 0.7762,3.5868 -9.3241,7.4687 -0.0636,5.7945 -1.4241,0.8221 L 8.6813,83.6005 4.46484,77.1943 Z M 8.61387,77.1564 C 8.48376,76.931 8.19562,76.8538 7.97027,76.9839 7.74493,77.114 7.6677,77.4022 7.79782,77.6275 l 2.15943,3.7403 c 0.13015,0.2253 0.41825,0.3025 0.64365,0.1724 0.2253,-0.1301 0.3025,-0.4182 0.1724,-0.6436 z"
       fill="#be9453"
       id="path18" />
    <path
       fill-rule="evenodd"
       clip-rule="evenodd"
       d="M 8.61218,77.1566 C 8.48206,76.9312 8.19392,76.854 7.96857,76.9842 7.74323,77.1143 7.66601,77.4024 7.79612,77.6278 l 2.15944,3.7402 c 0.13014,0.2254 0.41824,0.3026 0.64364,0.1725 0.2253,-0.1301 0.3025,-0.4183 0.1724,-0.6436 z"
       stroke="#4a381c"
       stroke-width="0.501008"
       stroke-miterlimit="3.99393"
       id="path20" />
    <path
       d="M 20.5058,72.0953 18.8254,73.709 16.666,69.9688 18.625,68.8377 Z"
       fill="#7e5f30"
       stroke="#4a381c"
       stroke-width="0.501008"
       stroke-miterlimit="3.99393"
       id="path22" />
    <path
       d="m 23.5586,58.2822 1.4961,-0.8637 0.157,0.272 1.1561,-0.6675 0.4712,0.8161 -1.4961,0.8637 -0.1571,-0.272 -1.1561,0.6675 z"
       fill="#585450"
       stroke="#363330"
       stroke-width="0.5"
       stroke-miterlimit="3.99393"
       id="path24" />
    <path
       d="M 44.4077,62.2016 44.3081,61.715 c -0.6454,-0.5945 -1.7442,-1.2779 -0.9755,0.7446 0.9609,2.5281 1.8818,2.6311 2.1983,2.6297 0.2532,-0.0011 0.2642,-0.0921 0.238,-0.1374 -1.4484,-0.687 -1.511,-2.1198 -1.3612,-2.7503 z"
       fill="#433f3d"
       stroke="#363330"
       stroke-width="0.501008"
       stroke-miterlimit="3.99393"
       id="path26" />
    <path
       d="m 28.0749,61.4771 -1.8937,-3.123 -0.449,-1.3275 63.6862,-36.7692 0.4525,-0.08 0.4319,0.7481 -16.3891,9.4622 -1.6033,0.8351 -0.3526,1.745 -15.4371,8.9126 2.7996,5.3201 0.4112,1.576 -1.1298,1.1057 c -0.3968,-0.7502 -1.3676,-0.903 -1.7713,-0.7908 l -12.6148,7.2832 -9.8267,5.6734 c -3.2171,1.9662 -5.5498,0.4386 -6.314,-0.5709 z"
       fill="#c8a56e"
       stroke="#4a381c"
       stroke-width="0.5"
       stroke-miterlimit="3.99393"
       id="path28" />
    <path
       d="m 55.0465,41.2815 -0.7611,2.9221 -23.6147,13.634 0.5152,-2.7801 z"
       fill="#c1995b"
       stroke="#4a381c"
       stroke-width="0.5"
       stroke-miterlimit="3.99393"
       id="path30" />
    <path
       fill-rule="evenodd"
       clip-rule="evenodd"
       d="m 25.5015,66.3619 -0.3877,-0.757 -0.1729,-0.1809 c 0.4186,-0.4002 1.2517,-1.0025 2.1608,-1.4634 0.4557,-0.2311 0.9378,-0.4304 1.4027,-0.5502 0.4621,-0.119 0.9253,-0.1641 1.334,-0.0678 1.416,0.3338 2.1491,0.336 2.3423,0.2965 l 8.0926,-4.6722 -0.4072,-0.7052 0.3187,-0.9212 2.8773,-1.6612 1.0821,0.2552 1.0128,1.7542 1.3374,-0.7721 c 0.0799,-0.035 0.2182,-0.0753 0.3533,-0.0661 0.143,0.0097 0.3154,0.0725 0.4203,0.2542 l 1.2769,2.2117 -0.463,1.0477 0.2747,0.1173 0.6173,-1.6783 -1.9079,-3.3046 11.0847,-6.3998 0.4908,0.8501 c 0.0651,0.1126 0.0265,0.2567 -0.0862,0.3218 -0.0747,0.0431 -0.1633,0.0407 -0.2334,0.0012 -0.4652,0.6034 -0.6741,1.0888 -0.725,1.3228 l 1.6687,2.8901 0.3218,0.0863 0.53,0.918 -9.3642,7.8093 -0.2643,0.1526 c -1.1707,0.9893 -3.0815,2.5045 -3.2979,2.6294 -0.1122,0.0648 -0.7736,0.3444 -1.5677,0.6802 -0.8502,0.3594 -1.8524,0.7832 -2.4957,1.0765 l -2.2659,-2.9534 -1.0756,0.6209 -0.4122,-0.714 -2.2782,1.3153 -4.8357,0.0264 c -0.0955,0.0702 -0.4195,0.2784 -0.9521,0.5496 -0.5325,0.2712 -1.6266,0.3498 -2.1071,0.3552 z m 23.111,-5.5149 -1.0624,-0.4827 c -0.2323,-0.0349 -0.4312,-0.0117 -0.5597,0.0288 l -4.5954,2.6531 c -0.4084,0.3985 -0.3,0.8821 -0.1751,1.0985 0.226,0.4438 0.7662,1.4527 1.119,1.9381 0.3528,0.4855 0.9956,0.468 1.2728,0.3986 0.5493,-0.2265 1.7635,-0.7462 2.226,-1.0131 0.578,-0.3338 2.3538,-1.8124 2.601,-2.0911 0.1628,-0.1837 0.2771,-0.4481 0.3337,-0.6155 C 49.5212,62.3035 49.2,61.6978 48.8401,61.1792 48.7813,61.0944 48.6743,60.9172 48.6125,60.847 Z"
       fill="#bd9351"
       id="path32" />
    <path
       fill-rule="evenodd"
       clip-rule="evenodd"
       d="m 25.5015,66.3619 -0.3877,-0.757 -0.1729,-0.1809 c 0.4186,-0.4002 1.2517,-1.0025 2.1608,-1.4634 0.4557,-0.2311 0.9378,-0.4304 1.4027,-0.5502 0.4621,-0.119 0.9253,-0.1641 1.334,-0.0678 1.416,0.3338 2.1491,0.336 2.3423,0.2965 l 8.0926,-4.6722 -0.4072,-0.7052 0.3187,-0.9212 2.8773,-1.6612 1.0821,0.2552 1.0128,1.7542 1.3374,-0.7721 c 0.0799,-0.035 0.2182,-0.0753 0.3533,-0.0661 0.143,0.0097 0.3154,0.0725 0.4203,0.2542 l 1.2769,2.2117 -0.463,1.0477 0.2747,0.1173 0.6173,-1.6783 -1.9079,-3.3046 11.0847,-6.3998 0.4908,0.8501 c 0.0651,0.1126 0.0265,0.2567 -0.0862,0.3218 -0.0747,0.0431 -0.1633,0.0407 -0.2334,0.0012 -0.4652,0.6034 -0.6741,1.0888 -0.725,1.3228 l 1.6687,2.8901 0.3218,0.0863 0.53,0.918 -9.3642,7.8093 -0.2643,0.1526 c -1.1707,0.9893 -3.0815,2.5045 -3.2979,2.6294 -0.1122,0.0648 -0.7736,0.3444 -1.5677,0.6802 -0.8502,0.3594 -1.8524,0.7832 -2.4957,1.0765 l -2.2659,-2.9534 -1.0756,0.6209 -0.4122,-0.714 -2.2782,1.3153 -4.8357,0.0264 c -0.0955,0.0702 -0.4195,0.2784 -0.9521,0.5496 -0.5325,0.2712 -1.6266,0.3498 -2.1071,0.3552 z m 23.111,-5.5149 -1.0624,-0.4827 c -0.2323,-0.0349 -0.4312,-0.0117 -0.5597,0.0288 l -4.5954,2.6531 c -0.4084,0.3985 -0.3,0.8821 -0.1751,1.0985 0.226,0.4438 0.7662,1.4527 1.119,1.9381 0.3528,0.4855 0.9956,0.468 1.2728,0.3986 0.5493,-0.2265 1.7635,-0.7462 2.226,-1.0131 0.578,-0.3338 2.3538,-1.8124 2.601,-2.0911 0.1628,-0.1837 0.2771,-0.4481 0.3337,-0.6155 C 49.5212,62.3035 49.2,61.6978 48.8401,61.1792 48.7813,61.0944 48.6743,60.9172 48.6125,60.847 Z"
       stroke="#4a381c"
       stroke-width="0.501008"
       stroke-miterlimit="3.99393"
       id="path34" />
    <path
       d="m 46.9525,57.4234 c -0.5409,0.1309 -0.9734,0.4864 -1.122,0.6478 l 1.1778,2.0401 c 0.0959,0.0353 0.3626,0.0627 0.6619,-0.1101 0.2992,-0.1727 0.3791,-0.5211 0.3817,-0.6737 z"
       fill="#433f3d"
       stroke="#363330"
       stroke-width="0.501008"
       stroke-miterlimit="3.99393"
       id="path36" />
    <path
       d="m 39.4886,57.6072 -1.972,1.1385 -1.335,-2.3121 1.972,-1.1385 0.0589,0.1019 1.9723,-1.1386 c 8.5355,-3.6223 4.3155,-0.1946 1.1386,1.9721 l -1.9723,1.1387 z"
       fill="#c8a56e"
       stroke="#4a381c"
       stroke-width="1.00202"
       stroke-miterlimit="3.99393"
       id="path38" />
    <path
       d="m 34.7791,57.7372 1.3065,-0.7543 0.8649,1.498 -1.3065,0.7543 c -0.0272,0.2578 -0.2236,0.7102 -0.7919,0.4572 -0.5684,-0.2529 -0.8134,-1.1041 -0.8649,-1.4981 0.0335,-0.1857 0.2388,-0.5373 0.7919,-0.4571 z"
       fill="#56524e"
       stroke="#363330"
       stroke-width="1.00202"
       stroke-miterlimit="3.99393"
       id="path40" />
    <path
       fill-rule="evenodd"
       clip-rule="evenodd"
       d="m 92.6868,20.1834 -2.3802,1.3742 1.1387,1.9721 2.3801,-1.3741 z m -0.706,1.133 -0.884,0.5104 0.5104,0.8841 0.884,-0.5104 z"
       fill="#585450"
       stroke="#363330"
       stroke-width="0.5"
       stroke-miterlimit="3.99393"
       id="path42" />
    <path
       d="m 54.582,47.3154 3.3323,-1.9238 0.66,1.1433 -3.3322,1.9238 z"
       fill="#b98c46"
       stroke="#4a381c"
       stroke-width="0.501008"
       stroke-miterlimit="3.99393"
       id="path44" />
    <path
       d="m 39.5146,52.4696 1.9042,-1.0993 c 0.272,-0.1571 0.8415,0.1488 1.0923,0.3214 l 0.8522,2.1828 c -0.8488,0.4145 -2.5599,1.2513 -2.6143,1.2827 -0.0544,0.0314 -0.1788,-0.0479 -0.2342,-0.0915 l -1.1779,-2.0401 c -0.1256,-0.2176 0.0662,-0.4614 0.1777,-0.556 z"
       fill="#bb8f4a"
       stroke="#4a381c"
       stroke-width="1.00202"
       stroke-miterlimit="3.99393"
       id="path46" />
    <path
       d="M 55.2085,48.3962 43.8518,54.953 42.3205,52.3008 c -0.1884,-0.3264 0.114,-0.6401 0.2888,-0.7561 3.1897,-1.8567 9.6886,-5.63 10.1667,-5.8698 0.4782,-0.2397 0.9179,0.1502 1.078,0.3751 z"
       fill="#585450"
       stroke="#363330"
       stroke-width="1.00202"
       stroke-miterlimit="3.99393"
       id="path48" />
    <path
       d="m 47.7386,50.5336 -0.8245,-1.4281 1.7681,-1.0209 c 0.2307,0.426 0.7423,1.2859 0.8245,1.4281 0.0821,0.1423 0.0565,0.3301 -0.081,0.4095 l -1.2921,0.746 c -0.1904,0.1099 -0.3427,-0.044 -0.395,-0.1346 z"
       fill="#5d5955"
       stroke="#353331"
       stroke-width="0.501008"
       stroke-miterlimit="3.99393"
       id="path50" />
    <path
       d="m 47.918,51.79 0.2552,0.4421 2.4481,-1.4135 -0.2552,-0.442 z"
       fill="#5d5955"
       stroke="#353331"
       stroke-width="0.501008"
       stroke-miterlimit="3.99393"
       id="path52" />
    <path
       d="m 15.3208,70.2455 1.7681,-1.0208 0.746,1.2921 -4.7011,4.0289 -3.33218,1.9239 z"
       fill="#c8a56e"
       stroke="#4a381c"
       stroke-width="1.00202"
       stroke-miterlimit="3.99393"
       id="path54" />
    <path
       d="m 9.46329,75.6506 c -0.3454,0.1995 -0.46374,0.6411 -0.26432,0.9865 0.19941,0.3454 0.64108,0.4638 0.98643,0.2643 l 3.0645,-1.7692 c 0.3454,-0.1994 0.4638,-0.6411 0.2644,-0.9865 -0.1995,-0.3454 -0.6411,-0.4638 -0.9865,-0.2643 z"
       fill="#896734"
       stroke="#4a381c"
       stroke-width="0.501008"
       stroke-miterlimit="3.99393"
       stroke-linecap="round"
       id="path56" />
    <path
       d="M 18.961,62.5695 1.75586,72.5029 4.22939,76.7872 21.4345,66.8538 Z"
       fill="#c8a56e"
       stroke="#4a381c"
       stroke-width="1.00202"
       stroke-miterlimit="3.99393"
       id="path58" />
    <path
       d="m 25.5047,66.3624 -2.8494,-5.5634 1.2921,-0.746 c 0.5146,-0.8048 1.7287,-1.4816 2.2715,-1.7194 l -0.4831,-1.3079 45.7671,-26.4236 1.8701,-1.0797 16.083,-9.2856 0.4186,-0.0603 -0.34,0.1963 0.4711,0.8161 -16.0865,9.2875 c -0.0675,-0.0337 -0.1303,-0.0609 -0.1771,-0.0791 l -1.3941,0.8049 -0.4062,1.7306 -13.8049,7.9703 3.7888,6.5624 -2.4822,1.4331 0.0785,0.136 c -1.339,1.1358 -1.8392,2.1802 -1.9219,2.5604 l 1.6686,2.8902 0.3218,0.0863 0.5301,0.918 -9.3643,7.8093 -0.2643,0.1526 c -1.1707,0.9893 -3.0815,2.5045 -3.2978,2.6294 -0.1123,0.0648 -0.7736,0.3444 -1.5677,0.6802 -0.8502,0.3594 -1.8525,0.7832 -2.4958,1.0765 l -2.2658,-2.9535 -1.0756,0.621 -0.4123,-0.714 -2.2781,1.3153 -4.8358,0.0264 c -0.0954,0.0702 -0.4195,0.2784 -0.952,0.5496 -0.5326,0.2712 -1.6267,0.3498 -2.1071,0.3552 z"
       stroke="#4a381c"
       stroke-width="1.00202"
       stroke-miterlimit="3.99393"
       id="path60" />
    <path
       fill-rule="evenodd"
       clip-rule="evenodd"
       d="M 49.7756,62.7623 C 49.5244,62.3041 49.198,61.7514 48.8381,61.2329 48.1912,60.3007 47.3388,60.2851 46.9936,60.3937 l -4.5954,2.6532 c -0.4084,0.3984 -0.3001,0.882 -0.1751,1.0985 0.226,0.4437 0.7662,1.4527 1.119,1.9381 0.3528,0.4854 0.9955,0.4679 1.2728,0.3985 0.5493,-0.2264 1.7635,-0.7461 2.2259,-1.0131 0.5781,-0.3337 2.3539,-1.8124 2.601,-2.0911 0.1629,-0.1837 0.2772,-0.448 0.3338,-0.6155 z M 26.7139,60.1334 c 0.051,-0.7911 -0.5239,-1.0123 -0.8178,-1.0239 -0.6591,0.3503 -1.9604,1.159 -1.8922,1.5911 0.0681,0.4322 0.4558,0.6587 0.6411,0.7179 0.6073,-0.3354 1.8451,-1.0289 1.9382,-1.1189 0.0931,-0.0901 0.1259,-0.1483 0.1307,-0.1662 z"
       stroke="#453721"
       stroke-width="0.501008"
       stroke-miterlimit="3.99393"
       id="path62" />
    <path
       d="m 33.1198,67.2252 -1.2052,-1.6164 c 2.221,-1.6812 4.3552,-0.4138 5.1446,0.43 0.8661,-0.5152 2.6908,-1.5898 3.0602,-1.7668 0.3693,-0.1769 0.9631,0.124 1.2139,0.2966 l 1.865,3.2302 c -0.2607,0.1505 -0.8077,0.6113 -0.91,1.2507 -0.1024,0.6394 1.52,5.5904 2.3439,7.9861 l 0.8581,0.2299 c 0.2042,0.3536 -0.1161,0.8982 -0.3017,1.1263 -1.3601,0.7853 -6.274,1.8542 -6.7515,1.8125 -0.3819,-0.0334 -0.4783,-0.2528 -0.4788,-0.3583 L 37.6911,78.9122 C 36.1579,74.9373 36.226,70.3281 36.4517,68.5204 35.5075,67.3246 33.837,67.1586 33.1198,67.2252 Z"
       fill="#a1865b"
       stroke="#413625"
       stroke-width="1.00202"
       stroke-miterlimit="3.99393"
       stroke-linecap="round"
       id="path64" />
    <path
       d="m 30.0357,66.285 c 0.4883,-0.2818 0.6556,-0.9062 0.3737,-1.3944 -0.2819,-0.4883 -0.9062,-0.6556 -1.3945,-0.3737 -0.4882,0.2819 -0.6555,0.9063 -0.3736,1.3945 0.2819,0.4883 0.9062,0.6555 1.3944,0.3736 z"
       fill="#433f3d"
       stroke="#353231"
       stroke-width="0.501008"
       stroke-miterlimit="3.99393"
       id="path66" />
    <path
       d="m 35.5475,63.7362 c 0.4882,-0.2819 0.6555,-0.9062 0.3736,-1.3944 -0.2819,-0.4883 -0.9062,-0.6556 -1.3945,-0.3737 -0.4882,0.2819 -0.6555,0.9062 -0.3736,1.3945 0.2819,0.4882 0.9062,0.6555 1.3945,0.3736 z"
       fill="#433f3d"
       stroke="#353231"
       stroke-width="0.501008"
       stroke-miterlimit="3.99393"
       id="path68" />
    <path
       d="m 39.2241,63.7439 c 0.3806,-0.2197 0.5661,-0.6475 0.496,-1.0567 l 0.3537,-0.6126 h -0.7074 c -0.3193,-0.2653 -0.7826,-0.3185 -1.1631,-0.0988 -0.3934,0.2271 -0.5784,0.6765 -0.4881,1.0979 l -0.8975,0.5181 c -0.0992,0.2795 -0.1847,0.5205 0.3534,0.6121 l 0.9226,-0.5327 c 0.3177,0.2425 0.7626,0.285 1.1304,0.0727 z"
       fill="#433f3d"
       stroke="#353231"
       stroke-width="0.501008"
       stroke-miterlimit="3.99393"
       id="path70" />
    <path
       fill-rule="evenodd"
       clip-rule="evenodd"
       d="m 59.5015,48.9998 c 0.1583,0.1957 0.5498,0.5439 0.849,0.3712 l 4.8963,-2.8269 c 0.0596,-0.4727 0.3563,-1.5658 1.0667,-2.1573 l 28.0518,-16.1957 -0.427,-1.839 -4.0647,-6.1765 -17.9872,10.3849 0.3927,0.6801 -0.4403,1.7503 -14.893,8.5984 c -0.3593,-0.125 -1.1139,-0.1547 -1.2581,0.7264 l 1.9043,3.2982 0.633,-0.0028 0.5497,0.9521 -0.1815,0.7848 z"
       fill="#cbaa76"
       stroke="#4a381c"
       stroke-width="1.00202"
       stroke-miterlimit="3.99393"
       id="path72" />
    <path
       d="m 22.0382,71.0833 -0.7762,-3.5868 -16.79716,9.6978 4.21646,6.4062 2.5452,1.5683 1.4241,-0.8222 0.0635,-5.7946 z"
       stroke="#4a381c"
       stroke-width="1.00202"
       stroke-miterlimit="3.99393"
       id="path74" />
  </g>
  <defs
     id="defs81">
    <clipPath
       id="clip0_619_1195">
      <rect
         width="110"
         height="110"
         fill="#ffffff"
         transform="translate(0.0859375)"
         id="rect78"
         x="0"
         y="0" />
    </clipPath>
  </defs>
  <rect
     style="fill:#585450;fill-opacity:1;stroke:#585450;stroke-width:0.279;stroke-dasharray:none;stroke-opacity:1"
     id="rect15"
     width="24.290052"
     height="17.681728"
     x="-61.439541"
     y="18.217539" />
  <path
     style="fill:#585450;fill-opacity:1;stroke:#585450;stroke-width:0.35;stroke-dasharray:none;stroke-opacity:1"
     d="m 59.746441,52.248587 c -0.19846,-0.389014 -0.360837,-0.962222 -0.360837,-1.273794 0,-0.69769 -0.635262,-1.769578 -1.048753,-1.769578 -0.192852,0 -0.612609,-0.525989 -1.140252,-1.428827 -0.786301,-1.345419 -0.811864,-1.428826 -0.437911,-1.428826 0.218425,0 3.852489,-1.994644 8.075698,-4.432543 l 7.678562,-4.432544 0.302028,-1.116986 c 0.166116,-0.614343 0.26404,-1.215983 0.21761,-1.336978 -0.05295,-0.137977 3.02232,-2.014203 8.248978,-5.032717 4.583368,-2.646999 8.43162,-4.836378 8.551672,-4.865286 0.30088,-0.07245 3.849707,5.357557 4.033198,6.171139 0.08166,0.362075 0.132824,0.66628 0.113694,0.676009 -1.860743,0.946406 -27.726866,16.025719 -28.115419,16.390597 -0.316649,0.297358 -0.68272,0.86163 -0.81349,1.25394 -0.217661,0.652984 -0.425686,0.823461 -2.46053,2.016405 -1.222521,0.716713 -2.281412,1.306304 -2.353089,1.310201 -0.07168,0.0039 -0.292699,-0.311198 -0.491159,-0.700212 z"
     id="path15" />
  <path
     style="fill:#272624;fill-opacity:1;stroke:#272624;stroke-width:0.205394;stroke-dasharray:none;stroke-opacity:1"
     d="m 49.987371,67.31986 c 0.08119,-0.261294 -0.0994,-0.702848 -0.611508,-1.495181 l -0.726724,-1.124383 0.303878,-0.845054 0.303877,-0.845054 -0.923665,-1.569346 c -0.508015,-0.86314 -0.901408,-1.590802 -0.874205,-1.617028 0.204301,-0.196964 10.590841,-6.119963 10.642081,-6.068723 0.03617,0.03617 -0.142247,0.420717 -0.396487,0.854545 -0.254239,0.433827 -0.462254,0.934561 -0.462254,1.112741 0,0.442407 1.558782,3.144745 2.030219,3.519631 0.246303,0.195861 0.317806,0.359953 0.202323,0.464312 -0.09823,0.08877 -2.147705,1.793464 -4.554385,3.788211 -2.40668,1.994747 -4.527113,3.754908 -4.712074,3.91147 -0.31453,0.266237 -0.328836,0.260663 -0.221076,-0.08614 z"
     id="path27" />
  <path
     style="fill:#272624;fill-opacity:1;stroke:#272624;stroke-width:0.205394;stroke-dasharray:none;stroke-opacity:1"
     d="m 27.020261,70.495861 c -1.087564,-0.19758 -1.401254,-0.324598 -1.489676,-0.603192 -0.134735,-0.424513 0.132011,-0.653737 1.646298,-1.414719 1.181479,-0.593734 1.753959,-0.660702 3.687615,-0.431374 1.089324,0.129192 1.291905,0.10179 1.939893,-0.2624 l 0.723547,-0.406656 0.397803,0.498892 c 0.75631,0.948503 2.241431,0.475738 2.241431,-0.713524 0,-0.30894 -0.09979,-0.661502 -0.221761,-0.783471 -0.263469,-0.263469 -0.418196,-0.148929 2.365001,-1.750741 1.129666,-0.650156 2.087087,-1.211394 2.127602,-1.247195 0.04051,-0.0358 -0.01436,-0.258273 -0.121933,-0.494381 -0.330395,-0.725138 -0.07686,-1.088196 1.311566,-1.878152 1.735225,-0.987269 2.117325,-0.94801 2.838105,0.291604 0.437977,0.753239 0.610993,0.912155 0.899491,0.826179 0.196464,-0.05855 0.303469,-0.04943 0.237789,0.02027 -0.06568,0.0697 0.155342,0.595526 0.491159,1.168511 0.335818,0.572984 0.610577,1.07749 0.610577,1.121124 0,0.04363 -1.002548,0.656506 -2.227887,1.361938 -2.406841,1.385628 -2.828673,1.784553 -2.649241,2.50538 0.09974,0.40068 0.07885,0.429302 -0.166131,0.227568 -0.154121,-0.126916 -0.537901,-0.304659 -0.852843,-0.394983 -0.597743,-0.171431 -1.432789,0.15071 -3.070395,1.184485 L 37.071828,69.74173 36.422933,69.301378 C 35.635223,68.766823 34.854068,68.604336 33.579896,68.71 c -1.195926,0.09918 -2.490767,0.867358 -2.327753,1.380971 0.07924,0.249662 -0.02622,0.374564 -0.437226,0.517842 -0.505506,0.176221 -0.76187,0.0074 -0.363051,-0.239105 0.307352,-0.189954 0.195056,-1.144468 -0.178603,-1.518128 -0.758881,-0.75888 -2.14324,-0.205137 -2.14324,0.857296 0,0.275049 0.09511,0.595196 0.211347,0.711437 0.332431,0.332431 0.150232,0.34285 -1.321109,0.07555 z m 11.46026,-2.085224 c 0.830341,-0.05836 1.437321,-0.542541 1.437321,-1.146533 0,-0.163724 0.117948,-0.466073 0.262106,-0.671888 0.251178,-0.358607 0.2307,-0.379574 -0.491159,-0.502893 -0.414296,-0.07078 -0.938793,-0.129406 -1.16555,-0.130286 -0.511087,-0.002 -1.105843,0.514021 -1.105843,0.959417 0,0.183345 -0.194117,0.4218 -0.431371,0.5299 -0.849563,0.387086 -0.632577,1.359302 0.252767,1.132539 0.24558,-0.0629 0.804358,-0.139516 1.241729,-0.170256 z"
     id="path29" />
  <path
     style="fill:#272624;fill-opacity:1;stroke:#272624;stroke-width:0.0726177;stroke-dasharray:none;stroke-opacity:1"
     d="M 9.8415144,88.338651 8.7588038,87.673758 6.8224108,84.730839 C 5.7573946,83.112234 4.9090805,81.765854 4.9372683,81.738884 c 0.1253503,-0.119935 6.2221127,-3.602847 6.2528687,-3.572091 0.01893,0.01893 -0.10419,0.191972 -0.273608,0.38453 -0.226651,0.257609 -0.541595,0.490315 -1.1920743,0.8808 -0.9825769,0.589844 -1.1293385,0.750551 -1.1293385,1.236649 0,0.543546 0.3413739,0.895196 0.905459,0.932715 l 0.3501711,0.02329 1.7049367,-0.98349 c 0.937715,-0.540919 1.768051,-1.060925 1.84519,-1.155569 0.07714,-0.09464 0.157424,-0.250257 0.17841,-0.345807 0.02831,-0.128904 0.486247,-0.558326 1.774886,-1.664375 0.955201,-0.819856 1.751037,-1.476341 1.768523,-1.458854 0.01749,0.01749 0.254249,0.416344 0.52614,0.886351 l 0.494346,0.854557 -3.078473,2.471392 -3.078474,2.471391 -0.04151,1.841547 c -0.02283,1.01285 -0.04156,2.316238 -0.04162,2.896418 l -1.16e-4,1.054872 -0.429907,0.255403 c -0.236449,0.140472 -0.45667,0.255296 -0.48938,0.255166 -0.03271,-1.31e-4 -0.546693,-0.29944 -1.1421836,-0.66513 z m 0.7610846,-2.299017 c 0.15782,-0.15782 0.194969,-0.246643 0.193431,-0.46249 C 10.79443,85.347096 10.632457,85.030495 9.6301649,83.297749 8.9454686,82.114058 8.4022861,81.24363 8.3109732,81.1838 7.9344,80.937059 7.3941524,81.137107 7.2465228,81.577954 c -0.1048391,0.313067 -0.1030415,0.316935 1.2010544,2.584294 0.7847281,1.364363 1.1401739,1.924419 1.2768775,2.011903 0.2696076,0.172536 0.6256273,0.117999 0.8781443,-0.134517 z"
     id="path31" />
  <path
     style="fill:#272624;fill-opacity:1;stroke:#272624;stroke-width:0.0726177;stroke-dasharray:none;stroke-opacity:1"
     d="m 19.665985,74.84478 c -0.362503,-0.629203 -0.667199,-1.163373 -0.677102,-1.187043 -0.02131,-0.05094 1.683599,-1.037302 1.723678,-0.997223 0.0151,0.0151 0.129383,0.494702 0.253968,1.065787 0.124585,0.571086 0.250053,1.144253 0.278817,1.273704 0.05195,0.233803 0.04951,0.237606 -0.366903,0.572187 -0.23056,0.185251 -0.449387,0.354769 -0.486281,0.376707 -0.03927,0.02335 -0.340283,-0.434315 -0.726177,-1.104119 z"
     id="path33" />
  <path
     style="fill:#585450;fill-opacity:1;stroke:#585450;stroke-width:0.205394;stroke-dasharray:none;stroke-opacity:1"
     d="m 29.938721,66.798046 c -0.429578,-0.133983 -1.018093,-0.470186 -1.307813,-0.747118 -0.575448,-0.550046 -2.133712,-3.008326 -1.994912,-3.147126 0.04737,-0.04737 -0.0337,-0.372918 -0.180161,-0.723442 -0.265365,-0.635106 -0.264318,-0.638512 0.302093,-0.982629 0.312609,-0.189921 8.685901,-5.025937 18.607315,-10.746698 9.921415,-5.720762 19.827091,-11.438165 22.012613,-12.70534 2.185523,-1.267175 4.103381,-2.353727 4.261909,-2.41456 0.244039,-0.09365 0.268786,-0.0175 0.161399,0.496669 -0.06976,0.334002 -0.25963,0.735908 -0.421938,0.893126 -0.162308,0.157217 -2.786621,1.714765 -5.831807,3.461217 -3.045187,1.746452 -6.179675,3.556689 -6.96553,4.022751 -0.785854,0.466061 -1.72791,0.900916 -2.093456,0.966345 -0.377083,0.06749 -0.789466,0.289735 -0.953177,0.513688 -0.282756,0.386804 -0.286099,0.382806 -0.166603,-0.199131 l 0.121945,-0.593859 -0.877275,0.504557 c -0.4825,0.277506 -6.03016,3.478303 -12.328134,7.11288 l -11.45086,6.608323 -0.292711,1.58037 c -0.16099,0.869201 -0.25047,1.622607 -0.198844,1.674234 0.05163,0.05163 1.978789,-0.992277 4.282583,-2.319787 3.023045,-1.741959 4.242894,-2.359475 4.383395,-2.218975 0.357967,0.357968 0.200444,0.674876 -0.475086,0.955785 -1.216825,0.506001 -3.080907,1.679238 -3.080907,1.939095 0,0.267742 -0.870996,0.800423 -1.308786,0.800423 -0.708911,0 -0.91527,1.202456 -0.365948,2.132382 0.359165,0.608018 1.239333,1.052094 1.586285,0.800338 0.124586,-0.0904 0.520647,-0.397757 0.880136,-0.683009 0.488363,-0.387514 0.704975,-0.467284 0.856749,-0.31551 0.151775,0.151775 0.483689,0.04624 1.312793,-0.417425 0.848394,-0.474449 1.131819,-0.562811 1.203776,-0.375294 0.06481,0.168889 -0.895315,0.811201 -3.083233,2.062645 -4.097246,2.343544 -4.898581,2.594432 -6.59581,2.065075 z"
     id="path35" />
  <path
     style="fill:#585450;fill-opacity:1;stroke:#585450;stroke-width:0.102697;stroke-dasharray:none;stroke-opacity:1"
     d="m 37.213304,61.611869 c -0.210482,-0.368668 -0.36116,-0.705149 -0.33484,-0.747736 0.07687,-0.124376 0.876789,-0.570629 1.022867,-0.570629 0.07339,0 0.537033,-0.23473 1.030321,-0.521621 0.824537,-0.479544 0.905562,-0.508959 1.004411,-0.364649 0.356213,0.520039 0.685137,0.592695 1.288865,0.284696 0.199266,-0.101658 0.378434,-0.168701 0.398151,-0.148984 0.06114,0.06114 -0.673426,0.544307 -1.863307,1.22561 -0.851744,0.487692 -1.129137,0.68915 -1.095938,0.795928 0.03181,0.102315 -0.105533,0.225484 -0.483048,0.433194 -0.290123,0.159626 -0.540387,0.28894 -0.556142,0.287363 -0.01576,-0.0016 -0.200858,-0.304504 -0.41134,-0.673172 z"
     id="path37" />
  <path
     style="fill:#585450;fill-opacity:1;stroke:#585450;stroke-width:0.0363088;stroke-dasharray:none;stroke-opacity:1"
     d="m 44.348505,60.075899 c -0.05822,-0.113787 -0.07292,-0.121732 -0.338539,-0.182955 l -0.277674,-0.064 2.587069,-1.493765 c 1.422887,-0.821571 4.167974,-2.405356 6.100192,-3.519522 2.535904,-1.462267 3.509625,-2.038931 3.500548,-2.073117 -0.0069,-0.02605 -0.01786,-0.06687 -0.02432,-0.09071 -0.0077,-0.02855 0.381793,-0.272093 1.140669,-0.713185 0.633826,-0.368408 1.156257,-0.667097 1.160959,-0.663753 0.0047,0.0033 -0.0073,0.07986 -0.02661,0.170035 l -0.03516,0.163956 0.33088,0.606295 c 0.181983,0.333462 0.366097,0.677334 0.409141,0.764159 l 0.07826,0.157865 -0.172108,0.155363 c -0.137305,0.123947 -0.178009,0.146293 -0.201292,0.110505 -0.01605,-0.02467 -0.07947,-0.133657 -0.140925,-0.242189 -0.06146,-0.108531 -0.119973,-0.19733 -0.130033,-0.19733 -0.01006,0 -0.0928,0.04263 -0.183873,0.09474 -0.161405,0.09235 -0.168928,0.09356 -0.298275,0.04792 -0.07298,-0.02575 -0.251364,-0.06397 -0.396405,-0.08495 -0.505081,-0.07303 0.05076,-0.366218 -6.759904,3.565631 -3.366954,1.943766 -6.153234,3.550735 -6.191734,3.571043 -0.06367,0.03358 -0.07551,0.02616 -0.130864,-0.08203 z"
     id="path39" />
  <path
     style="fill:#585450;fill-opacity:1;stroke:#585450;stroke-width:0.145235;stroke-dasharray:none;stroke-opacity:1"
     d="m 54.641327,50.495551 c -0.253238,-0.493888 -0.653129,-0.917985 -1.079021,-1.144339 -0.210319,-0.111781 -0.165373,-0.165939 0.387406,-0.466798 l 0.625329,-0.340347 0.302826,-1.223813 c 0.180992,-0.731444 0.321434,-1.104822 0.349076,-0.928052 0.02544,0.162668 0.439431,0.971297 0.919986,1.796953 0.480555,0.825656 0.873737,1.528317 0.873737,1.56147 0,0.06548 -1.632426,1.037622 -1.941585,1.156258 -0.129332,0.04963 -0.268402,-0.08105 -0.437754,-0.411332 z"
     id="path41" />
  <path
     style="fill:#272624;fill-opacity:1;stroke:#272624;stroke-width:0.145235;stroke-dasharray:none;stroke-opacity:1"
     d="m 30.922714,61.361096 c 0.03901,-0.129774 0.13401,-0.607848 0.211122,-1.06239 l 0.140202,-0.826435 11.641633,-6.720502 c 6.402899,-3.696275 11.658252,-6.670645 11.678563,-6.60971 0.06349,0.190483 -0.468562,1.957013 -0.635383,2.109598 -0.08724,0.0798 -2.772858,1.648718 -5.968036,3.486495 -4.928388,2.83467 -5.886025,3.341708 -6.314581,3.343364 -0.6844,0.0026 -2.682216,1.175183 -2.857102,1.676863 -0.09601,0.275407 -0.850822,0.764404 -3.925834,2.543302 -2.093836,1.211285 -3.859743,2.223269 -3.924238,2.248852 -0.0645,0.02558 -0.08535,-0.05966 -0.04635,-0.189437 z"
     id="path43" />
  <path
     style="fill:#272624;fill-opacity:1;stroke:#272624;stroke-width:0.145235;stroke-dasharray:none;stroke-opacity:1"
     d="M 3.1572905,78.853621 C 2.6710677,78.006093 2.2565154,77.245151 2.236063,77.162638 2.2156106,77.080126 2.7270916,76.708762 3.3726875,76.337386 4.676327,75.587472 10.794201,72.054819 15.307382,69.445918 c 1.61194,-0.931803 3.010866,-1.724911 3.108723,-1.762463 0.206461,-0.07923 2.183368,3.210851 2.016997,3.356796 C 20.232695,71.216056 4.4253729,80.29709 4.236137,80.345128 4.098982,80.379945 3.7797103,79.938552 3.1572905,78.853621 Z"
     id="path45" />
  <path
     style="fill:#272624;fill-opacity:1;stroke:#272624;stroke-width:0.145235;stroke-dasharray:none;stroke-opacity:1"
     d="m 24.120412,67.188765 c -0.529547,-1.006283 -0.927238,-1.887167 -0.883758,-1.95752 0.13358,-0.216136 0.376726,-0.142397 0.507796,0.153999 0.06857,0.155053 0.2643,0.350859 0.434964,0.435126 0.273459,0.135023 0.413208,0.09781 1.177125,-0.313487 0.476756,-0.256684 1.004265,-0.591278 1.172243,-0.74354 l 0.305414,-0.276841 0.551838,0.845153 c 0.656541,1.005508 0.95372,1.291372 1.770872,1.703443 l 0.615,0.310131 -0.804437,0.05164 c -0.844694,0.05422 -2.00112,0.51295 -3.151889,1.250283 -0.318653,0.204171 -0.613791,0.37122 -0.655862,0.37122 -0.04207,0 -0.509759,-0.823322 -1.039306,-1.829605 z"
     id="path47" />
  <path
     style="fill:#272624;fill-opacity:1;stroke:#272624;stroke-width:0.145235;stroke-dasharray:none;stroke-opacity:1"
     d="m 40.293076,58.024233 c -0.246438,-0.420484 -0.44807,-0.81339 -0.44807,-0.873124 0,-0.09251 1.692924,-1.140776 1.842322,-1.140776 0.02863,0 0.05205,0.123275 0.05205,0.273945 0,0.150669 0.174221,0.582648 0.387159,0.959952 0.212937,0.377304 0.369223,0.701943 0.347302,0.72142 -0.07536,0.06696 -1.611339,0.823099 -1.671997,0.823099 -0.03338,0 -0.262329,-0.344032 -0.508768,-0.764516 z"
     id="path49" />
  <path
     style="fill:#272624;fill-opacity:1;stroke:#272624;stroke-width:0.0363088;stroke-dasharray:none;stroke-opacity:1"
     d="m 48.61783,63.188051 c -0.01791,-0.02323 -0.292114,-0.493496 -0.609336,-1.045029 -0.618281,-1.074967 -0.699462,-1.180367 -0.966797,-1.255216 -0.192994,-0.05403 -0.503271,-0.02481 -0.677815,0.06384 -0.07763,0.03943 -0.357365,0.197604 -0.621628,0.351497 -0.264263,0.153893 -0.491588,0.279347 -0.505167,0.278787 -0.02522,-10e-4 -0.523861,-0.860451 -0.537213,-0.925889 -0.0082,-0.04028 12.197132,-7.093736 12.344435,-7.133832 0.05139,-0.01399 0.138136,-0.02109 0.192763,-0.01579 0.08714,0.0085 0.01415,0.05861 -0.595281,0.408911 -0.382032,0.219594 -1.511553,0.871169 -2.510046,1.447944 -0.998493,0.576775 -3.072833,1.773902 -4.609644,2.660284 -1.536811,0.886381 -2.797978,1.614372 -2.802593,1.617756 -0.0046,0.0034 0.439437,0.78123 0.986783,1.728543 0.813558,1.408058 0.990514,1.734983 0.969641,1.791409 -0.02033,0.05496 -0.03217,0.06041 -0.0581,0.02678 z"
     id="path51" />
  <path
     style="fill:#272624;fill-opacity:1;stroke:#272624;stroke-width:0.0726177;stroke-dasharray:none;stroke-opacity:1"
     d="m 55.405991,51.83492 c -0.109195,-0.190853 -0.182695,-0.362847 -0.163333,-0.382208 0.01936,-0.01936 0.486025,-0.294728 1.03703,-0.611926 0.984425,-0.566704 1.008104,-0.576343 1.363249,-0.554948 0.301465,0.01816 0.378344,0.0476 0.463419,0.177438 0.08742,0.133414 0.08932,0.167562 0.01332,0.238896 -0.04877,0.04578 -0.634632,0.397448 -1.301912,0.781492 l -1.213236,0.698261 z"
     id="path53" />
  <path
     style="fill:#272624;fill-opacity:1;stroke:#272624;stroke-width:0.102697;stroke-dasharray:none;stroke-opacity:1"
     d="M 37.96928,82.815697 C 37.455636,81.217279 37.232032,80.27807 37.008002,78.778019 36.799758,77.383661 36.697543,74.623397 36.812431,73.496662 l 0.08181,-0.802319 -0.383709,-0.410216 c -0.21104,-0.225619 -0.58261,-0.518472 -0.825712,-0.650784 -0.488474,-0.265861 -1.658735,-0.593872 -2.118786,-0.593872 -0.253722,0 -0.347926,-0.0696 -0.667994,-0.493527 -0.204938,-0.271439 -0.352528,-0.513614 -0.327976,-0.538165 0.02455,-0.02455 0.281345,-0.128234 0.570651,-0.230405 1.068178,-0.377236 2.382028,-0.06028 3.361616,0.81095 l 0.424457,0.377508 1.450877,-0.844687 c 2.034361,-1.184386 1.936998,-1.141288 2.26588,-1.003003 0.221392,0.09309 0.427705,0.38117 1.047543,1.462717 0.424519,0.740739 0.771853,1.367631 0.771853,1.393092 0,0.02546 -0.139001,0.228394 -0.308891,0.450963 -0.169891,0.222569 -0.336355,0.551056 -0.369919,0.72997 -0.115578,0.616081 0.245326,2.015282 1.591554,6.170356 l 0.818353,2.525813 0.388973,0.09794 c 0.789125,0.198705 0.302655,0.54752 -1.539609,1.103954 -1.289128,0.389366 -3.470622,0.907116 -4.161556,0.987694 l -0.500188,0.05833 z"
     id="path55" />
  <path
     style="fill:#272624;fill-opacity:1;stroke:#272624;stroke-width:0.0513485;stroke-dasharray:none;stroke-opacity:1"
     d="m 42.58433,70.116772 c -0.424394,-0.739339 -0.765973,-1.349085 -0.759064,-1.354989 0.0069,-0.0059 0.05275,-0.0222 0.101864,-0.03622 0.07679,-0.02191 0.141422,0.06956 0.461405,0.653053 0.46548,0.848804 0.782166,1.308682 1.012072,1.469683 0.09908,0.06939 0.32206,0.158687 0.500811,0.200569 l 0.322208,0.0755 -0.389184,0.168016 c -0.214051,0.09241 -0.409277,0.168158 -0.433835,0.168331 -0.02456,1.72e-4 -0.391883,-0.604601 -0.816277,-1.343941 z"
     id="path57" />
  <path
     style="fill:#272624;fill-opacity:1;stroke:#272624;stroke-width:0.0363088;stroke-dasharray:none;stroke-opacity:1"
     d="m 18.025837,76.558823 c -0.276581,-0.48055 -0.502875,-0.89007 -0.502875,-0.910045 0,-0.02587 0.639435,-0.603923 0.734501,-0.663993 0.0046,-0.0029 -0.08481,-0.165499 -0.198638,-0.361347 -0.11383,-0.195849 -0.202822,-0.359409 -0.197762,-0.363468 0.05469,-0.04386 0.626569,-0.363586 0.65034,-0.363586 0.02416,0 1.188119,1.973851 1.391167,2.359146 0.03484,0.06612 -0.0024,0.10165 -0.654175,0.623565 -0.380118,0.3044 -0.697549,0.553454 -0.705403,0.553454 -0.0079,0 -0.240573,-0.393177 -0.517155,-0.873726 z"
     id="path59" />
  <path
     style="fill:#272624;fill-opacity:1;stroke:#272624;stroke-width:0.0363088;stroke-dasharray:none;stroke-opacity:1"
     d="M 9.2949963,81.054911 C 9.0329664,80.879863 9.0066698,80.527749 9.239968,80.318074 c 0.040721,-0.0366 0.783686,-0.47555 1.651033,-0.975449 1.7296,-0.996862 1.735006,-0.999237 1.971864,-0.866115 0.135986,0.07643 0.255677,0.267611 0.255677,0.408393 0,0.12236 -0.11826,0.326702 -0.231074,0.399273 -0.13283,0.08545 -2.9696811,1.720889 -3.1061928,1.790717 -0.1468048,0.07509 -0.356881,0.06646 -0.4862789,-0.01998 z"
     id="path61" />
  <path
     style="fill:#272624;fill-opacity:1;stroke:#272624;stroke-width:0.0363088;stroke-dasharray:none;stroke-opacity:1"
     d="m 12.998003,77.969496 c -0.07498,-0.02847 -0.132741,-0.06503 -0.128361,-0.08124 0.0044,-0.01621 0.297769,-0.356962 0.651976,-0.757225 l 0.644012,-0.727752 1.246836,-0.719674 c 0.685759,-0.395821 1.253116,-0.713393 1.260792,-0.705717 0.01229,0.01229 -3.362438,2.923004 -3.489253,3.009493 -0.03659,0.02495 -0.0856,0.02024 -0.186002,-0.01789 z"
     id="path63" />
  <path
     style="fill:#363430;fill-opacity:1;stroke:#363430;stroke-width:0.607;stroke-dasharray:none;stroke-opacity:1"
     d="m 37.806562,84.924499 c -0.202095,-0.109791 -0.307327,-0.349504 -0.73348,-1.67083 -0.990886,-3.072335 -1.24787,-4.703382 -1.256782,-7.976694 L 35.81,72.950808 35.555962,72.740406 c -0.443756,-0.367532 -1.281231,-0.647363 -2.08806,-0.6977 L 32.725633,71.9964 32.407184,71.562587 c -0.175146,-0.238598 -0.330607,-0.433815 -0.345467,-0.433815 -0.01486,0 -0.29226,0.124122 -0.616444,0.275826 -0.436183,0.204114 -0.81607,0.300761 -1.461179,0.371739 -0.818443,0.09005 -0.96459,0.0789 -2.389881,-0.182355 -0.83497,-0.153048 -1.723958,-0.304733 -1.975527,-0.337077 -0.251569,-0.03234 -0.497205,-0.08445 -0.545858,-0.115795 -0.146872,-0.09462 -3.252336,-6.168936 -3.19843,-6.256158 0.02751,-0.04451 0.349997,-0.245563 0.716646,-0.446791 0.389405,-0.213719 0.902382,-0.602782 1.233524,-0.935559 0.311791,-0.313329 0.795236,-0.698558 1.074323,-0.856065 0.533362,-0.301011 0.565647,-0.350895 0.412407,-0.637227 -0.05226,-0.09765 -0.14782,-0.352983 -0.212349,-0.567396 l -0.117325,-0.389842 3.449534,-1.988457 c 1.897244,-1.09365 4.9565,-2.859686 6.798347,-3.924523 1.841847,-1.064836 10.120111,-5.845239 18.396142,-10.623116 8.276031,-4.777878 18.945347,-10.937444 23.709591,-13.687926 4.764243,-2.750481 9.464136,-5.463321 10.444207,-6.028534 0.980069,-0.565212 1.904342,-1.05713 2.053938,-1.093151 0.149595,-0.03602 0.332271,-0.08885 0.405945,-0.11739 0.09789,-0.03793 0.460543,0.446105 1.347157,1.798066 0.667262,1.017481 1.649078,2.511614 2.181811,3.320296 l 0.968606,1.47033 0.258167,1.15012 c 0.141991,0.632565 0.245192,1.161194 0.229334,1.17473 -0.01586,0.01354 -6.418367,3.711049 -14.227797,8.216695 -7.80943,4.505647 -14.285329,8.271459 -14.390886,8.368474 -0.2371,0.217912 -0.643812,1.10729 -0.727861,1.591655 l -0.06253,0.36038 -2.634399,1.520905 c -2.403352,1.387514 -2.665728,1.517909 -2.991606,1.486756 -0.196464,-0.01878 -0.422516,-0.06345 -0.502341,-0.09927 -0.108188,-0.04854 -0.26864,0.08368 -0.630305,0.519398 -0.266844,0.321483 -0.570822,0.736911 -0.675507,0.923171 l -0.190335,0.338656 0.762314,1.314648 c 0.419273,0.723057 0.818196,1.314648 0.886496,1.314648 0.12047,0 0.283401,0.227175 0.773711,1.078789 l 0.235494,0.409027 -0.627741,0.528641 c -0.345257,0.290752 -0.734765,0.620558 -0.865573,0.732902 -0.130808,0.112344 -0.735609,0.614666 -1.344003,1.116271 -0.608393,0.501604 -1.607229,1.333959 -2.219634,1.849676 -0.612404,0.515717 -1.485325,1.239061 -1.939822,1.60743 -0.454497,0.36837 -1.264021,1.039071 -1.798942,1.490448 -0.534919,0.451377 -1.334253,1.102266 -1.776296,1.446419 -0.442043,0.344154 -1.257656,0.98266 -1.812474,1.418902 -0.906988,0.713148 -1.154745,0.855001 -2.455796,1.406059 -2.459147,1.041568 -2.889406,1.266239 -3.110726,1.624341 -0.184857,0.299106 -0.190425,0.354162 -0.08744,0.864745 0.153277,0.759953 0.805599,2.96752 1.536525,5.199864 l 0.617594,1.886213 0.405629,0.113568 c 0.42877,0.120048 0.665721,0.412758 0.66399,0.820234 -0.0014,0.32173 -0.407689,1.114051 -0.654118,1.275517 -0.377171,0.247132 -1.904561,0.755885 -3.497536,1.164983 -2.595032,0.666439 -3.589336,0.796179 -4.075917,0.531835 z m 1.798724,-0.946973 c 0.270138,-0.05167 1.05376,-0.23203 1.741383,-0.400798 3.027049,-0.74295 4.292211,-1.370356 3.339129,-1.655906 -0.424166,-0.127084 -0.468255,-0.17871 -0.636757,-0.745613 -0.07299,-0.245579 -0.462659,-1.471245 -0.865923,-2.7237 -0.958008,-2.975379 -1.370499,-4.565679 -1.322217,-5.097622 0.02442,-0.269051 0.133923,-0.549942 0.319593,-0.819806 0.155345,-0.225785 0.28223,-0.48365 0.281968,-0.573033 -4.44e-4,-0.151085 -0.85512,-1.709199 -1.34645,-2.454639 -0.257755,-0.391065 -0.541396,-0.542553 -0.868406,-0.463802 -0.132254,0.03185 -0.934337,0.458058 -1.782407,0.947129 l -1.541944,0.88922 -0.353074,-0.318981 c -0.421405,-0.380713 -1.293736,-0.836552 -1.762548,-0.921021 -0.604263,-0.108876 -1.310001,-0.06722 -1.788344,0.105544 -0.520483,0.187988 -0.559423,0.287019 -0.275539,0.700726 0.323236,0.471054 0.614147,0.683548 0.935798,0.683548 0.163679,0 0.67759,0.121722 1.142023,0.270494 0.636173,0.203784 0.966565,0.369988 1.339678,0.673923 0.272389,0.221886 0.529821,0.471883 0.57207,0.555547 0.04323,0.0856 0.04055,0.542611 -0.0061,1.045134 -0.173704,1.870274 0.153224,5.429115 0.687403,7.482854 0.217433,0.835962 0.825957,2.798945 0.913364,2.946344 0.04341,0.07321 0.444148,0.03382 1.277322,-0.125542 z M 43.8631,71.289436 c 0.163114,-0.05898 0.296571,-0.132993 0.296571,-0.164468 0,-0.03147 -0.152366,-0.102876 -0.33859,-0.15867 -0.440194,-0.131886 -0.694971,-0.412323 -1.312745,-1.444955 -0.38147,-0.637641 -0.519429,-0.961336 -0.555417,-1.303177 -0.04519,-0.429261 -0.03015,-0.472547 0.267833,-0.770526 0.355589,-0.355589 1.012053,-0.788565 2.994018,-1.974727 1.993816,-1.193255 1.95435,-1.17512 2.335848,-1.073292 0.288025,0.07688 0.342244,0.06372 0.477795,-0.115987 0.345917,-0.458593 0.304722,-0.671147 -0.352402,-1.818296 -0.33772,-0.58956 -0.682076,-1.093669 -0.765235,-1.120244 -0.152701,-0.0488 -0.721122,0.200664 -1.157461,0.507967 -0.472474,0.332754 -0.64957,0.243046 -1.212997,-0.614447 -0.282383,-0.429765 -0.535999,-0.81128 -0.56359,-0.847813 -0.02759,-0.03653 -0.242047,-0.10227 -0.476566,-0.146084 -0.395404,-0.07387 -0.479426,-0.05376 -1.155993,0.276723 -1.373026,0.670676 -2.159611,1.297358 -2.233641,1.779569 -0.01774,0.115585 0.02692,0.38412 0.09925,0.596745 0.07398,0.217463 0.09749,0.418358 0.05374,0.4592 -0.04278,0.03993 -0.961863,0.582536 -2.042413,1.205781 -1.08055,0.623244 -2.085194,1.221847 -2.232542,1.330228 -0.260985,0.191968 -0.279438,0.1933 -0.714413,0.05156 l -0.446508,-0.145497 0.379393,-0.194525 c 0.648528,-0.332516 2.068204,-1.159224 3.33965,-1.944748 l 1.218597,-0.752874 -0.09153,-0.298244 -0.09153,-0.298245 -1.011045,0.524568 c -0.936394,0.485837 -1.347424,0.613713 -1.495781,0.465355 -0.03257,-0.03257 0.06038,-0.131943 0.20655,-0.220834 L 37.54771,62.917858 36.912414,61.821493 C 36.563,61.218492 36.24663,60.691248 36.209367,60.649838 c -0.03726,-0.04141 -0.168789,-0.0091 -0.292282,0.07183 -0.329786,0.216085 -0.380564,0.01692 -0.06367,-0.249728 0.381633,-0.321123 1.673074,-1.088909 2.433382,-1.44669 1.121754,-0.527869 1.245764,-0.729822 0.784007,-1.27678 l -0.175858,-0.208308 -0.694124,0.37905 c -0.381768,0.208477 -1.919789,1.069352 -3.417824,1.913055 -1.498036,0.843703 -3.075326,1.724535 -3.50509,1.957404 l -0.78139,0.4234 v -0.305999 c 0,-0.32686 0.410569,-2.649249 0.480764,-2.719443 0.06772,-0.06772 24.294522,-14.036816 24.311742,-14.01807 0.03726,0.04056 -0.235839,1.29959 -0.353672,1.630495 -0.07113,0.199755 -0.198018,0.671937 -0.281972,1.049295 -0.08396,0.377356 -0.181113,0.686103 -0.215909,0.686103 -0.0348,0 -0.302016,0.145901 -0.593822,0.324223 -0.291806,0.178322 -0.698855,0.376579 -0.904553,0.440571 -0.675518,0.21015 -10.502275,5.911455 -10.882892,6.314054 -0.150031,0.158697 -0.431331,0.361878 -0.625111,0.451516 -0.485598,0.224622 -1.644639,0.980996 -1.646049,1.074188 -0.0019,0.127827 0.611212,1.247508 0.825023,1.506593 l 0.200793,0.243311 0.873658,-0.437766 0.873657,-0.437766 0.20293,0.328408 c 0.625833,1.0128 0.68085,1.141805 0.544918,1.277735 -0.113586,0.113587 -0.06243,0.144796 0.408612,0.249297 0.296147,0.0657 0.572192,0.179747 0.61343,0.253437 0.06051,0.108123 1.218823,-0.525969 6.001347,-3.285298 3.259502,-1.880604 6.128255,-3.511131 6.375009,-3.623393 0.390271,-0.177557 0.503122,-0.19235 0.867361,-0.113702 0.284781,0.06149 0.473542,0.06107 0.590111,-0.0013 0.14149,-0.07572 0.188851,-0.05341 0.271455,0.127886 0.120799,0.265124 0.205186,0.27445 0.412322,0.04557 0.151802,-0.167738 0.142394,-0.201774 -0.259588,-0.939222 -0.279189,-0.51218 -0.398518,-0.823715 -0.360905,-0.942224 0.03091,-0.09738 0.03673,-0.177049 0.01293,-0.177049 -0.02379,0 -0.572785,0.307702 -1.219981,0.683781 -0.940458,0.546492 -1.19269,0.658554 -1.256263,0.558136 -0.14705,-0.232279 -0.08218,-0.302725 0.650239,-0.706107 0.401307,-0.221021 0.980199,-0.5626 1.286427,-0.759064 0.543017,-0.348378 0.553033,-0.361805 0.405251,-0.543251 -0.326763,-0.4012 -0.907845,-0.221983 -2.509617,0.774013 -0.392607,0.244126 -0.399661,0.245065 -0.522594,0.06955 -0.06854,-0.09785 -0.110469,-0.190226 -0.09318,-0.205275 0.01729,-0.01505 0.312734,-0.186859 0.656545,-0.3818 1.252415,-0.710119 1.477319,-0.869135 1.425761,-1.00807 -0.02735,-0.0737 -0.411717,-0.784708 -0.854152,-1.580022 -0.442436,-0.795314 -0.826292,-1.580761 -0.853016,-1.745439 -0.04287,-0.26417 -0.0063,-0.337653 0.311018,-0.624295 0.319344,-0.288508 0.825176,-0.513443 1.157842,-0.514873 0.171961,-7.39e-4 0.986521,-0.456636 6.656502,-3.725536 7.480042,-4.31245 8.018739,-4.643562 8.206517,-5.044168 0.249325,-0.531909 0.333283,-1.024079 0.204695,-1.199935 -0.101592,-0.138935 -0.192216,-0.107059 -1.0391,0.365486 -1.473239,0.822039 -44.047033,25.398639 -44.411593,25.637507 -0.264391,0.173236 -0.298033,0.478765 -0.104043,0.944883 0.06893,0.165625 0.150423,0.460261 0.181094,0.654747 0.0916,0.580851 1.393826,2.639448 2.055435,3.249297 1.252351,1.154377 3.04988,1.302757 4.910184,0.405317 0.242731,-0.117097 0.451517,-0.212904 0.46397,-0.212904 0.01245,0 -0.03501,0.110511 -0.105464,0.245579 -0.07046,0.135069 -0.128354,0.356091 -0.128657,0.491159 -3.03e-4,0.135069 -0.04772,0.24558 -0.105373,0.24558 -0.05765,0 -0.432658,0.16787 -0.833347,0.373044 l -0.728523,0.373044 -1.438254,-0.119267 c -1.100822,-0.09129 -1.580046,-0.09577 -2.042631,-0.01912 -0.957093,0.158595 -3.068175,1.252435 -3.068175,1.589748 0,0.07421 -0.04019,0.110097 -0.0893,0.07974 -0.111912,-0.06917 -0.111406,-0.04541 0.0062,0.292005 0.0607,0.174138 0.207211,0.327008 0.401965,0.419425 0.388196,0.184211 2.02039,0.498304 2.495975,0.480315 0.198238,-0.0075 0.447067,0.03273 0.552951,0.0894 0.247325,0.132364 0.786301,0.132366 1.033622,5e-6 0.10588,-0.05667 0.328131,-0.09793 0.493891,-0.0917 0.39416,0.01482 0.909288,-0.204112 0.909288,-0.386449 0,-0.07908 0.03438,-0.122531 0.0764,-0.09656 0.04202,0.02597 0.05716,-0.05344 0.03364,-0.176462 -0.05615,-0.293702 0.163331,-0.529244 0.786537,-0.844114 0.656525,-0.331704 1.448144,-0.47782 2.295385,-0.42368 0.84247,0.05384 1.27759,0.201529 2.021368,0.68612 l 0.569362,0.370953 0.792346,-0.499141 c 1.577713,-0.993887 2.368293,-1.272413 3.038846,-1.070607 0.600663,0.180773 0.941208,0.495483 1.318429,1.218407 0.482845,0.925346 1.100268,1.862767 1.226893,1.862767 0.0589,0 0.240544,-0.04826 0.403658,-0.107241 z m 1.248651,-0.996148 c 1.526906,-0.653675 1.973568,-0.934272 3.405357,-2.139272 0.407396,-0.342866 0.795897,-0.728035 0.863335,-0.855931 0.135697,-0.257348 0.13415,-0.261003 -0.597609,-1.411697 -0.276627,-0.434997 -0.450364,-0.602898 -0.808551,-0.781389 -0.250919,-0.125039 -0.541018,-0.227343 -0.644664,-0.227343 -0.144903,0 -2.522534,1.326181 -4.799703,2.677151 -0.286517,0.16998 -0.192582,0.650506 0.300892,1.539229 0.617237,1.111614 0.692831,1.218881 0.962125,1.36525 0.347283,0.188759 0.54965,0.163286 1.318818,-0.165998 z M 25.991858,68.62526 c 1.784945,-1.078157 2.944191,-1.336927 4.627984,-1.033071 1.041569,0.187961 1.320918,0.18069 1.702255,-0.0443 0.174713,-0.103083 0.31766,-0.200308 0.31766,-0.216056 0,-0.01575 -0.150697,0.01298 -0.334881,0.06385 -0.184185,0.05086 -0.777929,0.07552 -1.319431,0.0548 -0.963816,-0.03688 -0.999303,-0.04582 -1.685224,-0.424457 -0.949159,-0.523948 -1.217244,-0.779023 -1.888152,-1.796524 l -0.574898,-0.871891 -0.271732,0.253835 c -0.392923,0.367045 -1.657025,1.075013 -2.026544,1.134977 -0.284313,0.04614 -0.349993,0.0146 -0.653,-0.313553 -0.18529,-0.200668 -0.31203,-0.389712 -0.281645,-0.420097 0.07581,-0.07581 -0.27304,0.05325 -0.393792,0.145683 -0.110979,0.08495 0.03151,0.442812 0.706018,1.773147 0.591355,1.166333 1.161907,2.140831 1.25419,2.142145 0.04229,6.02e-4 0.411832,-0.201213 0.821192,-0.448479 z m 28.839361,-4.920608 c 2.603144,-2.16266 4.744645,-4.000083 4.758892,-4.083161 0.01425,-0.08308 -0.101121,-0.290698 -0.256375,-0.461374 -0.6372,-0.700505 -1.957419,-3.014327 -1.957419,-3.430582 0,-0.252229 0.75729,-1.85264 0.838306,-1.771624 0.03009,0.03009 0.05471,-0.0099 0.05471,-0.08886 0,-0.07896 -0.03882,-0.16756 -0.08627,-0.196884 -0.09638,-0.05957 -1.748137,0.849156 -6.680384,3.675235 -4.399716,2.520949 -4.116091,2.333353 -4.026614,2.66331 0.03996,0.147347 0.431179,0.887375 0.869379,1.644506 l 0.796729,1.376601 -0.30509,0.842826 -0.30509,0.842826 0.576692,0.90613 c 0.691565,1.086625 0.796419,1.340962 0.72904,1.768386 -0.04413,0.279947 -0.02924,0.320628 0.104523,0.285607 0.08579,-0.02246 2.285829,-1.810286 4.888972,-3.972946 z m -29.422326,1.198624 c 0.719417,-0.412198 0.890446,-0.549416 0.890446,-0.714413 0,-0.210496 -0.283281,-0.56143 -0.453196,-0.56143 -0.248802,0 -1.779346,1.131463 -1.779346,1.31539 0,0.120846 0.271162,0.470643 0.364842,0.470643 0.04774,0 0.487509,-0.229585 0.977254,-0.51019 z m 23.168827,-2.0586 c -0.09936,-0.0711 -1.828301,-3.067407 -1.828301,-3.168506 0,-0.07008 0.106046,-0.132512 6.008909,-3.537411 2.396255,-1.382212 4.393124,-2.513112 4.437487,-2.513112 0.04436,0 0.10542,-0.04006 0.135684,-0.08903 0.03609,-0.0584 -0.02038,-0.06036 -0.164151,-0.0057 -0.120546,0.04583 -0.2434,0.0591 -0.273008,0.0295 -0.02961,-0.02961 -0.05383,-0.0046 -0.05383,0.05562 0,0.0602 -0.03675,0.08674 -0.08168,0.05898 -0.04492,-0.02776 -0.09515,-0.01575 -0.111627,0.0267 -0.01647,0.04245 -1.295803,0.801221 -2.842955,1.686162 -1.547151,0.884941 -3.986446,2.292439 -5.420657,3.127773 -1.43421,0.835334 -2.629736,1.496708 -2.656724,1.469719 -0.02699,-0.02699 -0.04907,-0.0065 -0.04907,0.04544 0,0.05198 -0.100464,0.119719 -0.223254,0.150537 -0.12279,0.03082 -0.223254,0.09783 -0.223254,0.148904 0,0.05108 -0.03364,0.07208 -0.07475,0.04667 -0.04111,-0.02541 -0.161303,0.01443 -0.267092,0.08853 l -0.192343,0.134723 0.244766,0.484276 c 0.23597,0.466873 0.395079,0.59002 0.513906,0.397754 0.106043,-0.171582 1.10942,-0.623113 1.384658,-0.623113 0.349215,0 0.541902,0.20736 1.154728,1.24266 0.264121,0.446203 0.523874,0.810662 0.57723,0.80991 0.06501,-9.16e-4 0.06676,-0.02301 0.0053,-0.06698 z M 38.157581,62.083217 c 0.259754,-0.136575 0.506494,-0.337274 0.54831,-0.445997 0.04637,-0.12057 0.506574,-0.455935 1.179801,-0.859764 1.212464,-0.727286 2.252701,-1.433609 2.195536,-1.490774 -0.02014,-0.02014 -0.303277,0.0843 -0.629203,0.232085 -0.754016,0.341887 -0.984783,0.340674 -1.332462,-0.007 l -0.275699,-0.275699 -1.457843,0.734212 c -0.801813,0.403817 -1.497078,0.781489 -1.545033,0.839272 -0.05996,0.07224 0.04221,0.334182 0.327116,0.838625 0.227869,0.403462 0.437457,0.722271 0.465752,0.708465 0.02829,-0.01381 0.263971,-0.136845 0.523725,-0.27342 z m -5.111846,-1.631706 c 1.591959,-0.911062 3.210811,-1.869473 5.086074,-3.011113 0.09823,-0.0598 0.203189,-0.142303 0.233238,-0.183336 0.03005,-0.04103 0.08028,-0.07117 0.111627,-0.06698 0.187731,0.02512 0.245705,-0.0223 0.359148,-0.293812 0.247089,-0.591366 1.959833,-1.609888 2.928155,-1.741292 0.336948,-0.04572 0.700373,-0.185859 1.113111,-0.42921 0.337051,-0.198726 1.215607,-0.695858 1.952345,-1.10474 1.283974,-0.712592 8.027503,-4.602685 8.907841,-5.138606 0.233301,-0.142026 0.424183,-0.315779 0.424183,-0.386118 0,-0.07034 0.09793,-0.41221 0.217612,-0.759714 0.199387,-0.578908 0.358474,-1.39089 0.27251,-1.39089 -0.0792,0 -0.985051,0.562228 -1.035916,0.642956 -0.03005,0.04769 -0.08337,0.07851 -0.118491,0.06849 -0.03512,-0.01002 -0.251649,0.100837 -0.481175,0.246351 -0.229526,0.145514 -1.442056,0.838281 -2.694511,1.539483 -2.953085,1.653316 -18.854239,10.806289 -18.995394,10.934069 -0.09235,0.0836 -0.471305,1.757073 -0.472098,2.084812 -1.49e-4,0.06139 0.05182,0.111627 0.115477,0.111627 0.06366,0 0.99798,-0.504893 2.076264,-1.121984 z m 28.429117,-7.952868 c 2.21898,-1.265884 3.421739,-2.036729 3.500287,-2.243326 0.199969,-0.525959 0.651167,-1.341797 0.868312,-1.570049 0.248235,-0.260931 2.110054,-1.388365 7.91972,-4.795826 5.306288,-3.11222 16.321882,-9.498195 18.414827,-10.675467 1.041711,-0.585958 1.918246,-1.135032 1.947857,-1.220166 0.09058,-0.260422 -0.212153,-1.243975 -0.557057,-1.809848 -0.531713,-0.872364 -2.121635,-3.317246 -2.85801,-4.394868 l -0.684294,-1.001406 -0.451718,0.254358 c -3.448235,1.941661 -9.559108,5.469053 -14.516731,8.379522 l -2.277192,1.336871 0.03033,0.333779 c 0.01668,0.183578 -0.07746,0.768256 -0.209199,1.299283 l -0.23953,0.965505 -4.568439,2.632438 c -8.02162,4.62224 -10.769852,6.134865 -11.146207,6.134865 -0.570148,0 -0.501191,0.248394 0.559011,2.01363 0.600164,0.999273 0.748084,1.187459 0.967939,1.23143 0.503367,0.100674 0.973774,0.889035 1.007072,1.687766 0.03112,0.74647 0.708946,2.032703 1.071205,2.032703 0.102029,0 0.651846,-0.266038 1.221817,-0.591194 z"
     id="path67" />
  <path
     style="fill:#363430;fill-opacity:1;stroke:#363430;stroke-width:0.414;stroke-dasharray:none;stroke-opacity:1"
     d="M 4.48847,83.024352 C 3.9257813,82.168837 3.4599925,81.448005 3.4533838,81.422504 3.4467752,81.397002 3.1466749,80.865298 2.7864943,80.240938 l -0.6548738,-1.135199 0.00581,-0.996878 c 0.0032,-0.548282 0.01393,-0.976784 0.023854,-0.952226 0.1616071,0.399893 1.1198988,2.096074 1.5308233,2.709564 0.118162,0.176411 0.2507371,0.380083 0.2946114,0.452606 0.1020556,0.168696 0.1223606,0.189005 0.1592806,0.159312 0.015869,-0.01276 0.1343405,-0.0779 0.2632698,-0.14474 0.992356,-0.51449 15.7011424,-8.965948 16.0187194,-9.204126 0.03697,-0.02772 0.08093,-0.07603 0.09769,-0.107357 0.02699,-0.05044 0.02539,-0.06417 -0.01405,-0.120151 -0.02449,-0.03476 -0.05185,-0.08832 -0.06079,-0.119014 -0.02999,-0.102927 -0.360313,-0.744233 -0.576347,-1.118968 -0.267265,-0.4636 -0.568057,-0.950205 -0.804338,-1.301215 -0.09997,-0.148516 -0.200827,-0.305192 -0.22412,-0.348169 -0.0513,-0.09465 -0.261879,-0.454227 -0.273065,-0.466276 -0.0044,-0.0047 -0.03307,0.0078 -0.06372,0.02791 -0.03065,0.02008 -0.0714,0.03651 -0.09056,0.03651 -0.06969,0 -1.15749,0.620768 -6.775989,3.866798 C 9.5491343,72.688855 6.7903385,74.28195 5.5120429,75.01953 2.9935105,76.472731 2.9744633,76.483943 2.6820834,76.68538 2.5732147,76.76039 2.4049252,76.868984 2.3081068,76.926708 L 2.1320732,77.031663 V 76.452706 75.87375 l 0.1682218,-0.0953 c 0.092522,-0.05241 3.8711674,-2.232675 8.39699,-4.845028 4.525822,-2.612353 8.231963,-4.749732 8.235869,-4.749732 0.0093,0 0.332109,0.546204 0.580487,0.982318 0.243786,0.428051 1.493012,2.591773 1.86012,3.22182 0.148899,0.255547 0.270725,0.468454 0.270725,0.473127 0,0.0047 0.06472,0.119167 0.143816,0.25443 l 0.143816,0.245933 -0.200452,0.11471 c -0.148747,0.08512 -0.197757,0.124233 -0.190002,0.151631 0.0057,0.02031 0.203244,0.930474 0.438882,2.022595 0.419839,1.945846 0.42756,1.986372 0.384918,2.02045 -0.02393,0.01913 -2.149977,1.721769 -4.72454,3.783649 l -4.681025,3.748874 -1.15e-4,0.470629 c -6.4e-5,0.258847 -0.0066,0.568583 -0.01453,0.688303 l -0.01441,0.217673 h -0.478317 -0.478316 l 0.01287,-0.407439 c 0.0071,-0.224091 0.01894,-0.643785 0.02635,-0.932652 l 0.01348,-0.525213 0.516724,-0.414708 c 0.284199,-0.22809 1.646949,-1.321365 3.028334,-2.429501 1.381385,-1.108136 2.53463,-2.037062 2.562767,-2.06428 l 0.05116,-0.04949 -0.472495,-0.813444 c -0.582525,-1.00287 -0.587832,-1.01083 -0.634464,-0.951783 -0.01228,0.01555 -0.08763,0.07804 -0.167441,0.138862 -0.429941,0.32766 -2.112077,1.761049 -2.80184,2.387515 -0.122789,0.111522 -0.286044,0.256267 -0.362788,0.321656 -0.07763,0.06615 -0.139533,0.137132 -0.139533,0.160013 0,0.02262 -0.0091,0.04675 -0.02024,0.05363 -0.01113,0.0069 -0.03613,0.05916 -0.05556,0.116175 -0.06901,0.202533 -0.157345,0.306979 -0.39048,0.461694 -0.48264,0.320296 -1.092225,0.685 -2.541779,1.520699 l -0.7643379,0.44067 -0.2514572,-0.02341 C 9.2820211,81.540757 9.1381521,81.500464 8.9943824,81.403837 8.7513803,81.240515 8.6399356,81.000162 8.6399356,80.639399 c 0,-0.199214 0.00672,-0.236932 0.062383,-0.350287 0.1052494,-0.214327 0.2953653,-0.366414 0.9980747,-0.798433 0.4240427,-0.260698 0.6705097,-0.422163 0.6945837,-0.455035 0.0075,-0.01026 0.02007,-0.01779 0.02791,-0.01674 0.05491,0.0073 0.06635,-0.0021 0.412337,-0.340383 0.09002,-0.08802 0.215219,-0.230357 0.278221,-0.31631 0.063,-0.08595 0.160139,-0.210778 0.215861,-0.27739 l 0.101311,-0.121111 -0.111628,0.064 c -0.06139,0.0352 -0.176928,0.103825 -0.256742,0.152505 -0.07981,0.04868 -0.330974,0.190927 -0.558135,0.316106 -1.611323,0.887933 -5.4625172,3.107033 -5.558151,3.202666 -0.021971,0.02197 -0.051055,0.04371 -0.064633,0.04832 -0.027533,0.0093 0.1462198,0.28744 0.1795874,0.28744 0.011415,0 0.015487,0.0085 0.00905,0.01894 -0.00644,0.01042 0.0063,0.03827 0.028304,0.06189 0.022007,0.02362 0.090369,0.128119 0.1519162,0.232216 0.125322,0.211964 0.6737815,1.072361 1.1198571,1.75678 0.161755,0.248182 0.2941001,0.456646 0.2941001,0.463253 0,0.0066 -0.259334,0.01201 -0.576298,0.01201 H 5.5115406 Z M 9.9162638,81.01751 c 0.2576622,-0.140452 2.2707332,-1.299176 2.6991852,-1.553652 0.300824,-0.178672 0.344999,-0.212794 0.416965,-0.322073 0.04427,-0.06722 0.08727,-0.153102 0.09556,-0.190836 0.02367,-0.107762 -0.03034,-0.255995 -0.13617,-0.373697 -0.122463,-0.136209 -0.243957,-0.193418 -0.359784,-0.169415 -0.04683,0.0097 -0.0977,0.01552 -0.113046,0.01293 -0.01535,-0.0026 -0.02791,0.0064 -0.02791,0.01991 0,0.01354 -0.011,0.01782 -0.02445,0.0095 -0.01345,-0.0083 -0.05182,0.0051 -0.08528,0.02986 -0.03346,0.02473 -0.130935,0.08028 -0.216622,0.123428 -0.422834,0.212936 -2.7374607,1.560332 -2.9276069,1.704226 -0.2088715,0.158064 -0.2286148,0.474762 -0.041874,0.671681 0.1885502,0.198828 0.4051804,0.210279 0.7210203,0.03812 z m 3.3872142,-3.107047 c 0.200799,-0.161938 1.40131,-1.192233 2.190858,-1.880224 0.331807,-0.289127 0.652089,-0.565871 0.711737,-0.614987 0.277327,-0.228356 0.705429,-0.595497 0.705429,-0.604977 0,-0.01739 -0.468312,0.250573 -0.491159,0.281036 -0.0061,0.0082 -0.0413,0.03031 -0.07814,0.04917 -0.03684,0.01886 -0.277952,0.154345 -0.53581,0.301087 -1.160288,0.660295 -1.655329,0.951839 -1.696732,0.999253 -0.298195,0.341495 -1.020468,1.163073 -1.090525,1.240463 -0.05002,0.05526 -0.119145,0.132126 -0.153611,0.170824 l -0.06267,0.07036 0.128754,0.03919 c 0.07081,0.02155 0.138298,0.04766 0.149963,0.05801 0.03699,0.03283 0.05958,0.02171 0.221901,-0.109201 z m 5.865205,-0.945442 c 0.673725,-0.538104 0.781486,-0.635354 0.76184,-0.687536 -0.05493,-0.145914 -1.338072,-2.317447 -1.399464,-2.368398 -0.0239,-0.01984 -0.06115,-0.01029 -0.165629,0.04245 -0.228699,0.115447 -0.516261,0.292124 -0.516261,0.317189 0,0.02675 0.326901,0.613923 0.371587,0.667431 0.02452,0.02937 0.01171,0.04775 -0.08771,0.125857 -0.06404,0.05031 -0.233269,0.202144 -0.376069,0.337413 l -0.259638,0.245944 0.09375,0.175171 c 0.339181,0.633772 0.921676,1.615161 0.958665,1.615161 0.01629,0 0.294815,-0.211806 0.618935,-0.470681 z m 1.283863,-1.016959 c 0.152714,-0.103432 0.709421,-0.557903 0.78235,-0.638675 0.05997,-0.06642 0.06942,-0.09248 0.06378,-0.175821 -0.0067,-0.09837 -0.391006,-1.8699 -0.492455,-2.269824 -0.02989,-0.117809 -0.0632,-0.22306 -0.07403,-0.233891 -0.04303,-0.04303 -1.303755,0.657957 -1.695255,0.942593 l -0.09595,0.06976 0.09452,0.172113 c 0.234644,0.427254 0.910521,1.579657 1.056784,1.801868 0.08891,0.135069 0.178406,0.27823 0.198892,0.318137 0.02049,0.03991 0.04563,0.07256 0.05588,0.07256 0.01025,0 0.05771,-0.02647 0.105472,-0.05881 z"
     id="path69" />
  <path
     style="fill:#363430;fill-opacity:1;stroke:#363430;stroke-width:0.526;stroke-dasharray:none;stroke-opacity:1"
     d="M 9.5034443,89.333132 8.0826636,88.464597 6.8695387,86.63754 C 6.2023199,85.632659 5.6628742,84.804022 5.6707703,84.796126 c 0.0079,-0.0079 0.2643345,-0.02037 0.5698629,-0.02772 l 0.5555063,-0.01336 0.968377,1.472999 0.9683771,1.472998 1.0244551,0.620648 c 0.5634503,0.341357 1.0911003,0.637376 1.1725553,0.657819 0.103956,0.02609 0.275754,-0.03615 0.576377,-0.20883 l 0.428277,-0.246001 0.01673,-1.875716 0.01673,-1.875717 h 0.473483 0.473483 l -0.01661,2.162744 -0.01662,2.162744 -0.947187,0.551967 c -0.520953,0.303582 -0.961395,0.551741 -0.97876,0.551465 -0.01736,-2.77e-4 -0.670924,-0.391343 -1.4523537,-0.869037 z"
     id="path71" />
  <path
     style="fill:#363430;fill-opacity:1;stroke:#363430;stroke-width:0.00830367;stroke-dasharray:none;stroke-opacity:1"
     d="M 9.8981057,86.211414 C 9.8633755,86.20043 9.812796,86.179889 9.7857068,86.165767 9.6173371,86.077992 9.2938672,85.565835 8.1933266,83.644518 7.4744993,82.389594 7.3100151,82.077239 7.259316,81.870836 7.233348,81.765118 7.233545,81.759874 7.267856,81.643263 7.313623,81.4877 7.36297,81.405943 7.4703115,81.307839 c 0.1004042,-0.09176 0.164573,-0.127764 0.2956593,-0.165872 0.1808713,-0.05258 0.4345227,-0.0097 0.5424452,0.09168 0.1778948,0.167123 1.832938,2.962425 2.26775,3.830139 0.150186,0.299713 0.187503,0.420231 0.178882,0.577722 -0.0081,0.148383 -0.0424,0.22643 -0.149924,0.341385 -0.193183,0.206527 -0.481699,0.299783 -0.7070149,0.228525 z m 0.3161313,-0.467547 c 0.09383,-0.05799 0.128097,-0.187583 0.07633,-0.288637 C 10.27633,85.427442 9.9325983,84.829291 9.5267174,84.126005 9.1208363,83.422718 8.6351796,82.580906 8.4474801,82.25531 8.2597807,81.929715 8.0859052,81.644757 8.0610901,81.62207 c -0.064534,-0.059 -0.143727,-0.07003 -0.2297154,-0.03199 -0.09097,0.04024 -0.1276166,0.0974 -0.1274738,0.198836 1.078e-4,0.07648 0.037791,0.14483 0.9534034,1.729311 0.5243102,0.907326 1.024536,1.773077 1.1116128,1.92389 0.1124949,0.194837 0.1723828,0.282781 0.2069008,0.303831 0.064748,0.03948 0.1726921,0.03854 0.2384191,-0.0021 z"
     id="path73" />
  <path
     style="fill:#363430;fill-opacity:1;stroke:#363430;stroke-width:0.0166073;stroke-dasharray:none;stroke-opacity:1"
     d="M 1.3315091,77.723941 C 0.80145607,76.804945 0.74274648,76.689166 0.78946928,76.655001 0.91539974,76.562919 1.9132458,76.004329 1.9270856,76.018169 c 0.00843,0.0084 0.011622,0.627567 0.00709,1.375861 l -0.00823,1.360535 z"
     id="path75" />
</svg>
